SplineFontDB: 3.2
FontName: NXBaskerville-Bold
FullName: NX Baskerville Bold
FamilyName: NX Baskerville
Weight: Bold
Copyright: Copyright (c) 2020, Daniel Benjamin Miller\nCopyright (c) 2012, Pablo Impallari (www.impallari.com|impallari@gmail.com), \nCopyright (c) 2012, Rodrigo Fuenzalida (www.rfuenzalida.com|hello :rfuenzalida.com), with Reserved Font Name Libre Baskerville.
Version: 1.000
ItalicAngle: 0
UnderlinePosition: -100
UnderlineWidth: 50
Ascent: 800
Descent: 200
InvalidEm: 0
sfntRevision: 0x00010000
LayerCount: 2
Layer: 0 0 "Back" 1
Layer: 1 0 "Fore" 0
XUID: [1021 572 -1837316912 11029870]
StyleMap: 0x0020
FSType: 0
OS2Version: 3
OS2_WeightWidthSlopeOnly: 0
OS2_UseTypoMetrics: 0
CreationTime: 1354221900
ModificationTime: 1586477712
PfmFamily: 17
TTFWeight: 700
TTFWidth: 5
LineGap: 0
VLineGap: 0
Panose: 2 0 0 0 0 0 0 0 0 0
OS2TypoAscent: 970
OS2TypoAOffset: 0
OS2TypoDescent: -270
OS2TypoDOffset: 0
OS2TypoLinegap: 0
OS2WinAscent: 970
OS2WinAOffset: 0
OS2WinDescent: 270
OS2WinDOffset: 0
HheadAscent: 970
HheadAOffset: 0
HheadDescent: -270
HheadDOffset: 0
OS2SubXSize: 700
OS2SubYSize: 650
OS2SubXOff: 0
OS2SubYOff: 140
OS2SupXSize: 700
OS2SupYSize: 650
OS2SupXOff: 0
OS2SupYOff: 477
OS2StrikeYSize: 50
OS2StrikeYPos: 250
OS2CapHeight: 770
OS2XHeight: 530
OS2Vendor: 'XDBM'
Lookup: 4 0 1 "'liga' Standard Ligatures in Latin lookup 0" { "'liga' Standard Ligatures in Latin lookup 0 subtable"  } ['liga' ('latn' <'dflt' > ) ]
Lookup: 4 0 0 "'dlig' Discretionary Ligatures in Latin lookup 1" { "'dlig' Discretionary Ligatures in Latin lookup 1 subtable"  } ['dlig' ('latn' <'dflt' > ) ]
Lookup: 4 0 0 "'frac' Diagonal Fractions in Latin lookup 2" { "'frac' Diagonal Fractions in Latin lookup 2 subtable"  } ['frac' ('latn' <'dflt' > ) ]
Lookup: 1 0 0 "'sinf' Scientific Inferiors in Latin lookup 3" { "'sinf' Scientific Inferiors in Latin lookup 3 subtable"  } ['sinf' ('latn' <'dflt' > ) ]

StartChar: .notdef
Encoding: 65536 -1 0
Width: 756
Flags: W
HStem: -260 61<240 515> 911 59<240 515>
VStem: 130 110<-199 911> 515 111<-199 911>
LayerCount: 2
Fore
SplineSet
130 970 m 1
 626 970 l 1
 626 -260 l 1
 130 -260 l 1
 130 970 l 1
240 -199 m 1
 515 -199 l 1
 515 911 l 1
 240 911 l 1
 240 -199 l 1
EndSplineSet
EndChar

StartChar: n
Encoding: 110 110 4
Width: 727
Flags: W
HStem: 0 40<29 99.5889 272.906 344 401 472.074 644.7 714> 468 34<25 60.5526> 475 65<315.433 448.168>
VStem: 118 139<56.4499 406.946> 490 139<56.3727 426.463>
LayerCount: 2
Fore
SplineSet
235 452 m 1xb8
 273.485280137 500.981265629 330.651450907 540 412 540 c 0
 501.879724807 540 546.054402977 516.831273483 586 464 c 0
 614.557068423 425.363966251 629 378.474867718 629 304 c 2
 629 163 l 2
 629 153.783749381 628.886564264 144.721786533 628.886564264 135.965991432 c 0
 628.886564264 91.2423457811 631.846164887 54.5067847325 668 46 c 0
 679.333333333 43.3333333333 694.666666667 41.3333333333 714 40 c 1
 714 0 l 1
 401 0 l 1
 401 40 l 1
 454.25495863 41.7751652877 480.6568174 48.9261304994 487 96.5 c 0
 489 111.5 490 131.333333333 490 156 c 2
 490 292 l 2
 490 372.268931067 482.708785692 442.307569815 429 465.5 c 0
 414.333333333 471.833333333 396 475 374 475 c 0xb8
 324.577517498 475 297.928088113 442.62934233 279 407 c 0
 266.55772263 382.115445261 257 339.589211727 257 301 c 2
 257 163 l 2
 257 153.683562443 256.883111861 144.535975847 256.883111861 135.709352973 c 0
 256.883111861 90.9026280084 259.8952002 54.3668113829 296.5 46 c 0
 308.166666667 43.3333333333 324 41.3333333333 344 40 c 1
 344 0 l 1
 29 0 l 1
 29 40 l 1
 80.5213747466 43.5531982584 108.532666718 48.5728892631 115 96 c 0
 117 110.666666667 118 130.666666667 118 156 c 2
 118 281 l 2
 118 320.333333333 117.333333333 352.166666667 116 376.5 c 0
 113.936382241 414.161024105 114.40048223 428.11918021 103 447.5 c 0
 90.9426287138 467.997531186 59.2191197894 468 25 468 c 1
 25 502 l 1xd8
 218 540 l 1
 231 452 l 1
 235 452 l 1xb8
EndSplineSet
EndChar

StartChar: u
Encoding: 117 117 5
Width: 709
Flags: W
HStem: -10 65<282.877 405.525> 1 39<618.365 696> 490 40<13 81.26 378 448.046>
VStem: 98 139<109.737 473.959> 465 139<129.045 473.915>
LayerCount: 2
Fore
SplineSet
304 -10 m 0xb8
 167.132874853 -10 98 83.4841635335 98 231 c 2
 98 366 l 2
 98 393.333333333 97.3333333333 414.833333333 96 430.5 c 0
 91.7167864243 480.827759514 63.836021547 484.916397845 13 490 c 1
 13 530 l 1
 237 530 l 1
 237 247 l 2
 237 179.666666667 245.333333333 130.833333333 262 100.5 c 0
 278.666666667 70.1666666667 305.333333333 55 342 55 c 0xb8
 381.333333333 55 411.666666667 73 433 109 c 0
 454.333333333 143.666666667 465 194.666666667 465 262 c 2
 465 366 l 2
 465 376.354585856 465.156825483 386.381001048 465.156825483 395.929057521 c 0
 465.156825483 439.521730936 461.887834801 473.143128194 425.5 482.5 c 0
 413.833333333 485.5 398 488 378 490 c 1
 378 530 l 1
 604 530 l 1
 604 227 l 2
 604 186.333333333 604.5 154.5 605.5 131.5 c 0
 607.790563701 78.817034879 607.596317274 46.1358402638 655.5 41.5 c 0
 665.833333333 40.5 679.333333333 40 696 40 c 1
 696 1 l 1x78
 497 -11 l 1
 486 78 l 1
 482 78 l 1
 449.666741969 25.769352412 385.893471416 -10 304 -10 c 0xb8
EndSplineSet
EndChar

StartChar: h
Encoding: 104 104 6
Width: 714
Flags: W
HStem: 0 40<16 88.6317 259.875 331 388 459.685 631.362 701> 474 66<310.15 436.588> 755 37<19 60.0789> 810 20G<124.632 242>
VStem: 105 137<55.9636 399.446 461 743.578> 477 139<55.1984 422.304>
LayerCount: 2
Fore
SplineSet
375 474 m 0
 282.756037831 474 244 394.715451922 244 297 c 2
 244 164 l 2
 244 154.999879417 243.89483762 146.123959968 243.89483762 137.520959534 c 0
 243.89483762 92.1586623883 246.818657377 54.3843068853 283.5 46 c 0
 295.166666667 43.3333333333 311 41.3333333333 331 40 c 1
 331 0 l 1
 16 0 l 1
 16 40 l 1
 68.4393199192 43.4959546613 97.0262950009 47.2366550082 102.5 96.5 c 0
 104.166666667 111.5 105 131.666666667 105 157 c 2
 105 568 l 2
 105 608 104.5 639.5 103.5 662.5 c 0
 101.266077134 713.880225913 101.794543709 748.710909271 55.5 753.5 c 0
 45.8333333333 754.5 33.6666666667 755 19 755 c 1
 19 792 l 1
 242 830 l 1
 242 461 l 1
 246 461 l 1
 283.256188981 510.274314458 327.452878893 540 408 540 c 0
 510.396355561 540 572.482112838 488.300680293 601 407.5 c 0
 611 379.166666667 616 349.666666667 616 319 c 2
 616 164 l 2
 616 153.977462741 615.860935378 144.148816185 615.860935378 134.700341399 c 0
 615.860935378 90.2726348713 618.935623225 54.2504415941 654 46 c 0
 665.333333333 43.3333333333 681 41.3333333333 701 40 c 1
 701 0 l 1
 388 0 l 1
 388 40 l 1
 440.435182091 41.747839403 469.201117019 48.8100531749 474.5 96.5 c 0
 476.166666667 111.5 477 131.666666667 477 157 c 2
 477 280 l 2
 477 350.666666667 469.333333333 400.666666667 454 430 c 0
 438.666666667 459.333333333 412.333333333 474 375 474 c 0
EndSplineSet
EndChar

StartChar: l
Encoding: 108 108 7
Width: 355
Flags: W
HStem: 0 40<19 86.9126 265.48 334> 758 34<15 57.7368> 810 20G<124.895 247>
VStem: 108 139<59.8429 745.503>
LayerCount: 2
Fore
SplineSet
247 164 m 2
 247 106.768934755 247.192028534 56.8315218586 288 45.5 c 4
 299.296253597 42.3632661718 314.666666667 40.6666666667 334 40 c 1
 334 0 l 1
 19 0 l 1
 19 40 l 1
 70.8901882303 41.8532210082 97.3399202904 53.4709161525 104.5 99.5 c 0
 106.833333333 114.5 108 133.666666667 108 157 c 2
 108 570 l 2
 108 608.666666667 107.333333333 640.5 106 665.5 c 0
 103.702793634 708.572619357 104.235459181 738.23521866 78.5 750 c 0
 66.8333333333 755.333333333 45.6666666667 758 15 758 c 1
 15 792 l 1
 247 830 l 1
 247 164 l 2
EndSplineSet
EndChar

StartChar: r
Encoding: 114 114 8
Width: 498
Flags: W
HStem: 0 40<30 102.632 275.638 364> 437 103<331.048 432.563> 468 35<26 63.8378>
VStem: 119 139<55.9636 358.979>
LayerCount: 2
Fore
SplineSet
496 473 m 0xd0
 496 430.645961324 469.535946558 397 427 397 c 0
 395.768302048 397 378.340394228 417.609203949 359.5 430.5 c 0
 353.166666667 434.833333333 346.666666667 437 340 437 c 0xd0
 327.333333333 437 315.333333333 428.666666667 304 412 c 0
 272.887051388 366.245663806 258 281.082778888 258 203 c 2
 258 155 l 2
 258 94.7198601303 258.584288211 51.7359519648 308 43.5 c 0
 322 41.1666666667 340.666666667 40 364 40 c 1
 364 0 l 1
 30 0 l 1
 30 40 l 1
 82.4393199192 43.4959546613 111.026295001 47.2366550082 116.5 96.5 c 0
 118.166666667 111.5 119 131.666666667 119 157 c 2
 119 279 l 2
 119 320.333333333 118 353.333333333 116 378 c 0
 112.659488703 419.199639334 103.999860123 451.135184281 74.5 461.5 c 0
 62.1666666667 465.833333333 46 468 26 468 c 1
 26 503 l 1xb0
 226 540 l 1
 242 425 l 1
 246 425 l 1
 275.244858288 482.406573677 331.836287644 540 410 540 c 0
 455.126188813 540 496 515.721550475 496 473 c 0xd0
EndSplineSet
EndChar

StartChar: dotlessi
Encoding: 305 305 9
Width: 361
Flags: W
HStem: 0 40<29 96.9126 274.939 344> 468 34<25 67.7368> 520 20G<134.895 257>
VStem: 118 139<59.8429 455.503>
LayerCount: 2
Fore
SplineSet
257 164 m 2
 257 159.542291758 256.9890314 155.12883264 256.9890314 150.774418961 c 0
 256.9890314 99.223932671 258.526326898 55.9489134681 298 45.5 c 0
 309.333333333 42.5 324.666666667 40.6666666667 344 40 c 1
 344 0 l 1
 29 0 l 1
 29 40 l 1
 80.8901882303 41.8532210082 107.33992029 53.4709161525 114.5 99.5 c 0
 116.833333333 114.5 118 133.666666667 118 157 c 2
 118 280 l 2
 118 318.666666667 117.333333333 350.5 116 375.5 c 0
 113.702793634 418.572619357 114.235459181 448.23521866 88.5 460 c 0
 76.8333333333 465.333333333 55.6666666667 468 25 468 c 1
 25 502 l 1
 257 540 l 1
 257 164 l 2
EndSplineSet
EndChar

StartChar: o
Encoding: 111 111 10
Width: 660
Flags: W
HStem: -10 61<265.516 394.387> 482 58<264.757 391.256>
VStem: 37 157<160.511 373.561> 466 157<161.227 372.391>
LayerCount: 2
Fore
SplineSet
328 540 m 0
 415.419804065 540 486.82189718 506.269424729 535.5 463 c 0
 583.872442203 420.002273597 623 355.454356952 623 269 c 0
 623 180.331744515 584.236036478 113.524280239 535.5 69 c 0
 487.014147368 24.7042827809 415.928437451 -10 328 -10 c 0
 241.175402825 -10 170.689251512 23.8874423513 123 68 c 0
 74.700339241 112.677186202 37 180.456777595 37 269 c 0
 37 355.229469021 75.1363296088 420.922696648 123 464 c 0
 170.971762807 507.174586526 241.552997677 540 328 540 c 0
328 482 m 0
 281.439736624 482 250.128646724 454.405834758 230.5 423 c 0
 206.775267364 385.040427782 194 330.470677489 194 268 c 0
 194 176.78419647 217.614516615 101.22346908 272.5 66.5 c 0
 288.833333333 56.1666666667 307.333333333 51 328 51 c 256
 375.959193201 51 407.683818285 78.3327122853 428 110.5 c 0
 452.407624421 149.145405333 466 204.157405411 466 268 c 0
 466 357.538242505 439.573987234 433.023654818 384.5 466.5 c 0
 367.5 476.833333333 348.666666667 482 328 482 c 0
EndSplineSet
Substitution2: "Single Substitution lookup 6 subtable" ordmasculine
EndChar

StartChar: p
Encoding: 112 112 11
Width: 697
Flags: W
HStem: -250 42<19 86.5489 269.903 364> -10 66<314.927 454.33> 469 39<17 67.25> 483 57<313.858 450.409>
VStem: 106 138<-183.537 56 138.543 404.188> 508 151<147.616 378.972>
LayerCount: 2
Fore
SplineSet
218 465 m 1xec
 222 465 l 1
 266 515 323.333333333 540 394 540 c 0xdc
 477.706105218 540 541.29265032 506.924458122 584.5 462.5 c 0
 628.301790296 417.464356456 659 350.513483554 659 265 c 256
 659 136.680851534 592.899659625 49.1328458211 501.5 10.5 c 0
 469.166666667 -3.16666666667 434 -10 396 -10 c 0
 331.333333333 -10 282 12 248 56 c 1
 244 56 l 1
 244 -83 l 2
 244 -150.131714565 247.899153454 -190.595564565 301.5 -202 c 0
 317.166666667 -205.333333333 338 -207.333333333 364 -208 c 1
 364 -250 l 1
 19 -250 l 1
 19 -208 l 1
 70.6280124585 -206.08785139 95.3455668243 -194.492784701 102.5 -148.5 c 0
 104.833333333 -133.5 106 -114 106 -90 c 2
 106 282 l 2
 106 327.958647171 105.130729803 393.259197786 99 428 c 0
 91.2458400905 463.669135584 65.3972030714 469 17 469 c 1
 17 508 l 1
 218 536 l 1
 218 465 l 1xec
246 232 m 2
 246 137.973010721 296.870161934 56 388 56 c 0
 428.666666667 56 458.833333333 72.8333333333 478.5 106.5 c 0
 498.166666667 140.166666667 508 192.333333333 508 263 c 0
 508 409.666666667 468 483 388 483 c 0
 341.854749958 483 301.420840524 459.628196004 281 432 c 256
 258.554754209 401.632902753 246 352.949526363 246 300 c 2
 246 232 l 2
EndSplineSet
EndChar

StartChar: d
Encoding: 100 100 12
Width: 694
Flags: W
HStem: -10 57<251.19 380.985> 1 39<603.825 671> 474 66<249.538 381.819> 756 34<337 381.275> 810 20G<463.5 590>
VStem: 39 152<146.07 377.988> 450 140<119.907 395.261 474 740.39>
LayerCount: 2
Fore
SplineSet
292 540 m 0xbe
 366.236125949 540 412.70918263 517.809290528 448 474 c 1
 452 474 l 1
 452 559 l 2
 452 598.333333333 451.5 632.166666667 450.5 660.5 c 0
 448.624385526 713.642410093 451.642806479 733.03503288 415.5 746.5 c 0
 398.5 752.833333333 372.333333333 756 337 756 c 1
 337 790 l 1
 590 830 l 1
 590 258 l 2
 590 208 590.5 169.5 591.5 142.5 c 0
 592.5 115.5 594.333333333 95 597 81 c 0
 600.896300879 55.674044284 610.163334703 44.4262961442 636.5 41.5 c 0
 645.5 40.5 657 40 671 40 c 1
 671 1 l 1x7e
 481 -10 l 1
 481 64 l 1
 477 64 l 1
 431 14.6666666667 371.333333333 -10 298 -10 c 0
 173.323882516 -10 93.1606351023 59.8972927599 58 151.5 c 0
 45.3333333333 184.5 39 221 39 261 c 256
 39 345.88472693 70.054093184 414.105328191 111.5 460.5 c 0
 151.340642584 505.097734236 212.318584361 540 292 540 c 0xbe
312 474 m 0
 216.562702762 474 191 372.017417139 191 263 c 0
 191 193.666666667 201.333333333 140.333333333 222 103 c 0
 242.666666667 65.6666666667 272.333333333 47 311 47 c 0xbe
 361.461525399 47 401.452723948 77.1120523424 423 110 c 0
 444.879564621 144.382172976 450 187.495097072 450 248 c 2
 450 287 l 2
 450 366.800923623 423.846843201 431.224905428 372 459 c 0
 353.333333333 469 333.333333333 474 312 474 c 0
EndSplineSet
EndChar

StartChar: b
Encoding: 98 98 13
Width: 674
Flags: W
HStem: -10 57<293.909 425.651> 0 21G<85 141.687> 477 63<292.494 425.484> 756 34<-1 38.2> 810 20G<111 223>
VStem: 85 138<126.118 395.347 461 736.909> 484 152<152.421 380.085>
LayerCount: 2
Fore
SplineSet
484 264 m 0xbe
 484 375.088529174 459.699700694 477 362 477 c 0
 306.945788974 477 267.4315887 443.006212029 248 403 c 0
 232.666666667 371 225 330.666666667 225 282 c 2
 225 219 l 2
 225 143.709750717 257.270563708 85.8593068717 307 60 c 0
 323.666666667 51.3333333333 342 47 362 47 c 0
 402 47 432.333333333 65.3333333333 453 102 c 0
 473.666666667 138.666666667 484 192.666666667 484 264 c 0xbe
376 -10 m 4
 298.967773438 -10 230.850764664 23.7318357503 195 67 c 1
 119 0 l 1
 85 0 l 1x7e
 85 595 l 2
 85 657.666666667 80.6666666667 700.666666667 72 724 c 0
 60.9600620674 749.759855176 33.3106528986 751.098478157 -1 756 c 1
 -1 790 l 1
 223 830 l 1
 223 461 l 1
 227 461 l 1
 258.809820811 507.491276569 312.074365501 540 387 540 c 0
 465.346017589 540 524.949934941 503.682161408 564.5 460 c 0
 605.286745047 414.951953231 636 348.153428689 636 266 c 0
 636 180.421572632 603.075318972 113.416529633 559.5 68 c 0
 517.972299664 24.7176081004 455.357421875 -10 376 -10 c 4
EndSplineSet
EndChar

StartChar: q
Encoding: 113 113 14
Width: 674
Flags: W
HStem: -250 40<328 417.842 605.704 686> -10 65<250.31 382.865> 482 58<250.427 380.393> 510 20G<518.793 589>
VStem: 39 151<148.044 380.776> 451 138<-179.971 62 135.797 403.17>
LayerCount: 2
Fore
SplineSet
190 269 m 0xec
 190 158.481854526 217.069709931 55 314 55 c 0
 369.060124479 55 406.526851223 87.9082231057 426 128 c 0
 441.333333333 160.666666667 449 201 449 249 c 2
 449 311 l 2
 449 385.768723105 416.51648769 442.99125143 367.5 469 c 0
 351.166666667 477.666666667 333.333333333 482 314 482 c 0
 217.455421577 482 190 378.671655585 190 269 c 0xec
446 62 m 1
 405.996866889 18.5680269081 367.363765639 -10 293 -10 c 0
 212.675228138 -10 151.83845093 23.6587217958 111 67.5 c 0
 69.0078728398 112.579783569 39 179.090412538 39 263 c 0
 39 392.083130219 102.398620039 480.182562333 193.5 519.5 c 0
 225.166666667 533.166666667 260 540 298 540 c 0xec
 364.666666667 540 421.666666667 517.333333333 469 472 c 1
 545 530 l 1
 589 530 l 1xdc
 589 -85 l 2
 589 -93.5129037577 588.922390939 -101.801892725 588.922390939 -109.789837189 c 0
 588.922390939 -158.785258635 591.842192593 -196.454808737 633.5 -205 c 0
 646.5 -207.666666667 664 -209.333333333 686 -210 c 1
 686 -250 l 1
 328 -250 l 1
 328 -210 l 1
 390.722939687 -208.25769612 433.150219235 -199.021830403 445.5 -148.5 c 0
 449.166666667 -133.5 451 -114.666666667 451 -92 c 2
 451 62 l 1
 446 62 l 1
EndSplineSet
EndChar

StartChar: j
Encoding: 106 106 15
Width: 331
Flags: W
HStem: -260 53<-14.0284 80.9129> 468 34<14 56.7368> 520 20G<123.895 246> 675 155<122.951 229.844>
VStem: 99 155<698.952 805.845> 107 139<-127.405 454.466>
LayerCount: 2
Fore
SplineSet
-99 -109 m 0xf4
 -23.3713106937 -109 -41.1383160487 -207 33 -207 c 0
 57.6666666667 -207 76.1666666667 -197.333333333 88.5 -178 c 0
 100.833333333 -158.666666667 107 -125.333333333 107 -78 c 2
 107 290 l 2xf4
 107 294.380469474 107.002469901 298.722835566 107.002469901 303.023853783 c 0
 107.002469901 351.476034914 106.689023234 394.680899319 99 428 c 0xf8
 90.990570113 464.84337748 65.5345955575 468 14 468 c 1
 14 502 l 1
 246 540 l 1
 246 -2 l 2
 246 -162.545945415 168.249660613 -260 11 -260 c 0
 -40.3333333333 -260 -80.5 -250.5 -109.5 -231.5 c 0
 -138.5 -212.5 -153 -189 -153 -161 c 0
 -153 -129.733812791 -128.894637393 -109 -99 -109 c 0xf4
176 675 m 0
 133.672013657 675 99 709.673205616 99 752 c 0
 99 795.154994083 133.142722861 830 176 830 c 0
 219.687372009 830 254 795.686271739 254 752 c 0xf8
 254 709.143986485 219.15137054 675 176 675 c 0
EndSplineSet
EndChar

StartChar: c
Encoding: 99 99 16
Width: 564
Flags: W
HStem: -5 66<265.038 429.608> 482 58<251.217 358.208>
VStem: 39 154<148.454 379.326>
LayerCount: 2
Fore
SplineSet
342 61 m 0
 407.692562588 61 460.985532794 88.8535257033 502 121 c 1
 528 83 l 1
 481.391509679 31.4853528033 405.361822819 -5 311 -5 c 4
 181.831934439 -5 95.4305291543 59.7532721468 58.5 153.5 c 0
 45.5 186.5 39 223 39 263 c 0
 39 397.165405359 111.15161473 482.69872254 210 520 c 0
 245.333333333 533.333333333 284.333333333 540 327 540 c 0
 411.674897027 540 484.381867148 516.36186602 520 468.5 c 0
 530.666666667 454.166666667 536 438.666666667 536 422 c 0
 536 383.992104753 512.717660053 359 475 359 c 0
 407.764227886 359 392.515498026 438.237084978 355 469.5 c 0
 343.723495034 478.897087471 334.32271312 482 315 482 c 0
 222.452073324 482 193 381.159278833 193 277 c 0
 193 157.747718488 232.39303496 61 342 61 c 0
EndSplineSet
EndChar

StartChar: e
Encoding: 101 101 17
Width: 585
Flags: W
HStem: -10 65<270.945 427.201> 300 56<201 397.134> 482 58<259.112 375.997>
VStem: 38 152<149.086 297.234> 409 140<312 429.804>
LayerCount: 2
Fore
SplineSet
348 55 m 0
 417.360773842 55 470.254357327 90.5359617041 512 128 c 1
 540 93 l 1
 479.333333333 24.3333333333 403.666666667 -10 313 -10 c 4
 181.831070798 -10 96.3880918694 54.9491749199 58 149 c 0
 44.6666666667 181.666666667 38 218 38 258 c 0
 38 393.236275932 111.431307986 479.772523195 209.5 519 c 0
 244.5 533 283 540 325 540 c 0
 464.444568924 540 549 461.579894409 549 323 c 0
 549 301.000268074 544.302979109 299.989656029 522.990936243 299.989656029 c 0
 520.834798517 299.989656029 518.508600172 300 516 300 c 2
 194 300 l 1
 191.333333333 294 190 283 190 267 c 0
 190 151.491703622 239.600952067 55 348 55 c 0
409 382 m 0
 409 437.0124892 374.337570351 482 321 482 c 0
 254.53213395 482 212.098525365 417.041889508 201 356 c 1
 346 356 l 2
 372.666666667 356 389.833333333 357.5 397.5 360.5 c 0
 405.166666667 363.5 409 370.666666667 409 382 c 0
EndSplineSet
EndChar

StartChar: f
Encoding: 102 102 18
Width: 443
Flags: W
HStem: 0 40<35 106.934 292.756 373> 475 55<17 125 264 433> 774 56<304.256 398.147>
VStem: 125 139<65.6731 475 530 692.255>
LayerCount: 2
Fore
SplineSet
534 745 m 0
 534 713.028695674 506.775466413 692 474 692 c 0
 462 692 451.5 696 442.5 704 c 0
 433.5 712 420 726.666666667 402 748 c 0
 389.097696814 763.05268705 374.015977248 774 350 774 c 0
 323.333333333 774 302.333333333 757.833333333 287 725.5 c 0
 271.666666667 693.166666667 264 648.666666667 264 592 c 2
 264 530 l 1
 433 530 l 1
 433 475 l 1
 264 475 l 1
 264 166 l 2
 264 102.452653436 270.315333278 59.2507460463 319 46.5 c 0
 333 42.8333333333 351 40.6666666667 373 40 c 1
 373 0 l 1
 35 0 l 1
 35 40 l 1
 89.0464960851 41.8015498695 115.561694266 49.2127069944 122 97.5 c 0
 124 112.5 125 132.666666667 125 158 c 2
 125 475 l 1
 17 475 l 1
 17 530 l 1
 125 530 l 1
 125 586 l 2
 125 702.893478341 188.235662687 780.034926818 274.5 812.5 c 0
 305.5 824.166666667 340 830 378 830 c 0
 439.429229785 830 497.148504692 814.271645647 522.5 779 c 0
 530.166666667 768.333333333 534 757 534 745 c 0
EndSplineSet
EndChar

StartChar: g
Encoding: 103 103 19
Width: 610
Flags: W
HStem: -260 54<186.073 397.966> 473 67<470.949 569.215> 488 52<229.383 318.371>
VStem: 22 128<-174.42 -74.293> 66 135<281.609 447.926> 344 136<273.005 453.496> 440 118<-168.299 -54.6376>
LayerCount: 2
Fore
SplineSet
462 446 m 1xca
 475.306873168 423.378315614 480 399.496530425 480 364 c 0xcc
 480 272.571790652 431.725667964 224.358408885 365 196 c 0
 338.333333333 184.666666667 306 177 268 173 c 0
 236 169.666666667 213.833333333 165.333333333 201.5 160 c 0
 189.166666667 154.666666667 183 146.666666667 183 136 c 0
 183 106.267801336 242.368709546 107.23232102 275.5 104 c 0
 289.166666667 102.666666667 302.166666667 101.166666667 314.5 99.5 c 0
 333 97 333 97 351.5 94.5 c 0
 363.833333333 92.8333333333 377 91 391 89 c 0
 485.083566957 75.7318046599 558 15.0643514793 558 -87 c 0
 558 -143.666666667 534.666666667 -186.666666667 488 -216 c 0
 441.333333333 -245.333333333 372.666666667 -260 282 -260 c 0
 198.666666667 -260 134.5 -247.833333333 89.5 -223.5 c 0
 44.5 -199.166666667 22 -164.666666667 22 -120 c 0
 22 -56.5373052605 56.9765111985 -15 117 -15 c 0
 156.691683319 -15 189.387967448 -32.9270205273 209 -56 c 1
 177.523652804 -62.0531436916 150 -87.0371905098 150 -123 c 0xd2
 150 -187.628833357 216.363610322 -206 290 -206 c 0
 390 -206 440 -174.333333333 440 -111 c 0
 440 -59.6579356836 402.258980431 -28.864164337 353 -23 c 2
 178 1 l 2
 104 11 67 44 67 100 c 0
 67 162.279848396 112.874083199 191.545731265 169 203 c 1
 169 207 l 1
 122.909494977 225.035415009 88.5221142257 265.427760196 73.5 314.5 c 0
 68.5 330.833333333 66 347.666666667 66 365 c 0
 66 451.724587087 123.975964021 502.911347048 189.5 526.5 c 0
 214.5 535.5 241.666666667 540 271 540 c 0xaa
 332.165555505 540 389.673365394 519.017675722 425 491 c 1
 457.60321071 510.845432606 483.702115714 529.312940774 523 537.5 c 0
 531 539.166666667 539 540 547 540 c 0
 591.430979111 540 632 519.704268817 632 478 c 0
 632 450.156313995 612.869279891 430 585 430 c 0
 543.904761636 430 543.094932705 473 502 473 c 0
 488 473 474.666666667 464 462 446 c 1xca
201 361 m 0
 201 298.148524092 220.684701023 230 276 230 c 0
 329.198843665 230 344 297.102179925 344 359 c 0
 344 422.548839133 329.64042915 488 275 488 c 0xac
 220.00625127 488 201 423.292790797 201 361 c 0
EndSplineSet
EndChar

StartChar: k
Encoding: 107 107 20
Width: 664
Flags: W
HStem: 0 40<16 83.8695 258.706 311 358 415.985 598.021 669> 490.109 39.8909<347 433.977 540.073 620> 755 37<19 60.0789> 810 20G<124.632 242>
VStem: 105 137<59.266 203 274 742.798>
LayerCount: 2
Fore
SplineSet
434 474 m 0
 434 488.57476145 402.170813857 490.109148234 371.090493992 490.109148234 c 0
 362.801030709 490.109148234 354.564837849 490 347 490 c 1
 347 530 l 1
 620 530 l 1
 620 490 l 1
 594.666666667 490 572.333333333 485.666666667 553 477 c 0
 533.666666667 468.333333333 512.666666667 453.333333333 490 432 c 2
 393 341 l 1
 566 96 l 2
 592.700893092 58.8509313503 612.409201812 40 669 40 c 1
 669 0 l 1
 358 0 l 1
 358 40 l 1
 363.294989587 40 368.978399677 39.9063418157 374.641815993 39.9063418157 c 0
 395.455936012 39.9063418157 416 41.1713835915 416 53 c 0
 416 57 411.5 66.8333333333 402.5 82.5 c 0
 393.5 98.1666666667 382 116.333333333 368 137 c 2
 292 251 l 1
 242 203 l 1
 242 164 l 2
 242 111.158229373 242.636588514 58.2827449948 276.5 45 c 4
 285.43470497 41.4954089822 297 40 311 40 c 1
 311 0 l 1
 16 0 l 1
 16 40 l 1
 67.6874843233 41.845981583 94.3708675464 52.6698627985 101.5 98.5 c 0
 103.833333333 113.5 105 133 105 157 c 2
 105 581 l 2
 105 621.666666667 104.333333333 653.666666667 103 677 c 0
 100.843578793 714.737371114 94.8835830587 744.512323872 66.5 751 c 0
 54.8333333333 753.666666667 39 755 19 755 c 1
 19 792 l 1
 242 830 l 1
 242 274 l 1
 338 365 l 2
 372.666666667 397.666666667 397.333333333 422.166666667 412 438.5 c 0
 426.666666667 454.833333333 434 466.666666667 434 474 c 0
EndSplineSet
EndChar

StartChar: s
Encoding: 115 115 21
Width: 466
Flags: W
HStem: -10 54<157.973 292.254> 0 21G<54 97.5714> 487 54<183.469 289.512> 511 20G<339 380>
VStem: 54 42<119.75 182> 58 115<382.48 466.214> 306 124<63.8464 152.884> 341 39<380 421.031>
LayerCount: 2
Fore
SplineSet
248 -10 m 0xa6
 189.498091467 -10 137.878143589 6.69503504368 107 35 c 1
 85 0 l 1
 54 0 l 1
 54 182 l 1
 96 182 l 1x4a
 107.333333333 134 123.666666667 99 145 77 c 0
 166.333333333 55 194 44 228 44 c 0
 271.374297036 44 306 61.5696423312 306 102 c 0
 306 120.666666667 297.666666667 138.833333333 281 156.5 c 0
 264.333333333 174.166666667 237.333333333 193 200 213 c 0
 149.333333333 240.333333333 113 267.5 91 294.5 c 0
 69 321.5 58 352 58 386 c 0
 58 459.266992873 101.911510762 508.766079125 156 529.5 c 0
 176 537.166666667 197.666666667 541 221 541 c 0xa6
 265.871349693 541 308.359925401 526.227877982 336 507 c 1
 354 531 l 1
 380 531 l 1
 380 380 l 1
 341 380 l 1x15
 325.666666667 418 309.833333333 445.333333333 293.5 462 c 0
 277.166666667 478.666666667 257.333333333 487 234 487 c 0
 198.435552942 487 173 466.697808416 173 432 c 0
 173 413.333333333 181.166666667 395.666666667 197.5 379 c 0
 213.833333333 362.333333333 241 344 279 324 c 0
 324.623882846 298.906864435 365.724395005 273.468083744 395 238.5 c 0
 415.93630073 213.492751906 430 184.926405907 430 143 c 0
 430 64.9721865477 382.521116111 20.7084261856 322.5 1 c 0
 300.166666667 -6.33333333333 275.333333333 -10 248 -10 c 0xa6
EndSplineSet
EndChar

StartChar: t
Encoding: 116 116 22
Width: 382
Flags: W
HStem: -10 64<201.192 335.317> 475 55<237 352> 475 45<25 80.7903>
VStem: 98 139<70.1431 475> 186 51<614.274 651>
LayerCount: 2
Fore
SplineSet
244 -10 m 0xd0
 158.383088998 -10 98 29.6002453155 98 112 c 2
 98 475 l 1
 25 475 l 1
 25 520 l 1xb0
 99.8643271965 541.211559372 157.517283622 586.91388815 186 651 c 1
 237 651 l 1
 237 530 l 1xc8
 352 530 l 1
 352 475 l 1
 237 475 l 1
 237 168 l 2
 237 104.068836465 242.792381607 54 296 54 c 0
 322 54 341.666666667 66 355 90 c 1
 376 61 l 1
 357.333333333 13.6666666667 313.333333333 -10 244 -10 c 0xd0
EndSplineSet
EndChar

StartChar: v
Encoding: 118 118 23
Width: 624
Flags: W
HStem: -10 21G<251.311 358.821> 490.02 39.9803<7 58.8713 234.586 306 403 464.865 578.111 624>
LayerCount: 2
Fore
SplineSet
471 447 m 0
 471 482.866926977 443.901663495 488.923640434 403 490 c 1
 403 530 l 1
 624 530 l 1
 624 490 l 1
 606 490 590.5 485.333333333 577.5 476 c 0
 564.5 466.666666667 551 446 537 414 c 2
 350 -10 l 1
 259 -10 l 1
 101 401 l 2
 89.2043688328 432.097573077 78.8971582947 456.950190114 59.5 474.5 c 0
 46.1072958486 486.617208518 31.4387177993 490 7 490 c 1
 7 530 l 1
 306 530 l 1
 306 490 l 1
 302.479336235 490 298.865944753 490.019693721 295.222512666 490.019693721 c 0
 268.600608251 490.019693721 240.374847177 488.968253327 235 471.5 c 0
 233.666666667 467.166666667 233 462.333333333 233 457 c 0
 233 435.075818416 242.658743305 410.828766258 250 393 c 2
 345 131 l 1
 349 131 l 1
 456 392 l 2
 463.3103089 409.753607328 471 426.51036766 471 447 c 0
EndSplineSet
EndChar

StartChar: w
Encoding: 119 119 24
Width: 891
Flags: W
HStem: -10 21G<231.333 320.606 552.028 644.977> 490 40<8 62.4955 235.494 294 675 730.08 838.649 890>
LayerCount: 2
Fore
SplineSet
738 442 m 0
 738 478.077637157 711.760775014 490 675 490 c 1
 675 530 l 1
 890 530 l 1
 890 490 l 1
 861.330442117 490 850.304692725 484.880865907 836 467 c 0
 828 457 819.333333333 441.666666667 810 421 c 0
 800.666666667 400.333333333 789 372 775 336 c 2
 637 -10 l 1
 558 -10 l 1
 452 345 l 1
 448 345 l 1
 313 -10 l 1
 238 -10 l 1
 101 401 l 2
 83.4935416683 453.519374995 65.2310905561 486.729651968 8 490 c 1
 8 530 l 1
 294 530 l 1
 294 490 l 1
 253.862313523 488.885064265 230 483.261458582 230 447 c 0
 230 427.115320716 235.584934496 411.411222713 241 393 c 2
 304 159 l 1
 308 159 l 1
 448 530 l 1
 530 530 l 1
 635 159 l 1
 640 159 l 1
 720 366 l 2
 730.32236959 391.805923975 738 413.235409686 738 442 c 0
EndSplineSet
EndChar

StartChar: x
Encoding: 120 120 25
Width: 648
Flags: W
HStem: 0 40<9 93.9009 200.96 260 327 378.735 574.199 645> 490 40<17 76.0933 272.245 322 391 440.429 550.159 621>
LayerCount: 2
Fore
SplineSet
199 71 m 0
 199 43.1497920236 226.956342692 40 260 40 c 1
 260 0 l 1
 9 0 l 1
 9 40 l 1
 53.9022887918 40 96.8086730515 54.0690271194 118 79 c 2
 257 242 l 1
 90 454 l 2
 68.1235219997 481.633445895 58.6914851845 490 17 490 c 1
 17 530 l 1
 322 530 l 1
 322 490 l 1
 288 490 271 480.666666667 271 462 c 0
 271 455.333333333 274.666666667 446.666666667 282 436 c 2
 353 336 l 1
 406 404 l 2
 420 422 429.333333333 434.666666667 434 442 c 0
 438.666666667 449.333333333 441 456.666666667 441 464 c 0
 441 487.249150368 418.839311944 490 391 490 c 1
 391 530 l 1
 621 530 l 1
 621 490 l 1
 551.733212458 486.354379603 524.955028278 453.091460889 489 412 c 2
 387 294 l 1
 545 91 l 2
 571.384334637 56.585650474 591.766428521 40 645 40 c 1
 645 0 l 1
 327 0 l 1
 327 40 l 1
 356.065894098 40 379 40.5282790806 379 64 c 0
 379 71.3333333333 376.666666667 79.1666666667 372 87.5 c 0
 367.333333333 95.8333333333 360.333333333 106.666666667 351 120 c 2
 293 200 l 1
 249 147 l 2
 231.457622688 125.330004497 219.010663415 111.217061464 207 92 c 0
 202.048555875 84.0776893998 199 80.0794163013 199 71 c 0
EndSplineSet
EndChar

StartChar: y
Encoding: 121 121 26
Width: 646
Flags: W
HStem: -260 115<77.4875 209.802> 490 40<8 62.3584 244.021 311 413 481.421 599.229 654>
LayerCount: 2
Fore
SplineSet
486 446 m 0
 486 487.487650077 461.548674637 490 413 490 c 1
 413 530 l 1
 654 530 l 1
 654 490 l 1
 621.746189064 490 608.345395095 481.74977356 591.5 462 c 0
 581.833333333 450.666666667 571.166666667 433.833333333 559.5 411.5 c 0
 547.833333333 389.166666667 533.333333333 359.666666667 516 323 c 2
 287 -157 l 2
 265.098364915 -200.803270169 227.778905165 -234.625852667 180 -252 c 0
 165.333333333 -257.333333333 150.666666667 -260 136 -260 c 0
 95.6322919159 -260 63 -239.690729975 63 -201 c 0
 63 -160.72926253 94.4379941762 -148.274000448 137 -145 c 0
 196.333333333 -140.333333333 234.666666667 -121.666666667 252 -89 c 2
 279 -37 l 1
 102 401 l 2
 89.305421363 431.678565039 81.8341945789 455.60751515 63 473.5 c 0
 49.3508624222 486.466680699 33.306357616 488.668086441 8 490 c 1
 8 530 l 1
 311 530 l 1
 311 490 l 1
 270.866749026 490 241 488.114801481 241 455 c 0
 241 441.218577908 245.765792235 426.644071353 250 415 c 2
 352 123 l 1
 356 123 l 1
 442 318 l 2
 459.071543728 358.709065813 474.807072971 386.631828371 484 428 c 0
 485.333333333 434 486 440 486 446 c 0
EndSplineSet
EndChar

StartChar: z
Encoding: 122 122 27
Width: 568
Flags: W
HStem: 0 54<210 438.332> 477 53<130.376 339>
VStem: 55 39<374 435.366> 493 39<114.104 170>
LayerCount: 2
Fore
SplineSet
520 0 m 1
 26 0 l 1
 26 23 l 1
 339 477 l 1
 247 477 l 2
 176.887008429 477 128.626299973 474.355999936 108.5 427 c 0
 102.833333333 413.666666667 98 396 94 374 c 1
 55 374 l 1
 67 530 l 1
 518 530 l 1
 518 507 l 1
 210 54 l 1
 298 54 l 2
 381.952786252 54 443.895805093 57.8046345495 472 110.5 c 0
 480 125.5 487 145.333333333 493 170 c 1
 532 170 l 1
 520 0 l 1
EndSplineSet
EndChar

StartChar: I
Encoding: 73 73 28
Width: 429
Flags: W
HStem: 0 40<36 114.346 314.035 393> 730 40<46 113.501 316.33 383>
VStem: 141 147<64.5353 703.838>
LayerCount: 2
Fore
SplineSet
393 0 m 1
 36 0 l 1
 36 40 l 1
 99.4183388653 41.8652452607 128.797568997 53.1082868564 137 109.5 c 0
 139.666666667 127.833333333 141 152.666666667 141 184 c 2
 141 586 l 2
 141 649.778387058 140.495291855 705.690843402 95.5 721.5 c 0
 83.1666666667 725.833333333 66.6666666667 728.666666667 46 730 c 1
 46 770 l 1
 383 770 l 1
 383 730 l 1
 323.73686628 726.176572018 298.572639676 711.070740313 291.5 655.5 c 0
 289.166666667 637.166666667 288 614 288 586 c 2
 288 184 l 2
 288 180.498220376 287.996460044 177.034410029 287.996460044 173.61188895 c 0
 287.996460044 109.395851822 289.242674044 59.7153801346 338.5 46.5 c 0
 352.166666667 42.8333333333 370.333333333 40.6666666667 393 40 c 1
 393 0 l 1
EndSplineSet
EndChar

StartChar: H
Encoding: 72 72 29
Width: 945
Flags: W
HStem: 0 40<35 116.572 311.603 401 543 633.518 828.584 910> 363 62<287 658> 730 40<46 119.718 310.284 391 553 634.744 827.035 899>
VStem: 140 147<62.6187 363 425 708.59> 658 147<62.672 363 425 708.665>
LayerCount: 2
Fore
SplineSet
805 161 m 2
 805 98.6617568881 807.232795671 57.7724888606 855.5 46 c 0
 869.166666667 42.6666666667 887.333333333 40.6666666667 910 40 c 1
 910 0 l 1
 543 0 l 1
 543 40 l 1
 602.677305993 41.612900162 644.91798214 47.0489017684 654 97 c 0
 656.666666667 111.666666667 658 130.666666667 658 154 c 2
 658 363 l 1
 287 363 l 1
 287 161 l 2
 287 97.1636731491 290.817985464 57.2626698969 341.5 46 c 0
 356.5 42.6666666667 376.333333333 40.6666666667 401 40 c 1
 401 0 l 1
 35 0 l 1
 35 40 l 1
 92.3406888736 41.6864908492 127.177831172 48.4780714452 136 97 c 0
 138.666666667 111.666666667 140 130.666666667 140 154 c 2
 140 616 l 2
 140 671.56714853 137.423598408 713.059124711 94.5 723.5 c 0
 82.1666666667 726.5 66 728.666666667 46 730 c 1
 46 770 l 1
 391 770 l 1
 391 730 l 1
 332.530318972 728.280303499 298.241771802 720.874500415 290.5 670 c 0
 288.166666667 654.666666667 287 634.333333333 287 609 c 2
 287 425 l 1
 658 425 l 1
 658 616 l 2
 658 673.765993733 653.374700575 713.429943776 607.5 723.5 c 0
 593.833333333 726.5 575.666666667 728.666666667 553 730 c 1
 553 770 l 1
 899 770 l 1
 899 730 l 1
 844.102410989 728.170080366 815.874378358 718.460200641 808.5 670 c 0
 806.166666667 654.666666667 805 634.333333333 805 609 c 2
 805 161 l 2
EndSplineSet
EndChar

StartChar: L
Encoding: 76 76 30
Width: 755
Flags: W
HStem: 0 55<332.133 609.774> 0 40<35 116.46> 730 40<46 119.718 310.284 391>
VStem: 140 147<97.0044 708.59> 700 40<157.567 227>
LayerCount: 2
Fore
SplineSet
724 0 m 1x78
 35 0 l 1
 35 40 l 1x78
 91.8337146055 41.7222337759 127.209742861 48.6535857336 136 97 c 0
 138.666666667 111.666666667 140 130.666666667 140 154 c 2
 140 616 l 2
 140 671.56714853 137.423598408 713.059124711 94.5 723.5 c 0
 82.1666666667 726.5 66 728.666666667 46 730 c 1
 46 770 l 1
 391 770 l 1
 391 730 l 1
 332.530318972 728.280303499 298.241771802 720.874500415 290.5 670 c 0
 288.166666667 654.666666667 287 634.333333333 287 609 c 2
 287 190 l 2
 287 108.054014819 310.469590898 71.5833500017 381 60.5 c 0
 404.333333333 56.8333333333 433.333333333 55 468 55 c 0xb8
 574.246817042 55 638.898132492 70.6648982648 673 141 c 0
 683.666666667 163 692.666666667 191.666666667 700 227 c 1
 740 227 l 1
 724 0 l 1x78
EndSplineSet
EndChar

StartChar: E
Encoding: 69 69 31
Width: 764
Flags: W
HStem: 0 55<329.415 593.262> 0 40<35 116.46> 375 51<287 449.998> 717 53<287.586 572.879> 730 40<46 119.718>
VStem: 140 147<94.764 375 426 711.26> 495 37<255 323.799 473.6 548> 642 43<574 647.954> 689 40<161.164 229>
LayerCount: 2
Fore
SplineSet
325 717 m 2x3780
 290.912717483 717 287 713.23322751 287 680 c 2
 287 426 l 1
 329.666666667 426 364 427.333333333 390 430 c 0
 437.176424177 434.838607608 467.678459238 447.475891302 481 483 c 0
 487 499 491.666666667 520.666666667 495 548 c 1
 532 548 l 1
 532 255 l 1
 495 255 l 1
 487.838790403 302.741397312 479.742715362 336.896184454 447 355.5 c 0
 432.333333333 363.833333333 412.5 369.166666667 387.5 371.5 c 0
 362.5 373.833333333 329 375 287 375 c 1
 287 169 l 2
 287 99.9563430435 316.720238604 70.5466268994 377 60.5 c 0
 399 56.8333333333 426 55 458 55 c 0xb780
 563.948215121 55 628.260883831 73.8587255205 662 144.5 c 0
 672.666666667 166.833333333 681.666666667 195 689 229 c 1
 729 229 l 1
 713 0 l 1
 35 0 l 1
 35 40 l 1
 91.8337146055 41.7222337759 127.209742861 48.6535857336 136 97 c 0
 138.666666667 111.666666667 140 130.666666667 140 154 c 2
 140 616 l 2
 140 671.56714853 137.423598408 713.059124711 94.5 723.5 c 0
 82.1666666667 726.5 66 728.666666667 46 730 c 1
 46 770 l 1
 678 770 l 1x6f80
 685 574 l 1
 642 574 l 1
 630.856157153 652.006899931 602.383250157 697.164626684 527.5 710.5 c 0
 503.166666667 714.833333333 473.333333333 717 438 717 c 2
 325 717 l 2x3780
EndSplineSet
EndChar

StartChar: F
Encoding: 70 70 32
Width: 689
Flags: W
HStem: 0 40<35 116.46 317.613 433> 355 53<287 440.934> 518 20G<493.667 532> 714 56<287 558.792> 730 40<46 119.718>
VStem: 140 147<67.9398 355 408 711.26> 495 37<225 296.034 463.602 538> 628 42<559 637.91>
LayerCount: 2
Fore
SplineSet
287 161 m 2xf7
 287 116.102368865 289.252538745 82.2479526251 312.5 63.5 c 0
 338.79625895 42.2933395563 380.771991812 41.0880835039 433 40 c 1
 433 0 l 1
 35 0 l 1
 35 40 l 1
 91.8337146055 41.7222337759 127.209742861 48.6535857336 136 97 c 0
 138.666666667 111.666666667 140 130.666666667 140 154 c 2
 140 616 l 2
 140 671.56714853 137.423598408 713.059124711 94.5 723.5 c 0
 82.1666666667 726.5 66 728.666666667 46 730 c 1
 46 770 l 1
 658 770 l 1xef
 670 559 l 1
 628 559 l 1
 617.129991319 636.90172888 594.356422265 688.943897633 524 706 c 0
 502 711.333333333 475 714 443 714 c 2
 305 714 l 2
 293 714 287 708.333333333 287 697 c 2
 287 408 l 1
 379.178156789 408 455.984848308 409.46212077 481 472 c 0
 487.666666667 488.666666667 492.333333333 510.666666667 495 538 c 1
 532 538 l 1
 532 225 l 1
 495 225 l 1
 487.827153619 275.209924669 478.073891972 311.355664817 444.5 331.5 c 0
 407.119879359 353.928072384 352.875762965 355 287 355 c 1
 287 161 l 2xf7
EndSplineSet
EndChar

StartChar: J
Encoding: 74 74 33
Width: 407
Flags: W
HStem: -260 58<-9.03595 88.9224> 730 40<35 109.718 297.362 372>
VStem: 130 147<-125.131 711.26>
LayerCount: 2
Fore
SplineSet
41 -202 m 0
 112.99992426 -202 130 -107.981686517 130 -23 c 2
 130 616 l 2
 130 671.56714853 127.423598408 713.059124711 84.5 723.5 c 0
 72.1666666667 726.5 55.6666666667 728.666666667 35 730 c 1
 35 770 l 1
 372 770 l 1
 372 730 l 1
 316.664119565 728.214971599 286.469828857 719.602021236 280 670 c 0
 278 654.666666667 277 634.333333333 277 609 c 2
 277 -2 l 2
 277 -170.36088186 190.796765222 -260 22 -260 c 0
 -38.6666666667 -260 -85.5 -249.666666667 -118.5 -229 c 0
 -151.5 -208.333333333 -168 -182 -168 -150 c 0
 -168 -112.380649635 -140.838727706 -90 -104 -90 c 0
 -88.6666666667 -90 -76.5 -94 -67.5 -102 c 0
 -58.5 -110 -47.3333333333 -125 -34 -147 c 256
 -20.6666666667 -169 -8.66666666667 -183.666666667 2 -191 c 0
 12.6666666667 -198.333333333 25.6666666667 -202 41 -202 c 0
EndSplineSet
EndChar

StartChar: K
Encoding: 75 75 34
Width: 822
Flags: W
HStem: 0 40<35 116.46 308.024 382 473 548.566 766.594 843> 730 40<46 118.376 310.284 391 501 568.599 696.516 774>
VStem: 140 147<61.5069 293 387 708.59>
LayerCount: 2
Fore
SplineSet
473 40 m 1
 508.276277747 40.8603970182 550 41.3672682425 550 67 c 0
 550 82.6325994702 541.181146426 92.3970155645 533 103.5 c 0
 528.333333333 109.833333333 522 117.666666667 514 127 c 2
 337 345 l 1
 287 293 l 1
 287 161 l 2
 287 102.367410392 288.463930066 57.9016405227 332.5 46 c 0
 344.833333333 42.6666666667 361.333333333 40.6666666667 382 40 c 1
 382 0 l 1
 35 0 l 1
 35 40 l 1
 91.8337146055 41.7222337759 127.209742861 48.6535857336 136 97 c 0
 138.666666667 111.666666667 140 130.666666667 140 154 c 2
 140 616 l 2
 140 671.963184991 137.079668701 711.491981432 94.5 723 c 0
 82.1666666667 726.333333333 66 728.666666667 46 730 c 1
 46 770 l 1
 391 770 l 1
 391 730 l 1
 332.530318972 728.280303499 298.241771802 720.874500415 290.5 670 c 0
 288.166666667 654.666666667 287 634.333333333 287 609 c 2
 287 387 l 1
 546 665 l 2
 561.333333333 681.666666667 569 695.666666667 569 707 c 0
 569 729.226881407 533.979671091 730 501 730 c 1
 501 770 l 1
 774 770 l 1
 774 731 l 1
 719.338758464 728.515398112 697.212798993 714.118867384 665.5 685.5 c 0
 651.833333333 673.166666667 635 656.666666667 615 636 c 2
 437 450 l 1
 731 92 l 2
 758.147753599 58.3884955441 786.857606717 42.8071196641 843 40 c 1
 843 0 l 1
 473 0 l 1
 473 40 l 1
EndSplineSet
EndChar

StartChar: M
Encoding: 77 77 35
Width: 1145
Flags: W
HStem: -10 21G<497.601 588.127> 0 40<30 117.43 250.474 338 739 825.731 1027.47 1115> 730 40<41 118.061 1028.13 1104>
VStem: 146 78<67.2688 651.966> 854 147<67.2688 652>
LayerCount: 2
Fore
SplineSet
581 187 m 1x78
 812 770 l 1
 1104 770 l 1
 1104 730 l 1
 1038.83510023 730 1011.41271053 711.764274496 1004.5 653.5 c 0
 1002.16666667 633.833333333 1001 609 1001 579 c 2
 1001 191 l 2
 1001 187.695910369 1000.99720111 184.416703824 1000.99720111 181.165828455 c 0
 1000.99720111 113.336455802 1002.2156877 57.8409582882 1055.5 46 c 0
 1070.5 42.6666666667 1090.33333333 40.6666666667 1115 40 c 1
 1115 0 l 1
 739 0 l 1
 739 40 l 1x78
 805.131373052 41.7873344068 841.535267833 51.3049663513 850 109.5 c 0
 852.666666667 127.833333333 854 152.666666667 854 184 c 2
 854 652 l 1
 849 652 l 1
 580 -10 l 1
 506 -10 l 1xb8
 228 652 l 1
 224 652 l 1
 224 191 l 2
 224 187.695910369 223.99720111 184.416703824 223.99720111 181.165828455 c 0
 223.99720111 113.336455802 225.215687703 57.8409582882 278.5 46 c 0
 293.5 42.6666666667 313.333333333 40.6666666667 338 40 c 1
 338 0 l 1
 30 0 l 1
 30 40 l 1
 96.3943664889 41.7944423375 133.496827372 51.0406881821 142 109.5 c 0
 144.666666667 127.833333333 146 152.666666667 146 184 c 2
 146 586 l 2
 146 652.104182275 143.704628023 708.215605749 95.5 723.5 c 0
 81.8333333333 727.833333333 63.6666666667 730 41 730 c 1
 41 770 l 1
 344 770 l 1
 577 187 l 1
 581 187 l 1x78
EndSplineSet
EndChar

StartChar: A
Encoding: 65 65 36
Width: 809
Flags: W
HStem: 0 41<-13 58.1319 177.202 261 460 528.337 756.956 838> 233 60<241 479> 760 20G<357.018 447.185>
LayerCount: 2
Fore
SplineSet
171 86 m 0
 171 40.8375946744 210.972913457 40 261 40 c 1
 261 0 l 1
 -13 0 l 1
 -13 40 l 1
 31.6743967231 45.5842995904 62.6709780958 56.022918239 83 85.5 c 0
 89.6666666667 95.1666666667 96 107 102 121 c 2
 365 780 l 1
 439 780 l 1
 678 196 l 2
 692 162 703.833333333 135.333333333 713.5 116 c 0
 729.938763677 83.1224726452 747.985537201 59.6319431068 782.5 50 c 0
 796.833333333 46 815.333333333 43 838 41 c 1
 838 0 l 1
 460 0 l 1
 460 41 l 1
 492 42.3333333333 515 45.6666666667 529 51 c 0
 543 56.3333333333 550 67 550 83 c 0
 550 92.3333333333 547.666666667 104.333333333 543 119 c 0
 538.333333333 133.666666667 532 151.666666667 524 173 c 2
 501 233 l 1
 218 233 l 1
 186.666666667 162.333333333 171 113.333333333 171 86 c 0
241 293 m 1
 479 293 l 1
 364 596 l 1
 360 596 l 1
 241 293 l 1
EndSplineSet
Substitution2: "Single Substitution lookup 6 subtable" ordfeminine
EndChar

StartChar: O
Encoding: 79 79 37
Width: 943
Flags: W
HStem: -10 65<368.814 574.933> 715 65<372.29 571.149>
VStem: 45 174<256.207 507.857> 725 174<256.203 506.435>
LayerCount: 2
Fore
SplineSet
472 780 m 256
 601.667878431 780 705.608754589 729.63699569 775.5 664 c 0
 843.897810643 599.765534353 899 504.181360486 899 379 c 0
 899 258.348350176 841.77994588 164.929515803 774.5 103.5 c 0
 704.556012292 39.6380981797 600.123338726 -10 472 -10 c 256
 343.727346289 -10 239.386784173 39.7878246713 169 103.5 c 0
 101.078651293 164.980531157 45 257.899241241 45 379 c 0
 45 504.092437641 100.167008272 599.826407768 168.5 664 c 0
 238.44795557 729.690253926 342.251854787 780 472 780 c 256
472 55 m 0
 556.867134115 55 617.311465204 91.5886607873 657 141.5 c 0
 700.73109736 196.495167892 725 277.310962502 725 376 c 0
 725 525.915381278 676.149057942 641.925471029 577 691.5 c 0
 545.666666667 707.166666667 510.666666667 715 472 715 c 0
 384.886431906 715 326.4209702 676.658581028 287 623.5 c 0
 243.001552531 564.168760231 219 479.559791891 219 376 c 0
 219 231.012414178 269.396042143 124.48578606 366.5 77.5 c 0
 397.5 62.5 432.666666667 55 472 55 c 0
EndSplineSet
Substitution2: "Single Substitution lookup 6 subtable" ordmasculine
EndChar

StartChar: Q
Encoding: 81 81 38
Width: 949
Flags: W
HStem: -260 114<652.315 853.835> -138 52<429 479.72> 715 65<367.744 571.702>
VStem: 46 174<247.792 507.412> 730 174<250.837 505.731>
LayerCount: 2
Fore
SplineSet
468 -86 m 0
 588.561303714 -86 661.062617647 -146 781 -146 c 0
 848.650358967 -146 878.905802421 -122.91786021 898 -72 c 1
 935 -72 l 1
 937.177126874 -86.151324679 939 -100.763698555 939 -115 c 0
 939 -188.452096048 884.34281866 -230.44791161 827 -249 c 0
 804.333333333 -256.333333333 780 -260 754 -260 c 0
 674.668422087 -260 612.341041712 -227.405544531 558 -199 c 0
 528.666666667 -183.666666667 500.666666667 -169.666666667 474 -157 c 0
 447.333333333 -144.333333333 421 -138 395 -138 c 0
 345.091020072 -138 323.169983166 -166.220011223 293.5 -186 c 0
 284.5 -192 273.666666667 -195 261 -195 c 0
 241.338949666 -195 224 -185.24202401 224 -167 c 0
 224 -155.666666667 229.166666667 -145.166666667 239.5 -135.5 c 0
 249.833333333 -125.833333333 269 -113.333333333 297 -98 c 2
 423 -27 l 1
 309.117662835 -17.0352954981 216.637965796 35.5554425151 154.5 102 c 0
 94.2991952385 166.373137765 46 259.317832488 46 377 c 0
 46 501.926066109 100.162021404 599.73244133 168 664 c 0
 237.444137063 729.789182481 341.482573693 780 471 780 c 0
 602.271190758 780 707.422368793 729.717622235 778.5 663.5 c 0
 847.371691037 599.337484418 904 502.898073421 904 378 c 0
 904 168.011788505 756.579243567 47.0299032329 597.5 -13 c 0
 543.877318861 -33.2349740148 473.120500034 -54.5863333104 429 -84 c 1
 429 -88 l 1
 438.814180373 -86.5979742325 456.287627523 -86 468 -86 c 0
471 30 m 0
 558.437750425 30 619.79459498 70.6643813164 659.5 124 c 0
 703.827782013 183.544781809 730 271.102741066 730 375 c 256
 730 526.062548411 677.996157953 641.001921024 578 691 c 0
 546 707 510.333333333 715 471 715 c 256
 335.674857135 715 267.749449366 625.898017717 237.5 517 c 0
 225.833333333 475 220 427.666666667 220 375 c 0
 220 222.976110257 267.301094735 105.199434975 366.5 54 c 0
 397.5 38 432.333333333 30 471 30 c 0
EndSplineSet
EndChar

StartChar: C
Encoding: 67 67 39
Width: 823
Flags: W
HStem: -10 66<362.834 582.574> 0 21G<724.456 775> 715 65<366.302 567.771> 750 20G<700.871 756>
VStem: 47 174<232.86 514.511> 696 40<517 575.842> 707 49<747.158 770> 728 47<0 22.5714 204.15 271>
LayerCount: 2
Fore
SplineSet
472 56 m 0xac
 621.121614189 56 697.873258561 144.408523789 731 271 c 1
 775 271 l 1
 775 0 l 1
 728 0 l 1x49
 714 79 l 1
 640.666666667 19.6666666667 551.666666667 -10 447 -10 c 0
 256.678687794 -10 130.460989073 77.0796412562 75.5 214 c 0
 56.5 261.333333333 47 314 47 372 c 0
 47 501.354092455 94.0833684175 600.201869625 161.5 667 c 0
 229.291522376 734.169581804 328.666177289 780 459 780 c 0xa9
 499.666666667 780 537.666666667 774.333333333 573 763 c 0
 608.333333333 751.666666667 646.666666667 733.333333333 688 708 c 1
 707 770 l 1
 756 770 l 1x1a
 736 517 l 1
 696 517 l 1
 671.061728242 626.253381036 594.756917117 715 468 715 c 0
 334.205836375 715 266.191841433 627.181217551 237.5 518.5 c 0
 226.5 476.833333333 221 430 221 378 c 0
 221 189.429326663 292.60240923 56 472 56 c 0xac
EndSplineSet
EndChar

StartChar: G
Encoding: 71 71 40
Width: 876
Flags: W
HStem: -10 67<359.498 562.158> 315 40<537 609.774 794.231 861> 715 65<364.194 565.505> 750 20G<701.871 744>
VStem: 47 173<228.54 511.535> 642 132<132.342 285.739> 694 50<517 582.348> 708 36<747.158 770>
LayerCount: 2
Fore
SplineSet
861 315 m 1xec
 792.108714084 315 774 287.321436301 774 216 c 2
 774 83 l 1
 703.473615447 83 676.38134557 62.4852418194 630 35 c 0
 578.666666667 5 514.666666667 -10 438 -10 c 0
 249.568247196 -10 127.776106812 75.919435265 74.5 212.5 c 0
 56.1666666667 259.5 47 312.333333333 47 371 c 0
 47 499.61413665 93.1291864267 599.886340888 159 667 c 0
 224.697210575 733.936780586 322.125430291 780 450 780 c 0xec
 491.333333333 780 530.666666667 774.333333333 568 763 c 0
 605.333333333 751.666666667 645.666666667 733.333333333 689 708 c 1
 708 770 l 1
 744 770 l 1xd9
 744 517 l 1
 694 517 l 1xda
 669.719868079 631.11662003 593.893129894 715 462 715 c 0
 289.584586454 715 220 564.310706461 220 379 c 0
 220 193.307571523 287.749425523 57 462 57 c 0
 570.749687219 57 642 114.614189885 642 221 c 0
 642 289.463967175 604.974736517 309.037303814 537 315 c 1
 537 355 l 1
 861 355 l 1
 861 315 l 1xec
EndSplineSet
EndChar

StartChar: D
Encoding: 68 68 41
Width: 919
Flags: W
HStem: 0 61<331.481 554.17> 0 40<35 116.424> 709 61<287 538.518> 730 40<51 119.91>
VStem: 140 147<103.794 708.718> 706 167<247.176 501.905>
LayerCount: 2
Fore
SplineSet
35 0 m 1x4c
 35 40 l 1
 92.0121152631 41.7276398565 127.026698112 48.2685023516 136 96.5 c 0
 138.666666667 110.833333333 140 130 140 154 c 2
 140 616 l 2
 140 671.315210107 138.623864109 712.668149229 96.5 723.5 c 0
 84.8333333333 726.5 69.6666666667 728.666666667 51 730 c 1
 51 770 l 1x5c
 431 770 l 2
 566.201144322 770 674.507544174 723.018646759 748 657 c 0
 818.476150016 593.690916087 873 498.445339638 873 372 c 0
 873 252.48823172 822.324591965 162.998288402 755.5 104 c 0
 685.254159281 41.9811496356 581.202721632 0 452 0 c 2xac
 35 0 l 1x4c
434 61 m 0xac
 618.106109248 61 706 179.781336844 706 370 c 0
 706 525.953408147 651.628326796 638.156281237 544.5 686 c 0
 510.166666667 701.333333333 471.666666667 709 429 709 c 2
 304 709 l 2
 292.666666667 709 287 703.333333333 287 692 c 2
 287 175 l 2
 287 89.9795780446 343.542369552 61 434 61 c 0xac
EndSplineSet
EndChar

StartChar: B
Encoding: 66 66 42
Width: 797
Flags: W
HStem: 0 61<325.004 523.109> 0 40<33 115.235> 375 60<286 457.171> 709 61<286 474.555> 730 40<54 119.929>
VStem: 139 147<97.7713 375 435 708.435> 527 162<508.388 659.731> 586 172<120.735 294.501>
LayerCount: 2
Fore
SplineSet
33 0 m 1x65
 33 40 l 1
 90.1059150315 41.6795857362 126.213991825 48.6769550368 135 97 c 0
 137.666666667 111.666666667 139 130.666666667 139 154 c 2
 139 616 l 2
 139 670.019762972 137.917598508 712.477018589 97.5 723.5 c 0
 86.5 726.5 72 728.666666667 54 730 c 1
 54 770 l 1x6d
 375 770 l 2
 475.666666667 770 553.166666667 753.833333333 607.5 721.5 c 0
 661.833333333 689.166666667 689 643 689 583 c 0x36
 689 503.666666667 632 447.666666667 518 415 c 1
 518 411 l 1
 629.474534874 411 706.540990723 363.026020736 741 286 c 0
 752.333333333 260.666666667 758 233 758 203 c 0
 758 125.885386712 716.290850931 80.1209157437 663 50 c 0
 603.666666667 16.6666666667 522 0 418 0 c 2xb5
 33 0 l 1x65
286 175 m 2
 286 86.2204438007 331.763982166 61 425 61 c 0xa5
 532.333333333 61 586 109.333333333 586 206 c 0
 586 346.611704958 480.065681789 375 334 375 c 2
 286 375 l 1
 286 175 l 2
527 571 m 0x36
 527 671.91505357 478.169155664 709 375 709 c 2
 304 709 l 2
 292 709 286 703.333333333 286 692 c 2
 286 435 l 1
 345 435 l 2
 449.406321746 435 527 470.419790542 527 571 c 0x36
EndSplineSet
EndChar

StartChar: V
Encoding: 86 86 43
Width: 805
Flags: W
HStem: -10 21G<359.815 449.982> 729 41<-31 45.9475 263.419 347 536 607.429 749.75 820>
LayerCount: 2
Fore
SplineSet
347 729 m 1
 305.379604308 727.39921555 258 729.785716612 258 689 c 0
 258 659.985914034 267.885827378 637.30826608 278 610 c 2
 438 172 l 1
 568 505 l 2
 587.927732387 556.392572999 602.71433913 591.714463768 616 636 c 0
 622.502941245 657.676470816 626 668.752405919 626 691 c 0
 626 707 620 717.5 608 722.5 c 0
 596 727.5 572 730 536 730 c 1
 536 770 l 1
 820 770 l 1
 820 730 l 1
 764.666666667 730 726.333333333 703 705 649 c 2
 442 -10 l 1
 368 -10 l 1
 129 574 l 2
 115.666666667 605.333333333 103.666666667 631 93 651 c 0
 67.244783426 699.291031076 39.4042497411 729 -31 729 c 1
 -31 770 l 1
 347 770 l 1
 347 729 l 1
EndSplineSet
EndChar

StartChar: N
Encoding: 78 78 44
Width: 940
Flags: W
HStem: -10 21G<655.959 804> 0 40<30 116.731 248.007 327> 730 40<40 115.504 622 701.053 833.642 919>
VStem: 145 78<66.4904 618.892> 726 78<192 703.357>
LayerCount: 2
Fore
SplineSet
670 -10 m 1xb8
 227 621 l 1
 223 621 l 1
 223 191 l 2
 223 184.141821258 222.972548446 177.365829765 222.972548446 170.709161489 c 0
 222.972548446 109.123156118 225.322274223 57.7506648236 273.5 46 c 0
 287.166666667 42.6666666667 305 40.6666666667 327 40 c 1
 327 0 l 1
 30 0 l 1
 30 40 l 1x78
 96.1313730519 41.7873344068 132.535267833 51.3049663513 141 109.5 c 0
 143.666666667 127.833333333 145 152.666666667 145 184 c 2
 145 586 l 2
 145 652.120218812 142.692287653 706.219518549 94.5 721.5 c 0
 80.8333333333 725.833333333 62.6666666667 728.666666667 40 730 c 1
 40 770 l 1
 319 770 l 1
 722 192 l 1
 726 192 l 1
 726 579 l 2
 726 585.333037181 726.021788044 591.603178274 726.021788044 597.779424013 c 0
 726.021788044 659.717194495 723.830597006 712.212049511 675.5 724 c 0
 661.833333333 727.333333333 644 729.333333333 622 730 c 1
 622 770 l 1
 919 770 l 1
 919 730 l 1
 852.57859924 728.204827006 816.385143475 718.696004324 808 660 c 0
 805.333333333 641.333333333 804 616.666666667 804 586 c 2
 804 -10 l 1
 670 -10 l 1xb8
EndSplineSet
EndChar

StartChar: P
Encoding: 80 80 45
Width: 717
Flags: W
HStem: 0 40<35 116.46 315.78 432> 335 60<287 461.965> 714 56<287 470.68> 730 40<46 119.718>
VStem: 140 147<66.5617 335 395 711.26> 539 161<463.026 649.309>
LayerCount: 2
Fore
SplineSet
392 770 m 2xec
 567.216019003 770 700 716.958532699 700 556 c 0
 700 390.246956385 553.633285474 335 372 335 c 2
 287 335 l 1
 287 159 l 2
 287 89.3217061933 297.099921435 52.5571540807 357 44 c 0
 375.666666667 41.3333333333 400.666666667 40 432 40 c 1
 432 0 l 1
 35 0 l 1
 35 40 l 1
 91.8337146055 41.7222337759 127.209742861 48.6535857336 136 97 c 0
 138.666666667 111.666666667 140 130.666666667 140 154 c 2
 140 616 l 2
 140 671.56714853 137.423598408 713.059124711 94.5 723.5 c 0
 82.1666666667 726.5 66 728.666666667 46 730 c 1
 46 770 l 1xdc
 392 770 l 2xec
539 557 m 0
 539 659.924570499 487.082682909 714 382 714 c 2
 305 714 l 2xec
 293 714 287 708.333333333 287 697 c 2
 287 395 l 1
 352 395 l 2
 474.488443683 395 539 438.675108016 539 557 c 0
EndSplineSet
EndChar

StartChar: R
Encoding: 82 82 46
Width: 815
Flags: W
HStem: 0 40<35 118.142 316.671 432 772.265 850> 355 60<287 336.945> 714 56<287 476.18> 730 40<46 120.694>
VStem: 140 147<66.6838 355 415 712.375> 539 156<481.772 653.047>
LayerCount: 2
Fore
SplineSet
695 577 m 0xec
 695 447.740317804 614.420068843 384.790298172 494 363 c 1
 726 97 l 2
 753.016551821 65.4806895421 796.489117897 40 850 40 c 1
 850 0 l 1
 613 0 l 1
 365 304 l 2
 348.333333333 324 333.833333333 337.5 321.5 344.5 c 0
 309.166666667 351.5 297.666666667 355 287 355 c 1
 287 159 l 2
 287 90.2652047749 296.718461813 53.7812955032 355.5 44.5 c 0
 374.5 41.5 400 40 432 40 c 1
 432 0 l 1
 35 0 l 1
 35 40 l 1
 93.3625421402 40 127.361886519 47.9106116689 136 96.5 c 0
 138.666666667 111.5 140 130.666666667 140 154 c 2
 140 616 l 2
 140 671.900653913 138.738645027 712.98249175 95.5 723.5 c 0
 83.1666666667 726.5 66.6666666667 728.666666667 46 730 c 1
 46 770 l 1xdc
 392 770 l 2
 488.666666667 770 563.333333333 753 616 719 c 0
 668.666666667 685 695 637.666666667 695 577 c 0xec
539 572 m 0
 539 659.543039298 481.121958001 714 392 714 c 2
 305 714 l 2xec
 293 714 287 708.333333333 287 697 c 2
 287 415 l 1
 352 415 l 2
 471.827892519 415 539 455.088624725 539 572 c 0
EndSplineSet
EndChar

StartChar: S
Encoding: 83 83 47
Width: 663
Flags: W
HStem: -10 61<219.554 421.548> 0 21G<67.8235 99.6667> 719 61<237.534 411.128>
VStem: 54 39<187.75 255> 72 114<551.887 662.008> 489 129<126.111 237.385> 518 39<550 599.313>
LayerCount: 2
Fore
SplineSet
320 -10 m 0xac
 226.442700834 -10 173.006936491 16.4655558794 113 60 c 1
 93 0 l 1
 69 0 l 1x74
 54 255 l 1
 93 255 l 1
 110.297159139 137.626420126 192.430947656 51 322 51 c 0
 395.008253271 51 451.75806742 77.1713764118 477 124.5 c 0
 485 139.5 489 156.333333333 489 175 c 0xb4
 489 213.440538214 477.243338011 231.451662991 453 250.5 c 0
 439 261.5 419.833333333 272.666666667 395.5 284 c 0
 371.166666667 295.333333333 339.666666667 308.333333333 301 323 c 0
 223 353 165.333333333 387.833333333 128 427.5 c 0
 90.6666666667 467.166666667 72 514 72 568 c 0
 72 673.96937035 137.595626796 736.939169568 218.5 764.5 c 0
 248.833333333 774.833333333 282.333333333 780 319 780 c 0
 398.582709111 780 453.183748692 752.957273679 504 716 c 1
 522 766 l 1
 546 766 l 1
 557 550 l 1
 518 550 l 1xaa
 491.424596462 640.799295423 430.981863355 719 325 719 c 0
 250.90013221 719 186 680.325105496 186 610 c 0
 186 575.850886131 197.401383241 558.051539547 219 541 c 0
 255.357663131 512.296581739 300.503076402 496.277722084 356 476 c 0
 436.397686398 444.989463818 505.659177384 413.340822616 556.5 362.5 c 0
 592.734461365 326.265538635 618 284.648393953 618 219 c 0
 618 142.836136248 580.802456045 89.1664223124 534.5 54 c 0
 483.161388372 15.0086493968 409.475069019 -10 320 -10 c 0xac
EndSplineSet
EndChar

StartChar: T
Encoding: 84 84 48
Width: 827
Flags: W
HStem: 0 40<201 301.305 522.038 620> 718.049 51.9507<111.006 336.696 486.103 708.288>
VStem: 12 39<550 649.895> 338 147<73.9079 711.708> 772 43<550 647.334>
LayerCount: 2
Fore
SplineSet
815 550 m 1
 772 550 l 1
 766.855572869 634.025643143 743.169858762 693.20753531 674 710.5 c 0
 654 715.5 630.666666667 718 604 718 c 0
 595.227482536 718 586.892098498 718.049290473 578.941773908 718.049290473 c 0
 550.266340766 718.049290473 526.60021909 717.408061345 505.5 711.5 c 0
 491.650638607 707.62217881 485 702.178862494 485 687 c 2
 485 163 l 2
 485 97.2250038562 497.022033383 62.9383240602 549 48.5 c 0
 567 43.5 590.666666667 40.6666666667 620 40 c 1
 620 0 l 1
 201 0 l 1
 201 40 l 1
 270.258121759 41.5390693724 322.516331083 51.8612477566 333.5 108 c 0
 336.5 123.333333333 338 141.666666667 338 163 c 2
 338 687 l 2
 338 712.775346621 315.132361899 714.551290593 288.5 716.5 c 0
 274.833333333 717.5 257 718 235 718 c 0
 183.954097184 718 139.673420994 715.404457856 108 694.5 c 0
 68.2649894871 668.274893061 52.1653427177 621.085905782 51 550 c 1
 12 550 l 1
 22 770 l 1
 805 770 l 1
 815 550 l 1
EndSplineSet
EndChar

StartChar: U
Encoding: 85 85 49
Width: 880
Flags: W
HStem: -10 72<366.214 573.419> 730 40<27 101.573 296.66 386 548 636.262 789.131 872>
VStem: 123 147<163.779 705.864> 674.011 82.9831<170.238 692.059>
LayerCount: 2
Fore
SplineSet
270 285 m 2
 270 139.84705187 326.960288382 62 468 62 c 0
 605.333333333 62 674 138.333333333 674 291 c 2
 674 522 l 2
 674 528.43538163 674.010756283 534.802915322 674.010756283 541.094486795 c 0
 674.010756283 594.53409735 673.234740556 642.493387677 658.5 680 c 0
 642.630350427 720.39547164 606.511765589 730 548 730 c 1
 548 770 l 1
 872 770 l 1
 872 730 l 1
 814.975806508 730 784.973143542 722.022116271 771 681.5 c 0
 757.604648972 642.653482018 756.993849549 592.352356623 756.993849549 538.35817331 c 0
 756.993849549 532.94002195 757 527.484683308 757 522 c 2
 757 310 l 2
 757 146.483012812 706.230915073 44.7992922166 580.5 8 c 0
 539.5 -4 490.333333333 -10 433 -10 c 0
 224.888632909 -10 123 69.0118316335 123 273 c 2
 123 547 l 2
 123 590.070451355 122.768520537 623.083315164 119 657 c 0
 115.232406844 690.908338404 107.18965165 716.708925985 79 725 c 0
 67.6666666667 728.333333333 50.3333333333 730 27 730 c 1
 27 770 l 1
 386 770 l 1
 386 730 l 1
 312.065715317 730 282.973386784 721.203062199 274.5 658.5 c 0
 269.938062767 624.741664474 270 590.298289471 270 547 c 2
 270 285 l 2
EndSplineSet
EndChar

StartChar: W
Encoding: 87 87 50
Width: 1227
Flags: W
HStem: -10 21G<334.74 432.5 790.409 893.314> 729 41<-28 53.9437 266.341 350 473 541.546 752.341 826 958 1038.62 1170.19 1242>
LayerCount: 2
Fore
SplineSet
826 729 m 1
 777.324352332 729 744 722.748513029 744 678 c 0
 744 649.102769022 752.652704935 624.128708963 761 597 c 2
 887 194 l 1
 1022 580 l 2
 1038 624.666666667 1046 658 1046 680 c 0
 1046 726.52996279 1009.12802183 730 958 730 c 1
 958 770 l 1
 1242 770 l 1
 1242 730 l 1
 1180.98252742 730 1145.11373661 698.812775682 1127 649 c 2
 886 -10 l 1
 797 -10 l 1
 623 518 l 1
 425 -10 l 1
 342 -10 l 1
 130 574 l 2
 117.333333333 608 105.666666667 635.333333333 95 656 c 0
 69.5145854453 705.3779907 42.8195717703 729 -28 729 c 1
 -28 770 l 1
 350 770 l 1
 350 729 l 1
 300.316704058 729 261 726.830459157 261 688 c 0
 261 664.798078476 267.200404182 651.598742543 273.5 632 c 0
 276.5 622.666666667 280.666666667 611 286 597 c 2
 426 194 l 1
 588 636 l 1
 572.449045822 677.987576281 557.07115606 710.098811631 514 721.5 c 0
 502.666666667 724.5 489 727 473 729 c 1
 473 770 l 1
 826 770 l 1
 826 729 l 1
EndSplineSet
EndChar

StartChar: X
Encoding: 88 88 51
Width: 848
Flags: W
HStem: 0 40<-2 92.845 220.426 305 486 563.124 781.896 859> 730.012 39.9879<10 87.8147 322.221 386 527 605.419 732.97 825>
LayerCount: 2
Fore
SplineSet
486 40 m 1
 490.368553292 40 495.018638487 39.9567718911 499.789106418 39.9567718911 c 0
 529.551659346 39.9567718911 564 41.6393864284 564 66 c 256
 564 78.088763408 559.01518545 84.974690917 553 95 c 0
 540.472870098 115.878549836 527.949780413 133.694051932 511 157 c 2
 404 309 l 1
 335 224 l 2
 299.484527548 180.412829263 258.430592601 141.117418531 229 95.5 c 0
 222.333333333 85.1666666667 219 76 219 68 c 0
 219 40.6976693048 260.33750347 39.9979576969 298.798509126 39.9979576969 c 0
 300.876392632 39.9979576969 302.945880279 40 305 40 c 1
 305 0 l 1
 -2 0 l 1
 -2 40 l 1
 49.7909215561 40 81.8515020612 46.8254648715 108.5 71.5 c 0
 117.5 79.8333333333 127.666666667 90.6666666667 139 104 c 2
 358 371 l 1
 125 673 l 2
 95.018449759 711.864972535 68.5563034079 730 10 730 c 1
 10 770 l 1
 386 770 l 1
 386 730 l 1
 349.289596629 730 318 724.535073454 318 694 c 0
 318 676 328 653.666666667 348 627 c 2
 451 485 l 1
 580 639 l 2
 594.79461042 656.753532504 608 673.571653351 608 699 c 0
 608 728.706683287 570.633551692 730.012120592 536.682621802 730.012120592 c 0
 533.411207322 730.012120592 530.171504901 730 527 730 c 1
 527 770 l 1
 825 770 l 1
 825 730 l 1
 773.428345732 730 744.170717646 726.604861176 722 700 c 2
 499 424 l 1
 726 111 l 2
 754.762636853 71.8828138804 796.466405336 40 859 40 c 1
 859 0 l 1
 486 0 l 1
 486 40 l 1
EndSplineSet
EndChar

StartChar: Y
Encoding: 89 89 52
Width: 760
Flags: W
HStem: 0 40<203 280.667 481.156 559> 730 40<-14 51.2207 249.109 322 530 601.134 719.423 781>
VStem: 308 147<65.4649 276>
LayerCount: 2
Fore
SplineSet
603 700 m 0
 603 729.851952052 570.307896524 730.000014863 531.178060837 730.000014863 c 0
 530 730 l 1
 530 770 l 1
 781 770 l 1
 781 730 l 1
 743.300597502 730 725.105087176 718.213040364 703.5 695.5 c 0
 690.5 681.833333333 675.833333333 662.833333333 659.5 638.5 c 0
 643.166666667 614.166666667 623.666666667 582.333333333 601 543 c 2
 455 293 l 1
 455 191 l 2
 455 120.714590334 454.593418869 58.1016452829 507 45 c 0
 520.333333333 41.6666666667 537.666666667 40 559 40 c 1
 559 0 l 1
 203 0 l 1
 203 40 l 1
 265.824778662 40 294.854741103 53.7466936512 303.5 108.5 c 0
 306.5 127.5 308 152.666666667 308 184 c 2
 308 276 l 1
 101 644 l 2
 74.3139608275 690.255801232 55.3251720683 730 -14 730 c 1
 -14 770 l 1
 322 770 l 1
 322 730 l 1
 283.107113901 730 246 727.478031325 246 698 c 0
 246 691.333333333 248 683.333333333 252 674 c 0
 256 664.666666667 262.333333333 652 271 636 c 2
 414 363 l 1
 418 363 l 1
 544 573 l 2
 566 610.333333333 581.333333333 638.166666667 590 656.5 c 0
 598.666666667 674.833333333 603 689.333333333 603 700 c 0
EndSplineSet
EndChar

StartChar: Z
Encoding: 90 90 53
Width: 797
Flags: W
HStem: 0 56<229 635.054> 718 52<173.942 518>
VStem: 63 39<566 633.528> 714 46<154.729 255>
LayerCount: 2
Fore
SplineSet
265 718 m 2
 158.120944643 718 119.145030375 661.52231209 102 566 c 1
 63 566 l 1
 79 770 l 1
 727 770 l 1
 727 747 l 1
 229 56 l 1
 515 56 l 2
 582.12827166 56 628.386256218 63.7155299077 659.5 97 c 0
 693.780518978 133.672183093 703.720823439 187.614286986 714 255 c 1
 760 255 l 1
 747 0 l 1
 15 0 l 1
 15 23 l 1
 518 718 l 1
 265 718 l 2
EndSplineSet
EndChar

StartChar: dotaccent
Encoding: 729 729 54
Width: 195
Flags: W
HStem: 675 155<43.9511 150.844>
VStem: 20 155<698.952 805.845>
LayerCount: 2
Fore
SplineSet
97 675 m 0
 54.6720136566 675 20 709.673205616 20 752 c 0
 20 795.154994083 54.1427228608 830 97 830 c 0
 140.687372009 830 175 795.686271739 175 752 c 0
 175 709.143986485 140.15137054 675 97 675 c 0
EndSplineSet
EndChar

StartChar: dieresis
Encoding: 168 168 55
Width: 365
Flags: W
HStem: 676 129<36.3036 133.374 232.304 329.374>
VStem: 20 129<692.304 789.375> 216 129<692.304 789.375>
LayerCount: 2
Fore
SplineSet
84 676 m 0
 48.2605233256 676 20 704.261440217 20 740 c 0
 20 776.56769291 47.733099937 805 84 805 c 0
 121.09886234 805 149 777.098037138 149 740 c 0
 149 703.734566872 120.564404348 676 84 676 c 0
280 676 m 0
 244.260523326 676 216 704.261440217 216 740 c 0
 216 776.56769291 243.733099937 805 280 805 c 0
 317.09886234 805 345 777.098037138 345 740 c 0
 345 703.734566872 316.564404348 676 280 676 c 0
EndSplineSet
EndChar

StartChar: dotlessj
Encoding: 567 567 56
Width: 331
Flags: W
HStem: -260 53<-14.0284 80.9129> 468 34<14 56.7368> 520 20G<123.895 246>
VStem: 107 139<-127.405 454.466>
LayerCount: 2
Fore
SplineSet
-99 -109 m 0
 -23.3713106937 -109 -41.1383160487 -207 33 -207 c 0
 57.6666666667 -207 76.1666666667 -197.333333333 88.5 -178 c 0
 100.833333333 -158.666666667 107 -125.333333333 107 -78 c 2
 107 290 l 2
 107 294.380469474 107.002469901 298.722835566 107.002469901 303.023853783 c 0
 107.002469901 351.476034914 106.689023234 394.680899319 99 428 c 0
 90.990570113 464.84337748 65.5345955575 468 14 468 c 1
 14 502 l 1
 246 540 l 1
 246 -2 l 2
 246 -162.545945415 168.249660613 -260 11 -260 c 0
 -40.3333333333 -260 -80.5 -250.5 -109.5 -231.5 c 0
 -138.5 -212.5 -153 -189 -153 -161 c 0
 -153 -129.733812791 -128.894637393 -109 -99 -109 c 0
EndSplineSet
EndChar

StartChar: dotaccent.cap
Encoding: 65539 -1 57
Width: 173
Flags: W
HStem: 830 129<37.8981 137.517>
VStem: 20 136<848.039 940.096>
LayerCount: 2
Fore
SplineSet
86 830 m 0
 51.6980659892 830 20 858.620917572 20 893 c 0
 20 929.016416104 50.6201961569 959 86 959 c 0
 123.807442426 959 156 930.588124126 156 893 c 0
 156 857.104897694 122.670196976 830 86 830 c 0
EndSplineSet
EndChar

StartChar: dieresis.cap
Encoding: 65540 -1 58
Width: 339
Flags: W
HStem: 844 116<12.557 108.917 230.085 326.183>
VStem: 0 122<857.575 946.836> 217 122<857.574 947.003>
LayerCount: 2
Fore
SplineSet
60 844 m 0
 25.5417519938 844 0 868.516341485 0 903 c 0
 0 936.663693615 26.0849071003 960 60 960 c 0
 94.6965281577 960 122 937.163685359 122 903 c 0
 122 868.003016342 95.2493991131 844 60 844 c 0
279 844 m 0
 243.747404253 844 217 868.001489591 217 903 c 0
 217 937.160155302 244.309360269 960 279 960 c 0
 312.072810008 960 339 936.150325181 339 903 c 0
 339 869.036006777 312.610140103 844 279 844 c 0
EndSplineSet
EndChar

StartChar: dotbelow
Encoding: 65541 -1 59
Width: 172
Flags: W
HStem: -242 155<32.9511 139.844>
VStem: 9 155<-218.048 -111.155>
LayerCount: 2
Fore
SplineSet
86 -242 m 0
 43.6720136566 -242 9 -207.326794384 9 -165 c 0
 9 -121.845005917 43.1427228608 -87 86 -87 c 0
 129.687372009 -87 164 -121.313728261 164 -165 c 0
 164 -207.856013515 129.15137054 -242 86 -242 c 0
EndSplineSet
EndChar

StartChar: ndotaccent
Encoding: 7749 7749 60
Width: 727
Flags: W
HStem: 0 40<29 99.5889 272.906 344 401 472.074 644.7 714> 468 34<25 60.5526> 475 65<315.433 448.168> 675 155<328.951 435.844>
VStem: 118 139<56.4499 406.946> 305 155<698.952 805.845> 490 139<56.3727 426.463>
LayerCount: 2
Fore
SplineSet
235 452 m 1xbe
 273.485280137 500.981265629 330.651450907 540 412 540 c 0
 501.879724807 540 546.054402977 516.831273483 586 464 c 0
 614.557068423 425.363966251 629 378.474867718 629 304 c 2
 629 163 l 2
 629 153.783749381 628.886564264 144.721786533 628.886564264 135.965991432 c 0
 628.886564264 91.2423457811 631.846164887 54.5067847325 668 46 c 0
 679.333333333 43.3333333333 694.666666667 41.3333333333 714 40 c 1
 714 0 l 1
 401 0 l 1
 401 40 l 1
 454.25495863 41.7751652877 480.6568174 48.9261304994 487 96.5 c 0
 489 111.5 490 131.333333333 490 156 c 2
 490 292 l 2
 490 372.268931067 482.708785692 442.307569815 429 465.5 c 0
 414.333333333 471.833333333 396 475 374 475 c 0xbe
 324.577517498 475 297.928088113 442.62934233 279 407 c 0
 266.55772263 382.115445261 257 339.589211727 257 301 c 2
 257 163 l 2
 257 153.683562443 256.883111861 144.535975847 256.883111861 135.709352973 c 0
 256.883111861 90.9026280084 259.8952002 54.3668113829 296.5 46 c 0
 308.166666667 43.3333333333 324 41.3333333333 344 40 c 1
 344 0 l 1
 29 0 l 1
 29 40 l 1
 80.5213747466 43.5531982584 108.532666718 48.5728892631 115 96 c 0
 117 110.666666667 118 130.666666667 118 156 c 2
 118 281 l 2
 118 320.333333333 117.333333333 352.166666667 116 376.5 c 0
 113.936382241 414.161024105 114.40048223 428.11918021 103 447.5 c 0
 90.9426287138 467.997531186 59.2191197894 468 25 468 c 1
 25 502 l 1xde
 218 540 l 1
 231 452 l 1
 235 452 l 1xbe
382 675 m 0
 339.672013657 675 305 709.673205616 305 752 c 0
 305 795.154994083 339.142722861 830 382 830 c 0
 425.687372009 830 460 795.686271739 460 752 c 0
 460 709.143986485 425.15137054 675 382 675 c 0
EndSplineSet
EndChar

StartChar: cdotaccent
Encoding: 267 267 61
Width: 564
Flags: W
HStem: -5 66<265.038 429.608> 482 58<251.217 358.208> 675 155<266.951 373.844>
VStem: 39 154<148.454 379.326> 243 155<698.952 805.845>
LayerCount: 2
Fore
SplineSet
342 61 m 0
 407.692562588 61 460.985532794 88.8535257033 502 121 c 1
 528 83 l 1
 481.391509679 31.4853528033 405.361822819 -5 311 -5 c 0
 181.831934439 -5 95.4305291543 59.7532721468 58.5 153.5 c 0
 45.5 186.5 39 223 39 263 c 0
 39 397.165405359 111.15161473 482.69872254 210 520 c 0
 245.333333333 533.333333333 284.333333333 540 327 540 c 0
 411.674897027 540 484.381867148 516.36186602 520 468.5 c 0
 530.666666667 454.166666667 536 438.666666667 536 422 c 0
 536 383.992104753 512.717660053 359 475 359 c 0
 407.764227886 359 392.515498026 438.237084978 355 469.5 c 0
 343.723495034 478.897087471 334.32271312 482 315 482 c 0
 222.452073324 482 193 381.159278833 193 277 c 0
 193 157.747718488 232.39303496 61 342 61 c 0
320 675 m 0
 277.672013657 675 243 709.673205616 243 752 c 0
 243 795.154994083 277.142722861 830 320 830 c 0
 363.687372009 830 398 795.686271739 398 752 c 0
 398 709.143986485 363.15137054 675 320 675 c 0
EndSplineSet
EndChar

StartChar: edotaccent
Encoding: 279 279 62
Width: 585
Flags: W
HStem: -10 65<270.945 427.201> 300 56<201 397.134> 482 58<259.112 375.997> 675 155<270.951 377.844>
VStem: 38 152<149.086 297.234> 247 155<698.952 805.845> 409 140<312 429.804>
LayerCount: 2
Fore
SplineSet
348 55 m 0
 417.360773842 55 470.254357327 90.5359617041 512 128 c 1
 540 93 l 1
 479.333333333 24.3333333333 403.666666667 -10 313 -10 c 0
 181.831070798 -10 96.3880918694 54.9491749199 58 149 c 0
 44.6666666667 181.666666667 38 218 38 258 c 0
 38 393.236275932 111.431307986 479.772523195 209.5 519 c 0
 244.5 533 283 540 325 540 c 0
 464.444568924 540 549 461.579894409 549 323 c 0
 549 301.000268074 544.302979109 299.989656029 522.990936243 299.989656029 c 0
 520.834798517 299.989656029 518.508600172 300 516 300 c 2
 194 300 l 1
 191.333333333 294 190 283 190 267 c 0
 190 151.491703622 239.600952067 55 348 55 c 0
409 382 m 0
 409 437.0124892 374.337570351 482 321 482 c 0
 254.53213395 482 212.098525365 417.041889508 201 356 c 1
 346 356 l 2
 372.666666667 356 389.833333333 357.5 397.5 360.5 c 0
 405.166666667 363.5 409 370.666666667 409 382 c 0
324 675 m 0
 281.672013657 675 247 709.673205616 247 752 c 0
 247 795.154994083 281.142722861 830 324 830 c 0
 367.687372009 830 402 795.686271739 402 752 c 0
 402 709.143986485 367.15137054 675 324 675 c 0
EndSplineSet
EndChar

StartChar: zdotaccent
Encoding: 380 380 63
Width: 568
Flags: W
HStem: 0 54<210 438.332> 477 53<130.376 339> 675 155<273.951 380.844>
VStem: 55 39<374 435.366> 250 155<698.952 805.845> 493 39<114.104 170>
LayerCount: 2
Fore
SplineSet
520 0 m 1
 26 0 l 1
 26 23 l 1
 339 477 l 1
 247 477 l 2
 176.887008429 477 128.626299973 474.355999936 108.5 427 c 0
 102.833333333 413.666666667 98 396 94 374 c 1
 55 374 l 1
 67 530 l 1
 518 530 l 1
 518 507 l 1
 210 54 l 1
 298 54 l 2
 381.952786252 54 443.895805093 57.8046345495 472 110.5 c 0
 480 125.5 487 145.333333333 493 170 c 1
 532 170 l 1
 520 0 l 1
327 675 m 0
 284.672013657 675 250 709.673205616 250 752 c 0
 250 795.154994083 284.142722861 830 327 830 c 0
 370.687372009 830 405 795.686271739 405 752 c 0
 405 709.143986485 370.15137054 675 327 675 c 0
EndSplineSet
EndChar

StartChar: adieresis
Encoding: 228 228 64
Width: 574
Flags: W
HStem: -10 70<420.154 531.086> -9 93<132.796 268.999> 491 49<214.125 319.31> 676 129<126.304 223.374 322.304 419.374>
VStem: 34 141<96.9432 181.641> 59 129<388.645 467.917> 110 129<692.304 789.375> 306 129<692.304 789.375> 344 134<125.98 285 338 464.608>
LayerCount: 2
Fore
SplineSet
175 147 m 0x7880
 175 111.206347613 196.702363271 84 231 84 c 256
 282.64717079 84 319.598887741 112.020977759 335.5 148.5 c 0
 341.166666667 161.5 344 175.333333333 344 190 c 2
 344 285 l 1
 288 259.666666667 245.833333333 236.166666667 217.5 214.5 c 0
 189.166666667 192.833333333 175 170.333333333 175 147 c 0x7880
173 -9 m 0
 92.5929540672 -9 34 40.3308247823 34 119 c 0x7880
 34 148.333333333 47 175.833333333 73 201.5 c 0
 99 227.166666667 142.333333333 252.333333333 203 277 c 1
 344 338 l 1
 344 380 l 2
 344 448.984945385 324.045236159 491 260 491 c 0
 240.666666667 491 226 485.833333333 216 475.5 c 0
 206 465.166666667 196.666666667 448 188 424 c 0
 176.783049502 392.841804171 157.959999886 371 117 371 c 0
 78.2559863009 371 59 396.385374421 59 436 c 0
 59 468 76.5 493.333333333 111.5 512 c 0
 146.5 530.666666667 199.333333333 540 270 540 c 0
 410.555859946 540 478 498.926575477 478 364 c 2
 478 145 l 2
 478 88.3333333333 489.333333333 60 512 60 c 0
 524.666666667 60 536.333333333 64.3333333333 547 73 c 1
 562 44 l 1
 543.877126516 11.637725922 502.043114299 -10 452 -10 c 0xb480
 388.30783012 -10 358 31.8848377723 358 97 c 1
 353 97 l 1
 318.94128273 35.929196619 261.664764226 -9 173 -9 c 0
174 676 m 0
 138.260523326 676 110 704.261440217 110 740 c 0
 110 776.56769291 137.733099937 805 174 805 c 0
 211.09886234 805 239 777.098037138 239 740 c 0x32
 239 703.734566872 210.564404348 676 174 676 c 0
370 676 m 0
 334.260523326 676 306 704.261440217 306 740 c 0
 306 776.56769291 333.733099937 805 370 805 c 0
 407.09886234 805 435 777.098037138 435 740 c 0x31
 435 703.734566872 406.564404348 676 370 676 c 0
EndSplineSet
EndChar

StartChar: udieresis
Encoding: 252 252 65
Width: 709
Flags: W
HStem: -10 65<282.877 405.525> 1 39<618.365 696> 490 40<13 81.26 378 448.046> 676 129<186.304 283.374 382.304 479.374>
VStem: 98 139<109.737 473.959> 170 129<692.304 789.375> 366 129<692.304 789.375> 465 139<129.045 473.915>
LayerCount: 2
Fore
SplineSet
304 -10 m 0xb9
 167.132874853 -10 98 83.4841635335 98 231 c 2
 98 366 l 2
 98 393.333333333 97.3333333333 414.833333333 96 430.5 c 0
 91.7167864243 480.827759514 63.836021547 484.916397845 13 490 c 1
 13 530 l 1
 237 530 l 1
 237 247 l 2
 237 179.666666667 245.333333333 130.833333333 262 100.5 c 0
 278.666666667 70.1666666667 305.333333333 55 342 55 c 0xb9
 381.333333333 55 411.666666667 73 433 109 c 0
 454.333333333 143.666666667 465 194.666666667 465 262 c 2
 465 366 l 2
 465 376.354585856 465.156825483 386.381001048 465.156825483 395.929057521 c 0
 465.156825483 439.521730936 461.887834801 473.143128194 425.5 482.5 c 0
 413.833333333 485.5 398 488 378 490 c 1
 378 530 l 1
 604 530 l 1
 604 227 l 2
 604 186.333333333 604.5 154.5 605.5 131.5 c 0
 607.790563701 78.817034879 607.596317274 46.1358402638 655.5 41.5 c 0
 665.833333333 40.5 679.333333333 40 696 40 c 1
 696 1 l 1x79
 497 -11 l 1
 486 78 l 1
 482 78 l 1
 449.666741969 25.769352412 385.893471416 -10 304 -10 c 0xb9
234 676 m 0
 198.260523326 676 170 704.261440217 170 740 c 0
 170 776.56769291 197.733099937 805 234 805 c 0
 271.09886234 805 299 777.098037138 299 740 c 0x34
 299 703.734566872 270.564404348 676 234 676 c 0
430 676 m 0
 394.260523326 676 366 704.261440217 366 740 c 0
 366 776.56769291 393.733099937 805 430 805 c 0
 467.09886234 805 495 777.098037138 495 740 c 0x32
 495 703.734566872 466.564404348 676 430 676 c 0
EndSplineSet
EndChar

StartChar: odieresis
Encoding: 246 246 66
Width: 660
Flags: W
HStem: -10 61<265.516 394.387> 482 58<264.757 391.256> 676 129<195.304 292.374 391.304 488.374>
VStem: 37 157<160.511 373.561> 179 129<692.304 789.375> 375 129<692.304 789.375> 466 157<161.227 372.391>
LayerCount: 2
Fore
SplineSet
328 540 m 0xf2
 415.419804065 540 486.82189718 506.269424729 535.5 463 c 0
 583.872442203 420.002273597 623 355.454356952 623 269 c 0
 623 180.331744515 584.236036478 113.524280239 535.5 69 c 0
 487.014147368 24.7042827809 415.928437451 -10 328 -10 c 0
 241.175402825 -10 170.689251512 23.8874423513 123 68 c 0
 74.700339241 112.677186202 37 180.456777595 37 269 c 0
 37 355.229469021 75.1363296088 420.922696648 123 464 c 0
 170.971762807 507.174586526 241.552997677 540 328 540 c 0xf2
328 482 m 0
 281.439736624 482 250.128646724 454.405834758 230.5 423 c 0
 206.775267364 385.040427782 194 330.470677489 194 268 c 0
 194 176.78419647 217.614516615 101.22346908 272.5 66.5 c 0
 288.833333333 56.1666666667 307.333333333 51 328 51 c 256
 375.959193201 51 407.683818285 78.3327122853 428 110.5 c 0
 452.407624421 149.145405333 466 204.157405411 466 268 c 0
 466 357.538242505 439.573987234 433.023654818 384.5 466.5 c 0
 367.5 476.833333333 348.666666667 482 328 482 c 0
243 676 m 0
 207.260523326 676 179 704.261440217 179 740 c 0
 179 776.56769291 206.733099937 805 243 805 c 0
 280.09886234 805 308 777.098037138 308 740 c 0xe8
 308 703.734566872 279.564404348 676 243 676 c 0
439 676 m 0
 403.260523326 676 375 704.261440217 375 740 c 0
 375 776.56769291 402.733099937 805 439 805 c 0
 476.09886234 805 504 777.098037138 504 740 c 0xe4
 504 703.734566872 475.564404348 676 439 676 c 0
EndSplineSet
EndChar

StartChar: edieresis
Encoding: 235 235 67
Width: 585
Flags: W
HStem: -10 65<270.945 427.201> 300 56<201 397.134> 482 58<259.112 375.997> 676 129<183.304 280.374 379.304 476.374>
VStem: 38 152<149.086 297.234> 167 129<692.304 789.375> 363 129<692.304 789.375> 409 140<312 429.804>
LayerCount: 2
Fore
SplineSet
348 55 m 0xf9
 417.360773842 55 470.254357327 90.5359617041 512 128 c 1
 540 93 l 1
 479.333333333 24.3333333333 403.666666667 -10 313 -10 c 0
 181.831070798 -10 96.3880918694 54.9491749199 58 149 c 0
 44.6666666667 181.666666667 38 218 38 258 c 0
 38 393.236275932 111.431307986 479.772523195 209.5 519 c 0
 244.5 533 283 540 325 540 c 0
 464.444568924 540 549 461.579894409 549 323 c 0
 549 301.000268074 544.302979109 299.989656029 522.990936243 299.989656029 c 0
 520.834798517 299.989656029 518.508600172 300 516 300 c 2
 194 300 l 1
 191.333333333 294 190 283 190 267 c 0
 190 151.491703622 239.600952067 55 348 55 c 0xf9
409 382 m 0
 409 437.0124892 374.337570351 482 321 482 c 0
 254.53213395 482 212.098525365 417.041889508 201 356 c 1
 346 356 l 2
 372.666666667 356 389.833333333 357.5 397.5 360.5 c 0
 405.166666667 363.5 409 370.666666667 409 382 c 0
231 676 m 0
 195.260523326 676 167 704.261440217 167 740 c 0
 167 776.56769291 194.733099937 805 231 805 c 0
 268.09886234 805 296 777.098037138 296 740 c 0xf4
 296 703.734566872 267.564404348 676 231 676 c 0
427 676 m 0
 391.260523326 676 363 704.261440217 363 740 c 0
 363 776.56769291 390.733099937 805 427 805 c 0
 464.09886234 805 492 777.098037138 492 740 c 0xf2
 492 703.734566872 463.564404348 676 427 676 c 0
EndSplineSet
EndChar

StartChar: wdieresis
Encoding: 7813 7813 68
Width: 891
Flags: W
HStem: -10 21G<231.333 320.606 552.028 644.977> 490 40<8 62.4955 235.494 294 675 730.08 838.649 890> 676 129<335.304 432.374 531.304 628.374>
VStem: 319 129<692.304 789.375> 515 129<692.304 789.375>
LayerCount: 2
Fore
SplineSet
738 442 m 0
 738 478.077637157 711.760775014 490 675 490 c 1
 675 530 l 1
 890 530 l 1
 890 490 l 1
 861.330442117 490 850.304692725 484.880865907 836 467 c 0
 828 457 819.333333333 441.666666667 810 421 c 0
 800.666666667 400.333333333 789 372 775 336 c 2
 637 -10 l 1
 558 -10 l 1
 452 345 l 1
 448 345 l 1
 313 -10 l 1
 238 -10 l 1
 101 401 l 2
 83.4935416683 453.519374995 65.2310905561 486.729651968 8 490 c 1
 8 530 l 1
 294 530 l 1
 294 490 l 1
 253.862313523 488.885064265 230 483.261458582 230 447 c 0
 230 427.115320716 235.584934496 411.411222713 241 393 c 2
 304 159 l 1
 308 159 l 1
 448 530 l 1
 530 530 l 1
 635 159 l 1
 640 159 l 1
 720 366 l 2
 730.32236959 391.805923975 738 413.235409686 738 442 c 0
383 676 m 0
 347.260523326 676 319 704.261440217 319 740 c 0
 319 776.56769291 346.733099937 805 383 805 c 0
 420.09886234 805 448 777.098037138 448 740 c 0
 448 703.734566872 419.564404348 676 383 676 c 0
579 676 m 0
 543.260523326 676 515 704.261440217 515 740 c 0
 515 776.56769291 542.733099937 805 579 805 c 0
 616.09886234 805 644 777.098037138 644 740 c 0
 644 703.734566872 615.564404348 676 579 676 c 0
EndSplineSet
EndChar

StartChar: ydieresis
Encoding: 255 255 69
Width: 646
Flags: W
HStem: -260 115<77.4875 209.802> 490 40<8 62.3584 244.021 311 413 481.421 599.229 654> 676 129<236.304 333.374 432.304 529.374>
VStem: 220 129<692.304 789.375> 416 129<692.304 789.375>
LayerCount: 2
Fore
SplineSet
486 446 m 0
 486 487.487650077 461.548674637 490 413 490 c 1
 413 530 l 1
 654 530 l 1
 654 490 l 1
 621.746189064 490 608.345395095 481.74977356 591.5 462 c 0
 581.833333333 450.666666667 571.166666667 433.833333333 559.5 411.5 c 0
 547.833333333 389.166666667 533.333333333 359.666666667 516 323 c 2
 287 -157 l 2
 265.098364915 -200.803270169 227.778905165 -234.625852667 180 -252 c 0
 165.333333333 -257.333333333 150.666666667 -260 136 -260 c 0
 95.6322919159 -260 63 -239.690729975 63 -201 c 0
 63 -160.72926253 94.4379941762 -148.274000448 137 -145 c 0
 196.333333333 -140.333333333 234.666666667 -121.666666667 252 -89 c 2
 279 -37 l 1
 102 401 l 2
 89.305421363 431.678565039 81.8341945789 455.60751515 63 473.5 c 0
 49.3508624222 486.466680699 33.306357616 488.668086441 8 490 c 1
 8 530 l 1
 311 530 l 1
 311 490 l 1
 270.866749026 490 241 488.114801481 241 455 c 0
 241 441.218577908 245.765792235 426.644071353 250 415 c 2
 352 123 l 1
 356 123 l 1
 442 318 l 2
 459.071543728 358.709065813 474.807072971 386.631828371 484 428 c 0
 485.333333333 434 486 440 486 446 c 0
284 676 m 0
 248.260523326 676 220 704.261440217 220 740 c 0
 220 776.56769291 247.733099937 805 284 805 c 0
 321.09886234 805 349 777.098037138 349 740 c 0
 349 703.734566872 320.564404348 676 284 676 c 0
480 676 m 0
 444.260523326 676 416 704.261440217 416 740 c 0
 416 776.56769291 443.733099937 805 480 805 c 0
 517.09886234 805 545 777.098037138 545 740 c 0
 545 703.734566872 516.564404348 676 480 676 c 0
EndSplineSet
EndChar

StartChar: idieresis
Encoding: 239 239 70
Width: 361
Flags: W
HStem: 0 40<29 96.9126 274.939 344> 468 34<25 67.7368> 520 20G<134.895 257> 676 129<54.3036 151.374 250.304 347.374>
VStem: 38 129<692.304 789.375> 118 139<59.8429 455.503> 234 129<692.304 789.375>
LayerCount: 2
Fore
SplineSet
257 164 m 2xf4
 257 159.542291758 256.9890314 155.12883264 256.9890314 150.774418961 c 0
 256.9890314 99.223932671 258.526326898 55.9489134681 298 45.5 c 0
 309.333333333 42.5 324.666666667 40.6666666667 344 40 c 1
 344 0 l 1
 29 0 l 1
 29 40 l 1
 80.8901882303 41.8532210082 107.33992029 53.4709161525 114.5 99.5 c 0
 116.833333333 114.5 118 133.666666667 118 157 c 2
 118 280 l 2
 118 318.666666667 117.333333333 350.5 116 375.5 c 0
 113.702793634 418.572619357 114.235459181 448.23521866 88.5 460 c 0
 76.8333333333 465.333333333 55.6666666667 468 25 468 c 1
 25 502 l 1
 257 540 l 1
 257 164 l 2xf4
102 676 m 0
 66.2605233256 676 38 704.261440217 38 740 c 0
 38 776.56769291 65.733099937 805 102 805 c 0
 139.09886234 805 167 777.098037138 167 740 c 0xf8
 167 703.734566872 138.564404348 676 102 676 c 0
298 676 m 0
 262.260523326 676 234 704.261440217 234 740 c 0
 234 776.56769291 261.733099937 805 298 805 c 0
 335.09886234 805 363 777.098037138 363 740 c 0xf2
 363 703.734566872 334.564404348 676 298 676 c 0
EndSplineSet
EndChar

StartChar: idotbelow
Encoding: 7883 7883 71
Width: 361
Flags: W
HStem: -242 155<133.951 240.844> 0 40<29 96.9126 274.939 344> 468 34<25 67.7368> 520 20G<134.895 257> 675 155<133.951 240.844>
VStem: 110 155<-218.048 -111.155 698.952 805.845> 118 139<59.8429 455.503>
LayerCount: 2
Fore
SplineSet
257 164 m 2xfa
 257 159.542291758 256.9890314 155.12883264 256.9890314 150.774418961 c 0
 256.9890314 99.223932671 258.526326898 55.9489134681 298 45.5 c 0
 309.333333333 42.5 324.666666667 40.6666666667 344 40 c 1
 344 0 l 1
 29 0 l 1
 29 40 l 1
 80.8901882303 41.8532210082 107.33992029 53.4709161525 114.5 99.5 c 0
 116.833333333 114.5 118 133.666666667 118 157 c 2
 118 280 l 2
 118 318.666666667 117.333333333 350.5 116 375.5 c 0
 113.702793634 418.572619357 114.235459181 448.23521866 88.5 460 c 0
 76.8333333333 465.333333333 55.6666666667 468 25 468 c 1
 25 502 l 1
 257 540 l 1
 257 164 l 2xfa
187 675 m 0
 144.672013657 675 110 709.673205616 110 752 c 0
 110 795.154994083 144.142722861 830 187 830 c 0
 230.687372009 830 265 795.686271739 265 752 c 0xfc
 265 709.143986485 230.15137054 675 187 675 c 0
187 -242 m 0
 144.672013657 -242 110 -207.326794384 110 -165 c 0
 110 -121.845005917 144.142722861 -87 187 -87 c 0
 230.687372009 -87 265 -121.313728261 265 -165 c 0
 265 -207.856013515 230.15137054 -242 187 -242 c 0
EndSplineSet
EndChar

StartChar: udotbelow
Encoding: 7909 7909 72
Width: 709
Flags: W
HStem: -242 155<272.951 379.844> -10 65<282.877 405.525> 1 39<618.365 696> 490 40<13 81.26 378 448.046>
VStem: 98 139<109.737 473.959> 249 155<-218.048 -111.155> 465 139<129.045 473.915>
LayerCount: 2
Fore
SplineSet
304 -10 m 0xde
 167.132874853 -10 98 83.4841635335 98 231 c 2
 98 366 l 2
 98 393.333333333 97.3333333333 414.833333333 96 430.5 c 0
 91.7167864243 480.827759514 63.836021547 484.916397845 13 490 c 1
 13 530 l 1
 237 530 l 1
 237 247 l 2
 237 179.666666667 245.333333333 130.833333333 262 100.5 c 0
 278.666666667 70.1666666667 305.333333333 55 342 55 c 0xde
 381.333333333 55 411.666666667 73 433 109 c 0
 454.333333333 143.666666667 465 194.666666667 465 262 c 2
 465 366 l 2
 465 376.354585856 465.156825483 386.381001048 465.156825483 395.929057521 c 0
 465.156825483 439.521730936 461.887834801 473.143128194 425.5 482.5 c 0
 413.833333333 485.5 398 488 378 490 c 1
 378 530 l 1
 604 530 l 1
 604 227 l 2
 604 186.333333333 604.5 154.5 605.5 131.5 c 0
 607.790563701 78.817034879 607.596317274 46.1358402638 655.5 41.5 c 0
 665.833333333 40.5 679.333333333 40 696 40 c 1
 696 1 l 1xbe
 497 -11 l 1
 486 78 l 1
 482 78 l 1
 449.666741969 25.769352412 385.893471416 -10 304 -10 c 0xde
326 -242 m 0
 283.672013657 -242 249 -207.326794384 249 -165 c 0
 249 -121.845005917 283.142722861 -87 326 -87 c 0
 369.687372009 -87 404 -121.313728261 404 -165 c 0
 404 -207.856013515 369.15137054 -242 326 -242 c 0
EndSplineSet
EndChar

StartChar: hdotbelow
Encoding: 7717 7717 73
Width: 714
Flags: W
HStem: -242 155<304.951 411.844> 0 40<16 88.6317 259.875 331 388 459.685 631.362 701> 474 66<310.15 436.588> 755 37<19 60.0789> 810 20G<124.632 242>
VStem: 105 137<55.9636 399.446 461 743.578> 281 155<-218.048 -111.155> 477 139<55.1984 422.304>
LayerCount: 2
Fore
SplineSet
375 474 m 0
 282.756037831 474 244 394.715451922 244 297 c 2
 244 164 l 2
 244 154.999879417 243.89483762 146.123959968 243.89483762 137.520959534 c 0
 243.89483762 92.1586623883 246.818657377 54.3843068853 283.5 46 c 0
 295.166666667 43.3333333333 311 41.3333333333 331 40 c 1
 331 0 l 1
 16 0 l 1
 16 40 l 1
 68.4393199192 43.4959546613 97.0262950009 47.2366550082 102.5 96.5 c 0
 104.166666667 111.5 105 131.666666667 105 157 c 2
 105 568 l 2
 105 608 104.5 639.5 103.5 662.5 c 0
 101.266077134 713.880225913 101.794543709 748.710909271 55.5 753.5 c 0
 45.8333333333 754.5 33.6666666667 755 19 755 c 1
 19 792 l 1
 242 830 l 1
 242 461 l 1
 246 461 l 1
 283.256188981 510.274314458 327.452878893 540 408 540 c 0
 510.396355561 540 572.482112838 488.300680293 601 407.5 c 0
 611 379.166666667 616 349.666666667 616 319 c 2
 616 164 l 2
 616 153.977462741 615.860935378 144.148816185 615.860935378 134.700341399 c 0
 615.860935378 90.2726348713 618.935623225 54.2504415941 654 46 c 0
 665.333333333 43.3333333333 681 41.3333333333 701 40 c 1
 701 0 l 1
 388 0 l 1
 388 40 l 1
 440.435182091 41.747839403 469.201117019 48.8100531749 474.5 96.5 c 0
 476.166666667 111.5 477 131.666666667 477 157 c 2
 477 280 l 2
 477 350.666666667 469.333333333 400.666666667 454 430 c 0
 438.666666667 459.333333333 412.333333333 474 375 474 c 0
358 -242 m 0
 315.672013657 -242 281 -207.326794384 281 -165 c 0
 281 -121.845005917 315.142722861 -87 358 -87 c 0
 401.687372009 -87 436 -121.313728261 436 -165 c 0
 436 -207.856013515 401.15137054 -242 358 -242 c 0
EndSplineSet
EndChar

StartChar: rdotbelow
Encoding: 7771 7771 74
Width: 498
Flags: W
HStem: -242 155<135.951 242.844> 0 40<30 102.632 275.638 364> 437 103<331.048 432.563> 468 35<26 63.8378>
VStem: 112 155<-218.048 -111.155> 119 139<55.9636 358.979>
LayerCount: 2
Fore
SplineSet
496 473 m 0xe4
 496 430.645961324 469.535946558 397 427 397 c 0
 395.768302048 397 378.340394228 417.609203949 359.5 430.5 c 0
 353.166666667 434.833333333 346.666666667 437 340 437 c 0xe4
 327.333333333 437 315.333333333 428.666666667 304 412 c 0
 272.887051388 366.245663806 258 281.082778888 258 203 c 2
 258 155 l 2
 258 94.7198601303 258.584288211 51.7359519648 308 43.5 c 0
 322 41.1666666667 340.666666667 40 364 40 c 1
 364 0 l 1
 30 0 l 1
 30 40 l 1
 82.4393199192 43.4959546613 111.026295001 47.2366550082 116.5 96.5 c 0
 118.166666667 111.5 119 131.666666667 119 157 c 2
 119 279 l 2
 119 320.333333333 118 353.333333333 116 378 c 0
 112.659488703 419.199639334 103.999860123 451.135184281 74.5 461.5 c 0
 62.1666666667 465.833333333 46 468 26 468 c 1
 26 503 l 1xd4
 226 540 l 1
 242 425 l 1
 246 425 l 1
 275.244858288 482.406573677 331.836287644 540 410 540 c 0
 455.126188813 540 496 515.721550475 496 473 c 0xe4
189 -242 m 0
 146.672013657 -242 112 -207.326794384 112 -165 c 0
 112 -121.845005917 146.142722861 -87 189 -87 c 0
 232.687372009 -87 267 -121.313728261 267 -165 c 0xc8
 267 -207.856013515 232.15137054 -242 189 -242 c 0
EndSplineSet
EndChar

StartChar: odotbelow
Encoding: 7885 7885 75
Width: 660
Flags: W
HStem: -242 155<274.951 381.844> -10 61<265.516 394.387> 482 58<264.757 391.256>
VStem: 37 157<160.511 373.561> 251 155<-218.048 -111.155> 466 157<161.227 372.391>
LayerCount: 2
Fore
SplineSet
328 540 m 0
 415.419804065 540 486.82189718 506.269424729 535.5 463 c 0
 583.872442203 420.002273597 623 355.454356952 623 269 c 0
 623 180.331744515 584.236036478 113.524280239 535.5 69 c 0
 487.014147368 24.7042827809 415.928437451 -10 328 -10 c 0
 241.175402825 -10 170.689251512 23.8874423513 123 68 c 0
 74.700339241 112.677186202 37 180.456777595 37 269 c 0
 37 355.229469021 75.1363296088 420.922696648 123 464 c 0
 170.971762807 507.174586526 241.552997677 540 328 540 c 0
328 482 m 0
 281.439736624 482 250.128646724 454.405834758 230.5 423 c 0
 206.775267364 385.040427782 194 330.470677489 194 268 c 0
 194 176.78419647 217.614516615 101.22346908 272.5 66.5 c 0
 288.833333333 56.1666666667 307.333333333 51 328 51 c 256
 375.959193201 51 407.683818285 78.3327122853 428 110.5 c 0
 452.407624421 149.145405333 466 204.157405411 466 268 c 0
 466 357.538242505 439.573987234 433.023654818 384.5 466.5 c 0
 367.5 476.833333333 348.666666667 482 328 482 c 0
328 -242 m 0
 285.672013657 -242 251 -207.326794384 251 -165 c 0
 251 -121.845005917 285.142722861 -87 328 -87 c 0
 371.687372009 -87 406 -121.313728261 406 -165 c 0
 406 -207.856013515 371.15137054 -242 328 -242 c 0
EndSplineSet
EndChar

StartChar: ddotbelow
Encoding: 7693 7693 76
Width: 694
Flags: W
HStem: -242 155<295.951 402.844> -10 57<251.19 380.985> 1 39<603.825 671> 474 66<249.538 381.819> 756 34<337 381.275> 810 20G<463.5 590>
VStem: 39 152<146.07 377.988> 272 155<-218.048 -111.155> 450 140<119.907 395.261 474 740.39>
LayerCount: 2
Fore
SplineSet
292 540 m 0xdf80
 366.236125949 540 412.70918263 517.809290528 448 474 c 1
 452 474 l 1
 452 559 l 2
 452 598.333333333 451.5 632.166666667 450.5 660.5 c 0
 448.624385526 713.642410093 451.642806479 733.03503288 415.5 746.5 c 0
 398.5 752.833333333 372.333333333 756 337 756 c 1
 337 790 l 1
 590 830 l 1
 590 258 l 2
 590 208 590.5 169.5 591.5 142.5 c 0
 592.5 115.5 594.333333333 95 597 81 c 0
 600.896300879 55.674044284 610.163334703 44.4262961442 636.5 41.5 c 0
 645.5 40.5 657 40 671 40 c 1
 671 1 l 1xbf80
 481 -10 l 1
 481 64 l 1
 477 64 l 1
 431 14.6666666667 371.333333333 -10 298 -10 c 0
 173.323882516 -10 93.1606351023 59.8972927599 58 151.5 c 0
 45.3333333333 184.5 39 221 39 261 c 256
 39 345.88472693 70.054093184 414.105328191 111.5 460.5 c 0
 151.340642584 505.097734236 212.318584361 540 292 540 c 0xdf80
312 474 m 0
 216.562702762 474 191 372.017417139 191 263 c 0
 191 193.666666667 201.333333333 140.333333333 222 103 c 0
 242.666666667 65.6666666667 272.333333333 47 311 47 c 0xdf80
 361.461525399 47 401.452723948 77.1120523424 423 110 c 0
 444.879564621 144.382172976 450 187.495097072 450 248 c 2
 450 287 l 2
 450 366.800923623 423.846843201 431.224905428 372 459 c 0
 353.333333333 469 333.333333333 474 312 474 c 0
349 -242 m 0
 306.672013657 -242 272 -207.326794384 272 -165 c 0
 272 -121.845005917 306.142722861 -87 349 -87 c 0
 392.687372009 -87 427 -121.313728261 427 -165 c 0
 427 -207.856013515 392.15137054 -242 349 -242 c 0
EndSplineSet
EndChar

StartChar: edotbelow
Encoding: 7865 7865 77
Width: 585
Flags: W
HStem: -242 155<258.951 365.844> -10 65<270.945 427.201> 300 56<201 397.134> 482 58<259.112 375.997>
VStem: 38 152<149.086 297.234> 235 155<-218.048 -111.155> 409 140<312 429.804>
LayerCount: 2
Fore
SplineSet
348 55 m 0
 417.360773842 55 470.254357327 90.5359617041 512 128 c 1
 540 93 l 1
 479.333333333 24.3333333333 403.666666667 -10 313 -10 c 0
 181.831070798 -10 96.3880918694 54.9491749199 58 149 c 0
 44.6666666667 181.666666667 38 218 38 258 c 0
 38 393.236275932 111.431307986 479.772523195 209.5 519 c 0
 244.5 533 283 540 325 540 c 0
 464.444568924 540 549 461.579894409 549 323 c 0
 549 301.000268074 544.302979109 299.989656029 522.990936243 299.989656029 c 0
 520.834798517 299.989656029 518.508600172 300 516 300 c 2
 194 300 l 1
 191.333333333 294 190 283 190 267 c 0
 190 151.491703622 239.600952067 55 348 55 c 0
409 382 m 0
 409 437.0124892 374.337570351 482 321 482 c 0
 254.53213395 482 212.098525365 417.041889508 201 356 c 1
 346 356 l 2
 372.666666667 356 389.833333333 357.5 397.5 360.5 c 0
 405.166666667 363.5 409 370.666666667 409 382 c 0
312 -242 m 0
 269.672013657 -242 235 -207.326794384 235 -165 c 0
 235 -121.845005917 269.142722861 -87 312 -87 c 0
 355.687372009 -87 390 -121.313728261 390 -165 c 0
 390 -207.856013515 355.15137054 -242 312 -242 c 0
EndSplineSet
EndChar

StartChar: sdotbelow
Encoding: 7779 7779 78
Width: 466
Flags: W
HStem: -241 155<185.951 292.844> -10 54<157.973 292.254> 0 21G<54 97.5714> 487 54<183.469 289.512> 511 20G<339 380>
VStem: 54 42<119.75 182> 58 115<382.48 466.214> 162 155<-217.048 -110.155> 306 124<63.8464 152.884> 341 39<380 421.031>
LayerCount: 2
Fore
SplineSet
248 -10 m 0xd280
 189.498091467 -10 137.878143589 6.69503504368 107 35 c 1
 85 0 l 1
 54 0 l 1
 54 182 l 1
 96 182 l 1xa480
 107.333333333 134 123.666666667 99 145 77 c 0
 166.333333333 55 194 44 228 44 c 0
 271.374297036 44 306 61.5696423312 306 102 c 0
 306 120.666666667 297.666666667 138.833333333 281 156.5 c 0
 264.333333333 174.166666667 237.333333333 193 200 213 c 0
 149.333333333 240.333333333 113 267.5 91 294.5 c 0
 69 321.5 58 352 58 386 c 0
 58 459.266992873 101.911510762 508.766079125 156 529.5 c 0
 176 537.166666667 197.666666667 541 221 541 c 0xd280
 265.871349693 541 308.359925401 526.227877982 336 507 c 1
 354 531 l 1
 380 531 l 1
 380 380 l 1
 341 380 l 1x8a40
 325.666666667 418 309.833333333 445.333333333 293.5 462 c 0
 277.166666667 478.666666667 257.333333333 487 234 487 c 0
 198.435552942 487 173 466.697808416 173 432 c 0
 173 413.333333333 181.166666667 395.666666667 197.5 379 c 0
 213.833333333 362.333333333 241 344 279 324 c 0
 324.623882846 298.906864435 365.724395005 273.468083744 395 238.5 c 0
 415.93630073 213.492751906 430 184.926405907 430 143 c 0
 430 64.9721865477 382.521116111 20.7084261856 322.5 1 c 0
 300.166666667 -6.33333333333 275.333333333 -10 248 -10 c 0xd280
239 -241 m 0
 196.672013657 -241 162 -206.326794384 162 -164 c 0
 162 -120.845005917 196.142722861 -86 239 -86 c 0
 282.687372009 -86 317 -120.313728261 317 -164 c 0x81
 317 -206.856013515 282.15137054 -241 239 -241 c 0
EndSplineSet
EndChar

StartChar: tdotbelow
Encoding: 7789 7789 79
Width: 382
Flags: W
HStem: -242 155<156.951 263.844> -10 64<201.192 335.317> 475 55<237 352> 475 45<25 80.7903>
VStem: 98 139<70.1431 475> 133 155<-218.048 -111.155> 186 51<614.274 651>
LayerCount: 2
Fore
SplineSet
244 -10 m 0xe8
 158.383088998 -10 98 29.6002453155 98 112 c 2
 98 475 l 1
 25 475 l 1
 25 520 l 1xd8
 99.8643271965 541.211559372 157.517283622 586.91388815 186 651 c 1
 237 651 l 1
 237 530 l 1xe2
 352 530 l 1
 352 475 l 1
 237 475 l 1
 237 168 l 2
 237 104.068836465 242.792381607 54 296 54 c 0
 322 54 341.666666667 66 355 90 c 1
 376 61 l 1
 357.333333333 13.6666666667 313.333333333 -10 244 -10 c 0xe8
210 -242 m 0
 167.672013657 -242 133 -207.326794384 133 -165 c 0
 133 -121.845005917 167.142722861 -87 210 -87 c 0
 253.687372009 -87 288 -121.313728261 288 -165 c 0xc4
 288 -207.856013515 253.15137054 -242 210 -242 c 0
EndSplineSet
EndChar

StartChar: zdotbelow
Encoding: 7827 7827 80
Width: 568
Flags: W
HStem: -242 155<249.951 356.844> 0 54<210 438.332> 477 53<130.376 339>
VStem: 55 39<374 435.366> 226 155<-218.048 -111.155> 493 39<114.104 170>
LayerCount: 2
Fore
SplineSet
520 0 m 1
 26 0 l 1
 26 23 l 1
 339 477 l 1
 247 477 l 2
 176.887008429 477 128.626299973 474.355999936 108.5 427 c 0
 102.833333333 413.666666667 98 396 94 374 c 1
 55 374 l 1
 67 530 l 1
 518 530 l 1
 518 507 l 1
 210 54 l 1
 298 54 l 2
 381.952786252 54 443.895805093 57.8046345495 472 110.5 c 0
 480 125.5 487 145.333333333 493 170 c 1
 532 170 l 1
 520 0 l 1
303 -242 m 0
 260.672013657 -242 226 -207.326794384 226 -165 c 0
 226 -121.845005917 260.142722861 -87 303 -87 c 0
 346.687372009 -87 381 -121.313728261 381 -165 c 0
 381 -207.856013515 346.15137054 -242 303 -242 c 0
EndSplineSet
EndChar

StartChar: Idotbelow
Encoding: 7882 7882 81
Width: 429
Flags: W
HStem: -242 155<159.951 266.844> 0 40<36 114.346 314.035 393> 730 40<46 113.501 316.33 383>
VStem: 136 155<-218.048 -111.155 60.7281 707.173>
LayerCount: 2
Fore
SplineSet
393 0 m 1
 36 0 l 1
 36 40 l 1
 99.4183388653 41.8652452607 128.797568997 53.1082868564 137 109.5 c 0
 139.666666667 127.833333333 141 152.666666667 141 184 c 2
 141 586 l 2
 141 649.778387058 140.495291855 705.690843402 95.5 721.5 c 0
 83.1666666667 725.833333333 66.6666666667 728.666666667 46 730 c 1
 46 770 l 1
 383 770 l 1
 383 730 l 1
 323.73686628 726.176572018 298.572639676 711.070740313 291.5 655.5 c 0
 289.166666667 637.166666667 288 614 288 586 c 2
 288 184 l 2
 288 180.498220376 287.996460044 177.034410029 287.996460044 173.61188895 c 0
 287.996460044 109.395851822 289.242674044 59.7153801346 338.5 46.5 c 0
 352.166666667 42.8333333333 370.333333333 40.6666666667 393 40 c 1
 393 0 l 1
213 -242 m 0
 170.672013657 -242 136 -207.326794384 136 -165 c 0
 136 -121.845005917 170.142722861 -87 213 -87 c 0
 256.687372009 -87 291 -121.313728261 291 -165 c 0
 291 -207.856013515 256.15137054 -242 213 -242 c 0
EndSplineSet
EndChar

StartChar: Hdotbelow
Encoding: 7716 7716 82
Width: 945
Flags: W
HStem: -242 155<443.951 550.844> 0 40<35 116.572 311.603 401 543 633.518 828.584 910> 363 62<287 658> 730 40<46 119.718 310.284 391 553 634.744 827.035 899>
VStem: 140 147<62.6187 363 425 708.59> 420 155<-218.048 -111.155> 658 147<62.672 363 425 708.665>
LayerCount: 2
Fore
SplineSet
805 161 m 2
 805 98.6617568881 807.232795671 57.7724888606 855.5 46 c 0
 869.166666667 42.6666666667 887.333333333 40.6666666667 910 40 c 1
 910 0 l 1
 543 0 l 1
 543 40 l 1
 602.677305993 41.612900162 644.91798214 47.0489017684 654 97 c 0
 656.666666667 111.666666667 658 130.666666667 658 154 c 2
 658 363 l 1
 287 363 l 1
 287 161 l 2
 287 97.1636731491 290.817985464 57.2626698969 341.5 46 c 0
 356.5 42.6666666667 376.333333333 40.6666666667 401 40 c 1
 401 0 l 1
 35 0 l 1
 35 40 l 1
 92.3406888736 41.6864908492 127.177831172 48.4780714452 136 97 c 0
 138.666666667 111.666666667 140 130.666666667 140 154 c 2
 140 616 l 2
 140 671.56714853 137.423598408 713.059124711 94.5 723.5 c 0
 82.1666666667 726.5 66 728.666666667 46 730 c 1
 46 770 l 1
 391 770 l 1
 391 730 l 1
 332.530318972 728.280303499 298.241771802 720.874500415 290.5 670 c 0
 288.166666667 654.666666667 287 634.333333333 287 609 c 2
 287 425 l 1
 658 425 l 1
 658 616 l 2
 658 673.765993733 653.374700575 713.429943776 607.5 723.5 c 0
 593.833333333 726.5 575.666666667 728.666666667 553 730 c 1
 553 770 l 1
 899 770 l 1
 899 730 l 1
 844.102410989 728.170080366 815.874378358 718.460200641 808.5 670 c 0
 806.166666667 654.666666667 805 634.333333333 805 609 c 2
 805 161 l 2
497 -242 m 0
 454.672013657 -242 420 -207.326794384 420 -165 c 0
 420 -121.845005917 454.142722861 -87 497 -87 c 0
 540.687372009 -87 575 -121.313728261 575 -165 c 0
 575 -207.856013515 540.15137054 -242 497 -242 c 0
EndSplineSet
EndChar

StartChar: Edotbelow
Encoding: 7864 7864 83
Width: 764
Flags: W
HStem: -242 155<348.951 455.844> 0 55<329.415 593.262> 0 40<35 116.46> 375 51<287 449.998> 717 53<287.586 572.879> 730 40<46 119.718>
VStem: 140 147<94.764 375 426 711.26> 325 155<-218.048 -111.155> 495 37<255 323.799 473.6 548> 642 43<574 647.954> 689 40<161.164 229>
LayerCount: 2
Fore
SplineSet
325 717 m 2x9be0
 290.912717483 717 287 713.23322751 287 680 c 2
 287 426 l 1
 329.666666667 426 364 427.333333333 390 430 c 0
 437.176424177 434.838607608 467.678459238 447.475891302 481 483 c 0
 487 499 491.666666667 520.666666667 495 548 c 1
 532 548 l 1
 532 255 l 1
 495 255 l 1
 487.838790403 302.741397312 479.742715362 336.896184454 447 355.5 c 0
 432.333333333 363.833333333 412.5 369.166666667 387.5 371.5 c 0
 362.5 373.833333333 329 375 287 375 c 1
 287 169 l 2
 287 99.9563430435 316.720238604 70.5466268994 377 60.5 c 0
 399 56.8333333333 426 55 458 55 c 0xdbe0
 563.948215121 55 628.260883831 73.8587255205 662 144.5 c 0
 672.666666667 166.833333333 681.666666667 195 689 229 c 1
 729 229 l 1
 713 0 l 1
 35 0 l 1
 35 40 l 1
 91.8337146055 41.7222337759 127.209742861 48.6535857336 136 97 c 0
 138.666666667 111.666666667 140 130.666666667 140 154 c 2
 140 616 l 2
 140 671.56714853 137.423598408 713.059124711 94.5 723.5 c 0
 82.1666666667 726.5 66 728.666666667 46 730 c 1
 46 770 l 1
 678 770 l 1xb7e0
 685 574 l 1
 642 574 l 1
 630.856157153 652.006899931 602.383250157 697.164626684 527.5 710.5 c 0
 503.166666667 714.833333333 473.333333333 717 438 717 c 2
 325 717 l 2x9be0
402 -242 m 0
 359.672013657 -242 325 -207.326794384 325 -165 c 0
 325 -121.845005917 359.142722861 -87 402 -87 c 0
 445.687372009 -87 480 -121.313728261 480 -165 c 0
 480 -207.856013515 445.15137054 -242 402 -242 c 0
EndSplineSet
EndChar

StartChar: Odotbelow
Encoding: 7884 7884 84
Width: 944
Flags: W
HStem: -242 155<428.951 535.844> -10 65<368.814 574.933> 715 65<372.29 571.149>
VStem: 45 174<256.207 507.857> 405 155<-218.048 -111.155> 725 174<256.203 506.435>
LayerCount: 2
Fore
SplineSet
472 780 m 256
 601.667878431 780 705.608754589 729.63699569 775.5 664 c 0
 843.897810643 599.765534353 899 504.181360486 899 379 c 0
 899 258.348350176 841.77994588 164.929515803 774.5 103.5 c 0
 704.556012292 39.6380981797 600.123338726 -10 472 -10 c 256
 343.727346289 -10 239.386784173 39.7878246713 169 103.5 c 0
 101.078651293 164.980531157 45 257.899241241 45 379 c 0
 45 504.092437641 100.167008272 599.826407768 168.5 664 c 0
 238.44795557 729.690253926 342.251854787 780 472 780 c 256
472 55 m 0
 556.867134115 55 617.311465204 91.5886607873 657 141.5 c 0
 700.73109736 196.495167892 725 277.310962502 725 376 c 0
 725 525.915381278 676.149057942 641.925471029 577 691.5 c 0
 545.666666667 707.166666667 510.666666667 715 472 715 c 0
 384.886431906 715 326.4209702 676.658581028 287 623.5 c 0
 243.001552531 564.168760231 219 479.559791891 219 376 c 0
 219 231.012414178 269.396042143 124.48578606 366.5 77.5 c 0
 397.5 62.5 432.666666667 55 472 55 c 0
482 -242 m 0
 439.672013657 -242 405 -207.326794384 405 -165 c 0
 405 -121.845005917 439.142722861 -87 482 -87 c 0
 525.687372009 -87 560 -121.313728261 560 -165 c 0
 560 -207.856013515 525.15137054 -242 482 -242 c 0
EndSplineSet
EndChar

StartChar: Ddotbelow
Encoding: 7692 7692 85
Width: 919
Flags: W
HStem: -242 155<394.951 501.844> 0 61<331.481 554.17> 0 40<35 116.424> 709 61<287 538.518> 730 40<51 119.91>
VStem: 140 147<103.794 708.718> 371 155<-218.048 -111.155> 706 167<247.176 501.905>
LayerCount: 2
Fore
SplineSet
35 0 m 1xa7
 35 40 l 1
 92.0121152631 41.7276398565 127.026698112 48.2685023516 136 96.5 c 0
 138.666666667 110.833333333 140 130 140 154 c 2
 140 616 l 2
 140 671.315210107 138.623864109 712.668149229 96.5 723.5 c 0
 84.8333333333 726.5 69.6666666667 728.666666667 51 730 c 1
 51 770 l 1xaf
 431 770 l 2
 566.201144322 770 674.507544174 723.018646759 748 657 c 0
 818.476150016 593.690916087 873 498.445339638 873 372 c 0
 873 252.48823172 822.324591965 162.998288402 755.5 104 c 0
 685.254159281 41.9811496356 581.202721632 0 452 0 c 2xd7
 35 0 l 1xa7
434 61 m 0xd7
 618.106109248 61 706 179.781336844 706 370 c 0
 706 525.953408147 651.628326796 638.156281237 544.5 686 c 0
 510.166666667 701.333333333 471.666666667 709 429 709 c 2
 304 709 l 2
 292.666666667 709 287 703.333333333 287 692 c 2
 287 175 l 2
 287 89.9795780446 343.542369552 61 434 61 c 0xd7
448 -242 m 0
 405.672013657 -242 371 -207.326794384 371 -165 c 0
 371 -121.845005917 405.142722861 -87 448 -87 c 0
 491.687372009 -87 526 -121.313728261 526 -165 c 0
 526 -207.856013515 491.15137054 -242 448 -242 c 0
EndSplineSet
EndChar

StartChar: Rdotbelow
Encoding: 7770 7770 86
Width: 815
Flags: W
HStem: -242 155<383.951 490.844> 0 40<35 118.142 316.671 432 772.265 850> 355 60<287 336.945> 714 56<287 476.18> 730 40<46 120.694>
VStem: 140 147<66.6838 355 415 712.375> 360 155<-218.048 -111.155> 539 156<481.772 653.047>
LayerCount: 2
Fore
SplineSet
695 577 m 0xf7
 695 447.740317804 614.420068843 384.790298172 494 363 c 1
 726 97 l 2
 753.016551821 65.4806895421 796.489117897 40 850 40 c 1
 850 0 l 1
 613 0 l 1
 365 304 l 2
 348.333333333 324 333.833333333 337.5 321.5 344.5 c 0
 309.166666667 351.5 297.666666667 355 287 355 c 1
 287 159 l 2
 287 90.2652047749 296.718461813 53.7812955032 355.5 44.5 c 0
 374.5 41.5 400 40 432 40 c 1
 432 0 l 1
 35 0 l 1
 35 40 l 1
 93.3625421402 40 127.361886519 47.9106116689 136 96.5 c 0
 138.666666667 111.5 140 130.666666667 140 154 c 2
 140 616 l 2
 140 671.900653913 138.738645027 712.98249175 95.5 723.5 c 0
 83.1666666667 726.5 66.6666666667 728.666666667 46 730 c 1
 46 770 l 1xef
 392 770 l 2
 488.666666667 770 563.333333333 753 616 719 c 0
 668.666666667 685 695 637.666666667 695 577 c 0xf7
539 572 m 0
 539 659.543039298 481.121958001 714 392 714 c 2
 305 714 l 2xf7
 293 714 287 708.333333333 287 697 c 2
 287 415 l 1
 352 415 l 2
 471.827892519 415 539 455.088624725 539 572 c 0
437 -242 m 0
 394.672013657 -242 360 -207.326794384 360 -165 c 0
 360 -121.845005917 394.142722861 -87 437 -87 c 0
 480.687372009 -87 515 -121.313728261 515 -165 c 0
 515 -207.856013515 480.15137054 -242 437 -242 c 0
EndSplineSet
EndChar

StartChar: Sdotbelow
Encoding: 7778 7778 87
Width: 663
Flags: W
HStem: -242 155<267.951 374.844> -10 61<219.554 421.548> 0 21G<67.8235 99.6667> 719 61<237.534 411.128>
VStem: 54 39<187.75 255> 72 114<551.887 662.008> 244 155<-218.048 -111.155> 489 129<126.111 237.385> 518 39<550 599.313>
LayerCount: 2
Fore
SplineSet
320 -10 m 0xd7
 226.442700834 -10 173.006936491 16.4655558794 113 60 c 1
 93 0 l 1
 69 0 l 1xbb
 54 255 l 1
 93 255 l 1
 110.297159139 137.626420126 192.430947656 51 322 51 c 0
 395.008253271 51 451.75806742 77.1713764118 477 124.5 c 0
 485 139.5 489 156.333333333 489 175 c 0xdb
 489 213.440538214 477.243338011 231.451662991 453 250.5 c 0
 439 261.5 419.833333333 272.666666667 395.5 284 c 0
 371.166666667 295.333333333 339.666666667 308.333333333 301 323 c 0
 223 353 165.333333333 387.833333333 128 427.5 c 0
 90.6666666667 467.166666667 72 514 72 568 c 0
 72 673.96937035 137.595626796 736.939169568 218.5 764.5 c 0
 248.833333333 774.833333333 282.333333333 780 319 780 c 0
 398.582709111 780 453.183748692 752.957273679 504 716 c 1
 522 766 l 1
 546 766 l 1
 557 550 l 1
 518 550 l 1xd680
 491.424596462 640.799295423 430.981863355 719 325 719 c 0
 250.90013221 719 186 680.325105496 186 610 c 0
 186 575.850886131 197.401383241 558.051539547 219 541 c 0
 255.357663131 512.296581739 300.503076402 496.277722084 356 476 c 0
 436.397686398 444.989463818 505.659177384 413.340822616 556.5 362.5 c 0
 592.734461365 326.265538635 618 284.648393953 618 219 c 0
 618 142.836136248 580.802456045 89.1664223124 534.5 54 c 0
 483.161388372 15.0086493968 409.475069019 -10 320 -10 c 0xd7
321 -242 m 0
 278.672013657 -242 244 -207.326794384 244 -165 c 0
 244 -121.845005917 278.142722861 -87 321 -87 c 0
 364.687372009 -87 399 -121.313728261 399 -165 c 0
 399 -207.856013515 364.15137054 -242 321 -242 c 0
EndSplineSet
EndChar

StartChar: Tdotbelow
Encoding: 7788 7788 88
Width: 827
Flags: W
HStem: -242 155<358.951 465.844> 0 40<201 301.305 522.038 620> 718.049 51.9507<111.006 336.696 486.103 708.288>
VStem: 12 39<550 649.895> 335 155<-218.048 -111.155 69.5349 713.027> 772 43<550 647.334>
LayerCount: 2
Fore
SplineSet
815 550 m 1
 772 550 l 1
 766.855572869 634.025643143 743.169858762 693.20753531 674 710.5 c 0
 654 715.5 630.666666667 718 604 718 c 0
 595.227482536 718 586.892098498 718.049290473 578.941773908 718.049290473 c 0
 550.266340766 718.049290473 526.60021909 717.408061345 505.5 711.5 c 0
 491.650638607 707.62217881 485 702.178862494 485 687 c 2
 485 163 l 2
 485 97.2250038562 497.022033383 62.9383240602 549 48.5 c 0
 567 43.5 590.666666667 40.6666666667 620 40 c 1
 620 0 l 1
 201 0 l 1
 201 40 l 1
 270.258121759 41.5390693724 322.516331083 51.8612477566 333.5 108 c 0
 336.5 123.333333333 338 141.666666667 338 163 c 2
 338 687 l 2
 338 712.775346621 315.132361899 714.551290593 288.5 716.5 c 0
 274.833333333 717.5 257 718 235 718 c 0
 183.954097184 718 139.673420994 715.404457856 108 694.5 c 0
 68.2649894871 668.274893061 52.1653427177 621.085905782 51 550 c 1
 12 550 l 1
 22 770 l 1
 805 770 l 1
 815 550 l 1
412 -242 m 0
 369.672013657 -242 335 -207.326794384 335 -165 c 0
 335 -121.845005917 369.142722861 -87 412 -87 c 0
 455.687372009 -87 490 -121.313728261 490 -165 c 0
 490 -207.856013515 455.15137054 -242 412 -242 c 0
EndSplineSet
EndChar

StartChar: Udotbelow
Encoding: 7908 7908 89
Width: 880
Flags: W
HStem: -242 155<418.951 525.844> -10 72<366.214 573.419> 730 40<27 101.573 296.66 386 548 636.262 789.131 872>
VStem: 123 147<163.779 705.864> 395 155<-218.048 -111.155> 674.011 82.9831<170.238 692.059>
LayerCount: 2
Fore
SplineSet
270 285 m 2
 270 139.84705187 326.960288382 62 468 62 c 0
 605.333333333 62 674 138.333333333 674 291 c 2
 674 522 l 2
 674 528.43538163 674.010756283 534.802915322 674.010756283 541.094486795 c 0
 674.010756283 594.53409735 673.234740556 642.493387677 658.5 680 c 0
 642.630350427 720.39547164 606.511765589 730 548 730 c 1
 548 770 l 1
 872 770 l 1
 872 730 l 1
 814.975806508 730 784.973143542 722.022116271 771 681.5 c 0
 757.604648972 642.653482018 756.993849549 592.352356623 756.993849549 538.35817331 c 0
 756.993849549 532.94002195 757 527.484683308 757 522 c 2
 757 310 l 2
 757 146.483012812 706.230915073 44.7992922166 580.5 8 c 0
 539.5 -4 490.333333333 -10 433 -10 c 0
 224.888632909 -10 123 69.0118316335 123 273 c 2
 123 547 l 2
 123 590.070451355 122.768520537 623.083315164 119 657 c 0
 115.232406844 690.908338404 107.18965165 716.708925985 79 725 c 0
 67.6666666667 728.333333333 50.3333333333 730 27 730 c 1
 27 770 l 1
 386 770 l 1
 386 730 l 1
 312.065715317 730 282.973386784 721.203062199 274.5 658.5 c 0
 269.938062767 624.741664474 270 590.298289471 270 547 c 2
 270 285 l 2
472 -242 m 0
 429.672013657 -242 395 -207.326794384 395 -165 c 0
 395 -121.845005917 429.142722861 -87 472 -87 c 0
 515.687372009 -87 550 -121.313728261 550 -165 c 0
 550 -207.856013515 515.15137054 -242 472 -242 c 0
EndSplineSet
EndChar

StartChar: Zdotbelow
Encoding: 7826 7826 90
Width: 797
Flags: W
HStem: -242 155<341.951 448.844> 0 56<229 635.054> 718 52<173.942 518>
VStem: 63 39<566 633.528> 318 155<-218.048 -111.155> 714 46<154.729 255>
LayerCount: 2
Fore
SplineSet
265 718 m 2
 158.120944643 718 119.145030375 661.52231209 102 566 c 1
 63 566 l 1
 79 770 l 1
 727 770 l 1
 727 747 l 1
 229 56 l 1
 515 56 l 2
 582.12827166 56 628.386256218 63.7155299077 659.5 97 c 0
 693.780518978 133.672183093 703.720823439 187.614286986 714 255 c 1
 760 255 l 1
 747 0 l 1
 15 0 l 1
 15 23 l 1
 518 718 l 1
 265 718 l 2
395 -242 m 0
 352.672013657 -242 318 -207.326794384 318 -165 c 0
 318 -121.845005917 352.142722861 -87 395 -87 c 0
 438.687372009 -87 473 -121.313728261 473 -165 c 0
 473 -207.856013515 438.15137054 -242 395 -242 c 0
EndSplineSet
EndChar

StartChar: period
Encoding: 46 46 91
Width: 260
Flags: W
HStem: -10 151<77.0895 182.166>
VStem: 54 152<12.6817 117.049>
LayerCount: 2
Fore
SplineSet
129 -10 m 0
 87.1515607019 -10 54 22.4508408975 54 64 c 0
 54 106.327986343 86.6209175723 141 129 141 c 0
 172.185751723 141 206 106.860723891 206 64 c 0
 206 21.9382494526 171.63177363 -10 129 -10 c 0
EndSplineSet
EndChar

StartChar: colon
Encoding: 58 58 92
Width: 284
Flags: W
HStem: -10 151<89.0895 194.166> 306 151<89.0895 194.166>
VStem: 66 152<12.6817 117.049 328.682 433.049>
LayerCount: 2
Fore
SplineSet
141 -10 m 0
 99.1515607019 -10 66 22.4508408975 66 64 c 0
 66 106.327986343 98.6209175723 141 141 141 c 0
 184.185751723 141 218 106.860723891 218 64 c 0
 218 21.9382494526 183.63177363 -10 141 -10 c 0
141 306 m 0
 99.1515607019 306 66 338.450840898 66 380 c 0
 66 422.327986343 98.6209175723 457 141 457 c 0
 184.185751723 457 218 422.860723891 218 380 c 0
 218 337.938249453 183.63177363 306 141 306 c 0
EndSplineSet
EndChar

StartChar: semicolon
Encoding: 59 59 93
Width: 295
Flags: W
HStem: 0 141<95.6819 152.645> 306 151<96.0895 201.166>
VStem: 73 152<13.047 115.769 328.682 433.049> 154 71<-33.625 8>
LayerCount: 2
Fore
SplineSet
148 141 m 0xe0
 198.289315885 141 225 100.601024505 225 48 c 0xe0
 225 12 213 -22.5 189 -55.5 c 0
 165 -88.5 128 -121.666666667 78 -155 c 1
 49 -113 l 1
 85 -89 111.5 -67.3333333333 128.5 -48 c 0
 145.5 -28.6666666667 154 -10 154 8 c 1xd0
 147.603272938 4.1619637627 134.357594204 0 124 0 c 0
 93.8639378216 0 73 32.6184671271 73 64 c 0
 73 107.178813664 105.096659993 141 148 141 c 0xe0
148 306 m 0
 106.151560702 306 73 338.450840898 73 380 c 0
 73 422.327986343 105.620917572 457 148 457 c 0
 191.185751723 457 225 422.860723891 225 380 c 0
 225 337.938249453 190.63177363 306 148 306 c 0
EndSplineSet
EndChar

StartChar: acute
Encoding: 180 180 94
Width: 299
Flags: W
HStem: 711 102<214 256.427>
VStem: 16 267
LayerCount: 2
Fore
SplineSet
228 813 m 0
 258.916948609 813 283 797.806362031 283 768 c 0
 283 756.666666667 276.833333333 746.666666667 264.5 738 c 0
 252.166666667 729.333333333 235.333333333 720.333333333 214 711 c 2
 75 651 l 1
 16 651 l 1
 143 770 l 2
 167.033664449 793.032261764 190.441454631 813 228 813 c 0
EndSplineSet
EndChar

StartChar: aacute
Encoding: 225 225 95
Width: 574
Flags: W
HStem: -10 70<420.154 531.086> -9 93<132.796 268.999> 491 49<214.125 319.31> 711 102<350 392.427>
VStem: 34 141<96.9432 181.641> 59 129<388.645 467.917> 344 134<125.98 285 338 464.608>
LayerCount: 2
Fore
SplineSet
175 147 m 0x7a
 175 111.206347613 196.702363271 84 231 84 c 256
 282.64717079 84 319.598887741 112.020977759 335.5 148.5 c 0
 341.166666667 161.5 344 175.333333333 344 190 c 2
 344 285 l 1
 288 259.666666667 245.833333333 236.166666667 217.5 214.5 c 0
 189.166666667 192.833333333 175 170.333333333 175 147 c 0x7a
173 -9 m 0
 92.5929540672 -9 34 40.3308247823 34 119 c 0x7a
 34 148.333333333 47 175.833333333 73 201.5 c 0
 99 227.166666667 142.333333333 252.333333333 203 277 c 1
 344 338 l 1
 344 380 l 2
 344 448.984945385 324.045236159 491 260 491 c 0
 240.666666667 491 226 485.833333333 216 475.5 c 0
 206 465.166666667 196.666666667 448 188 424 c 0
 176.783049502 392.841804171 157.959999886 371 117 371 c 0
 78.2559863009 371 59 396.385374421 59 436 c 0
 59 468 76.5 493.333333333 111.5 512 c 0
 146.5 530.666666667 199.333333333 540 270 540 c 0
 410.555859946 540 478 498.926575477 478 364 c 2
 478 145 l 2
 478 88.3333333333 489.333333333 60 512 60 c 0
 524.666666667 60 536.333333333 64.3333333333 547 73 c 1
 562 44 l 1
 543.877126516 11.637725922 502.043114299 -10 452 -10 c 0xb6
 388.30783012 -10 358 31.8848377723 358 97 c 1
 353 97 l 1
 318.94128273 35.929196619 261.664764226 -9 173 -9 c 0
364 813 m 0
 394.916948609 813 419 797.806362031 419 768 c 0
 419 756.666666667 412.833333333 746.666666667 400.5 738 c 0
 388.166666667 729.333333333 371.333333333 720.333333333 350 711 c 2
 211 651 l 1
 152 651 l 1
 279 770 l 2
 303.033664449 793.032261764 326.441454631 813 364 813 c 0
EndSplineSet
EndChar

StartChar: nacute
Encoding: 324 324 96
Width: 727
Flags: W
HStem: 0 40<29 99.5889 272.906 344 401 472.074 644.7 714> 468 34<25 60.5526> 475 65<315.433 448.168> 711 102<469 511.427>
VStem: 118 139<56.4499 406.946> 490 139<56.3727 426.463>
LayerCount: 2
Fore
SplineSet
235 452 m 1xbc
 273.485280137 500.981265629 330.651450907 540 412 540 c 0
 501.879724807 540 546.054402977 516.831273483 586 464 c 0
 614.557068423 425.363966251 629 378.474867718 629 304 c 2
 629 163 l 2
 629 153.783749381 628.886564264 144.721786533 628.886564264 135.965991432 c 0
 628.886564264 91.2423457811 631.846164887 54.5067847325 668 46 c 0
 679.333333333 43.3333333333 694.666666667 41.3333333333 714 40 c 1
 714 0 l 1
 401 0 l 1
 401 40 l 1
 454.25495863 41.7751652877 480.6568174 48.9261304994 487 96.5 c 0
 489 111.5 490 131.333333333 490 156 c 2
 490 292 l 2
 490 372.268931067 482.708785692 442.307569815 429 465.5 c 0
 414.333333333 471.833333333 396 475 374 475 c 0xbc
 324.577517498 475 297.928088113 442.62934233 279 407 c 0
 266.55772263 382.115445261 257 339.589211727 257 301 c 2
 257 163 l 2
 257 153.683562443 256.883111861 144.535975847 256.883111861 135.709352973 c 0
 256.883111861 90.9026280084 259.8952002 54.3668113829 296.5 46 c 0
 308.166666667 43.3333333333 324 41.3333333333 344 40 c 1
 344 0 l 1
 29 0 l 1
 29 40 l 1
 80.5213747466 43.5531982584 108.532666718 48.5728892631 115 96 c 0
 117 110.666666667 118 130.666666667 118 156 c 2
 118 281 l 2
 118 320.333333333 117.333333333 352.166666667 116 376.5 c 0
 113.936382241 414.161024105 114.40048223 428.11918021 103 447.5 c 0
 90.9426287138 467.997531186 59.2191197894 468 25 468 c 1
 25 502 l 1xdc
 218 540 l 1
 231 452 l 1
 235 452 l 1xbc
483 813 m 0
 513.916948609 813 538 797.806362031 538 768 c 0
 538 756.666666667 531.833333333 746.666666667 519.5 738 c 0
 507.166666667 729.333333333 490.333333333 720.333333333 469 711 c 2
 330 651 l 1
 271 651 l 1
 398 770 l 2
 422.033664449 793.032261764 445.441454631 813 483 813 c 0
EndSplineSet
EndChar

StartChar: uacute
Encoding: 250 250 97
Width: 709
Flags: W
HStem: -10 65<282.877 405.525> 1 39<618.365 696> 490 40<13 81.26 378 448.046> 711 102<417 459.427>
VStem: 98 139<109.737 473.959> 465 139<129.045 473.915>
LayerCount: 2
Fore
SplineSet
304 -10 m 0xbc
 167.132874853 -10 98 83.4841635335 98 231 c 2
 98 366 l 2
 98 393.333333333 97.3333333333 414.833333333 96 430.5 c 0
 91.7167864243 480.827759514 63.836021547 484.916397845 13 490 c 1
 13 530 l 1
 237 530 l 1
 237 247 l 2
 237 179.666666667 245.333333333 130.833333333 262 100.5 c 0
 278.666666667 70.1666666667 305.333333333 55 342 55 c 0xbc
 381.333333333 55 411.666666667 73 433 109 c 0
 454.333333333 143.666666667 465 194.666666667 465 262 c 2
 465 366 l 2
 465 376.354585856 465.156825483 386.381001048 465.156825483 395.929057521 c 0
 465.156825483 439.521730936 461.887834801 473.143128194 425.5 482.5 c 0
 413.833333333 485.5 398 488 378 490 c 1
 378 530 l 1
 604 530 l 1
 604 227 l 2
 604 186.333333333 604.5 154.5 605.5 131.5 c 0
 607.790563701 78.817034879 607.596317274 46.1358402638 655.5 41.5 c 0
 665.833333333 40.5 679.333333333 40 696 40 c 1
 696 1 l 1x7c
 497 -11 l 1
 486 78 l 1
 482 78 l 1
 449.666741969 25.769352412 385.893471416 -10 304 -10 c 0xbc
431 813 m 0
 461.916948609 813 486 797.806362031 486 768 c 0
 486 756.666666667 479.833333333 746.666666667 467.5 738 c 0
 455.166666667 729.333333333 438.333333333 720.333333333 417 711 c 2
 278 651 l 1
 219 651 l 1
 346 770 l 2
 370.033664449 793.032261764 393.441454631 813 431 813 c 0
EndSplineSet
EndChar

StartChar: racute
Encoding: 341 341 98
Width: 498
Flags: W
HStem: 0 40<30 102.632 275.638 364> 437 103<331.048 432.563> 468 35<26 63.8378> 711 102<387 429.427>
VStem: 119 139<55.9636 358.979>
LayerCount: 2
Fore
SplineSet
496 473 m 0xd8
 496 430.645961324 469.535946558 397 427 397 c 0
 395.768302048 397 378.340394228 417.609203949 359.5 430.5 c 0
 353.166666667 434.833333333 346.666666667 437 340 437 c 0xd8
 327.333333333 437 315.333333333 428.666666667 304 412 c 0
 272.887051388 366.245663806 258 281.082778888 258 203 c 2
 258 155 l 2
 258 94.7198601303 258.584288211 51.7359519648 308 43.5 c 0
 322 41.1666666667 340.666666667 40 364 40 c 1
 364 0 l 1
 30 0 l 1
 30 40 l 1
 82.4393199192 43.4959546613 111.026295001 47.2366550082 116.5 96.5 c 0
 118.166666667 111.5 119 131.666666667 119 157 c 2
 119 279 l 2
 119 320.333333333 118 353.333333333 116 378 c 0
 112.659488703 419.199639334 103.999860123 451.135184281 74.5 461.5 c 0
 62.1666666667 465.833333333 46 468 26 468 c 1
 26 503 l 1xb8
 226 540 l 1
 242 425 l 1
 246 425 l 1
 275.244858288 482.406573677 331.836287644 540 410 540 c 0
 455.126188813 540 496 515.721550475 496 473 c 0xd8
401 813 m 0
 431.916948609 813 456 797.806362031 456 768 c 0
 456 756.666666667 449.833333333 746.666666667 437.5 738 c 0
 425.166666667 729.333333333 408.333333333 720.333333333 387 711 c 2
 248 651 l 1
 189 651 l 1
 316 770 l 2
 340.033664449 793.032261764 363.441454631 813 401 813 c 0
EndSplineSet
EndChar

StartChar: oacute
Encoding: 243 243 99
Width: 660
Flags: W
HStem: -10 61<265.516 394.387> 482 58<264.757 391.256> 711 102<427 469.427>
VStem: 37 157<160.511 373.561> 466 157<161.227 372.391>
LayerCount: 2
Fore
SplineSet
328 540 m 0
 415.419804065 540 486.82189718 506.269424729 535.5 463 c 0
 583.872442203 420.002273597 623 355.454356952 623 269 c 0
 623 180.331744515 584.236036478 113.524280239 535.5 69 c 0
 487.014147368 24.7042827809 415.928437451 -10 328 -10 c 0
 241.175402825 -10 170.689251512 23.8874423513 123 68 c 0
 74.700339241 112.677186202 37 180.456777595 37 269 c 0
 37 355.229469021 75.1363296088 420.922696648 123 464 c 0
 170.971762807 507.174586526 241.552997677 540 328 540 c 0
328 482 m 0
 281.439736624 482 250.128646724 454.405834758 230.5 423 c 0
 206.775267364 385.040427782 194 330.470677489 194 268 c 0
 194 176.78419647 217.614516615 101.22346908 272.5 66.5 c 0
 288.833333333 56.1666666667 307.333333333 51 328 51 c 256
 375.959193201 51 407.683818285 78.3327122853 428 110.5 c 0
 452.407624421 149.145405333 466 204.157405411 466 268 c 0
 466 357.538242505 439.573987234 433.023654818 384.5 466.5 c 0
 367.5 476.833333333 348.666666667 482 328 482 c 0
441 813 m 0
 471.916948609 813 496 797.806362031 496 768 c 0
 496 756.666666667 489.833333333 746.666666667 477.5 738 c 0
 465.166666667 729.333333333 448.333333333 720.333333333 427 711 c 2
 288 651 l 1
 229 651 l 1
 356 770 l 2
 380.033664449 793.032261764 403.441454631 813 441 813 c 0
EndSplineSet
EndChar

StartChar: cacute
Encoding: 263 263 100
Width: 564
Flags: W
HStem: -5 66<265.038 429.608> 482 58<251.217 358.208> 711 102<445 487.427>
VStem: 39 154<148.454 379.326>
LayerCount: 2
Fore
SplineSet
342 61 m 0
 407.692562588 61 460.985532794 88.8535257033 502 121 c 1
 528 83 l 1
 481.391509679 31.4853528033 405.361822819 -5 311 -5 c 0
 181.831934439 -5 95.4305291543 59.7532721468 58.5 153.5 c 0
 45.5 186.5 39 223 39 263 c 0
 39 397.165405359 111.15161473 482.69872254 210 520 c 0
 245.333333333 533.333333333 284.333333333 540 327 540 c 0
 411.674897027 540 484.381867148 516.36186602 520 468.5 c 0
 530.666666667 454.166666667 536 438.666666667 536 422 c 0
 536 383.992104753 512.717660053 359 475 359 c 0
 407.764227886 359 392.515498026 438.237084978 355 469.5 c 0
 343.723495034 478.897087471 334.32271312 482 315 482 c 0
 222.452073324 482 193 381.159278833 193 277 c 0
 193 157.747718488 232.39303496 61 342 61 c 0
459 813 m 0
 489.916948609 813 514 797.806362031 514 768 c 0
 514 756.666666667 507.833333333 746.666666667 495.5 738 c 0
 483.166666667 729.333333333 466.333333333 720.333333333 445 711 c 2
 306 651 l 1
 247 651 l 1
 374 770 l 2
 398.033664449 793.032261764 421.441454631 813 459 813 c 0
EndSplineSet
EndChar

StartChar: eacute
Encoding: 233 233 101
Width: 585
Flags: W
HStem: -10 65<270.945 427.201> 300 56<201 397.134> 482 58<259.112 375.997> 711 102<430 472.427>
VStem: 38 152<149.086 297.234> 409 140<312 429.804>
LayerCount: 2
Fore
SplineSet
348 55 m 0
 417.360773842 55 470.254357327 90.5359617041 512 128 c 1
 540 93 l 1
 479.333333333 24.3333333333 403.666666667 -10 313 -10 c 0
 181.831070798 -10 96.3880918694 54.9491749199 58 149 c 0
 44.6666666667 181.666666667 38 218 38 258 c 0
 38 393.236275932 111.431307986 479.772523195 209.5 519 c 0
 244.5 533 283 540 325 540 c 0
 464.444568924 540 549 461.579894409 549 323 c 0
 549 301.000268074 544.302979109 299.989656029 522.990936243 299.989656029 c 0
 520.834798517 299.989656029 518.508600172 300 516 300 c 2
 194 300 l 1
 191.333333333 294 190 283 190 267 c 0
 190 151.491703622 239.600952067 55 348 55 c 0
409 382 m 0
 409 437.0124892 374.337570351 482 321 482 c 0
 254.53213395 482 212.098525365 417.041889508 201 356 c 1
 346 356 l 2
 372.666666667 356 389.833333333 357.5 397.5 360.5 c 0
 405.166666667 363.5 409 370.666666667 409 382 c 0
444 813 m 0
 474.916948609 813 499 797.806362031 499 768 c 0
 499 756.666666667 492.833333333 746.666666667 480.5 738 c 0
 468.166666667 729.333333333 451.333333333 720.333333333 430 711 c 2
 291 651 l 1
 232 651 l 1
 359 770 l 2
 383.033664449 793.032261764 406.441454631 813 444 813 c 0
EndSplineSet
EndChar

StartChar: sacute
Encoding: 347 347 102
Width: 466
Flags: W
HStem: -10 54<157.973 292.254> 0 21G<54 97.5714> 487 54<183.469 289.512> 511 20G<339 380> 711 102<336 378.427>
VStem: 54 42<119.75 182> 58 115<382.48 466.214> 306 124<63.8464 152.884> 341 39<380 421.031>
LayerCount: 2
Fore
SplineSet
248 -10 m 0xab
 189.498091467 -10 137.878143589 6.69503504368 107 35 c 1
 85 0 l 1
 54 0 l 1
 54 182 l 1
 96 182 l 1x4d
 107.333333333 134 123.666666667 99 145 77 c 0
 166.333333333 55 194 44 228 44 c 0
 271.374297036 44 306 61.5696423312 306 102 c 0
 306 120.666666667 297.666666667 138.833333333 281 156.5 c 0
 264.333333333 174.166666667 237.333333333 193 200 213 c 0
 149.333333333 240.333333333 113 267.5 91 294.5 c 0
 69 321.5 58 352 58 386 c 0
 58 459.266992873 101.911510762 508.766079125 156 529.5 c 0
 176 537.166666667 197.666666667 541 221 541 c 0xab
 265.871349693 541 308.359925401 526.227877982 336 507 c 1
 354 531 l 1
 380 531 l 1
 380 380 l 1
 341 380 l 1x1a80
 325.666666667 418 309.833333333 445.333333333 293.5 462 c 0
 277.166666667 478.666666667 257.333333333 487 234 487 c 0
 198.435552942 487 173 466.697808416 173 432 c 0
 173 413.333333333 181.166666667 395.666666667 197.5 379 c 0
 213.833333333 362.333333333 241 344 279 324 c 0
 324.623882846 298.906864435 365.724395005 273.468083744 395 238.5 c 0
 415.93630073 213.492751906 430 184.926405907 430 143 c 0
 430 64.9721865477 382.521116111 20.7084261856 322.5 1 c 0
 300.166666667 -6.33333333333 275.333333333 -10 248 -10 c 0xab
350 813 m 0
 380.916948609 813 405 797.806362031 405 768 c 0
 405 756.666666667 398.833333333 746.666666667 386.5 738 c 0
 374.166666667 729.333333333 357.333333333 720.333333333 336 711 c 2
 197 651 l 1
 138 651 l 1
 265 770 l 2
 289.033664449 793.032261764 312.441454631 813 350 813 c 0
EndSplineSet
EndChar

StartChar: wacute
Encoding: 7811 7811 103
Width: 891
Flags: W
HStem: -10 21G<231.333 320.606 552.028 644.977> 490 40<8 62.4955 235.494 294 675 730.08 838.649 890> 711 102<567 609.427>
LayerCount: 2
Fore
SplineSet
738 442 m 0
 738 478.077637157 711.760775014 490 675 490 c 1
 675 530 l 1
 890 530 l 1
 890 490 l 1
 861.330442117 490 850.304692725 484.880865907 836 467 c 0
 828 457 819.333333333 441.666666667 810 421 c 0
 800.666666667 400.333333333 789 372 775 336 c 2
 637 -10 l 1
 558 -10 l 1
 452 345 l 1
 448 345 l 1
 313 -10 l 1
 238 -10 l 1
 101 401 l 2
 83.4935416683 453.519374995 65.2310905561 486.729651968 8 490 c 1
 8 530 l 1
 294 530 l 1
 294 490 l 1
 253.862313523 488.885064265 230 483.261458582 230 447 c 0
 230 427.115320716 235.584934496 411.411222713 241 393 c 2
 304 159 l 1
 308 159 l 1
 448 530 l 1
 530 530 l 1
 635 159 l 1
 640 159 l 1
 720 366 l 2
 730.32236959 391.805923975 738 413.235409686 738 442 c 0
581 813 m 0
 611.916948609 813 636 797.806362031 636 768 c 0
 636 756.666666667 629.833333333 746.666666667 617.5 738 c 0
 605.166666667 729.333333333 588.333333333 720.333333333 567 711 c 2
 428 651 l 1
 369 651 l 1
 496 770 l 2
 520.033664449 793.032261764 543.441454631 813 581 813 c 0
EndSplineSet
EndChar

StartChar: yacute
Encoding: 253 253 104
Width: 646
Flags: W
HStem: -260 115<77.4875 209.802> 490 40<8 62.3584 244.021 311 413 481.421 599.229 654> 711 102<468 510.427>
LayerCount: 2
Fore
SplineSet
486 446 m 0
 486 487.487650077 461.548674637 490 413 490 c 1
 413 530 l 1
 654 530 l 1
 654 490 l 1
 621.746189064 490 608.345395095 481.74977356 591.5 462 c 0
 581.833333333 450.666666667 571.166666667 433.833333333 559.5 411.5 c 0
 547.833333333 389.166666667 533.333333333 359.666666667 516 323 c 2
 287 -157 l 2
 265.098364915 -200.803270169 227.778905165 -234.625852667 180 -252 c 0
 165.333333333 -257.333333333 150.666666667 -260 136 -260 c 0
 95.6322919159 -260 63 -239.690729975 63 -201 c 0
 63 -160.72926253 94.4379941762 -148.274000448 137 -145 c 0
 196.333333333 -140.333333333 234.666666667 -121.666666667 252 -89 c 2
 279 -37 l 1
 102 401 l 2
 89.305421363 431.678565039 81.8341945789 455.60751515 63 473.5 c 0
 49.3508624222 486.466680699 33.306357616 488.668086441 8 490 c 1
 8 530 l 1
 311 530 l 1
 311 490 l 1
 270.866749026 490 241 488.114801481 241 455 c 0
 241 441.218577908 245.765792235 426.644071353 250 415 c 2
 352 123 l 1
 356 123 l 1
 442 318 l 2
 459.071543728 358.709065813 474.807072971 386.631828371 484 428 c 0
 485.333333333 434 486 440 486 446 c 0
482 813 m 0
 512.916948609 813 537 797.806362031 537 768 c 0
 537 756.666666667 530.833333333 746.666666667 518.5 738 c 0
 506.166666667 729.333333333 489.333333333 720.333333333 468 711 c 2
 329 651 l 1
 270 651 l 1
 397 770 l 2
 421.033664449 793.032261764 444.441454631 813 482 813 c 0
EndSplineSet
EndChar

StartChar: zacute
Encoding: 378 378 105
Width: 568
Flags: W
HStem: 0 54<210 438.332> 477 53<130.376 339> 711 102<414 456.427>
VStem: 55 39<374 435.366> 493 39<114.104 170>
LayerCount: 2
Fore
SplineSet
520 0 m 1
 26 0 l 1
 26 23 l 1
 339 477 l 1
 247 477 l 2
 176.887008429 477 128.626299973 474.355999936 108.5 427 c 0
 102.833333333 413.666666667 98 396 94 374 c 1
 55 374 l 1
 67 530 l 1
 518 530 l 1
 518 507 l 1
 210 54 l 1
 298 54 l 2
 381.952786252 54 443.895805093 57.8046345495 472 110.5 c 0
 480 125.5 487 145.333333333 493 170 c 1
 532 170 l 1
 520 0 l 1
428 813 m 0
 458.916948609 813 483 797.806362031 483 768 c 0
 483 756.666666667 476.833333333 746.666666667 464.5 738 c 0
 452.166666667 729.333333333 435.333333333 720.333333333 414 711 c 2
 275 651 l 1
 216 651 l 1
 343 770 l 2
 367.033664449 793.032261764 390.441454631 813 428 813 c 0
EndSplineSet
EndChar

StartChar: iacute
Encoding: 237 237 106
Width: 361
Flags: W
HStem: 0 40<29 96.9126 274.939 344> 468 34<25 67.7368> 520 20G<134.895 257> 711 102<285 327.427>
VStem: 118 139<59.8429 455.503>
LayerCount: 2
Fore
SplineSet
257 164 m 2
 257 159.542291758 256.9890314 155.12883264 256.9890314 150.774418961 c 0
 256.9890314 99.223932671 258.526326898 55.9489134681 298 45.5 c 0
 309.333333333 42.5 324.666666667 40.6666666667 344 40 c 1
 344 0 l 1
 29 0 l 1
 29 40 l 1
 80.8901882303 41.8532210082 107.33992029 53.4709161525 114.5 99.5 c 0
 116.833333333 114.5 118 133.666666667 118 157 c 2
 118 280 l 2
 118 318.666666667 117.333333333 350.5 116 375.5 c 0
 113.702793634 418.572619357 114.235459181 448.23521866 88.5 460 c 0
 76.8333333333 465.333333333 55.6666666667 468 25 468 c 1
 25 502 l 1
 257 540 l 1
 257 164 l 2
299 813 m 0
 329.916948609 813 354 797.806362031 354 768 c 0
 354 756.666666667 347.833333333 746.666666667 335.5 738 c 0
 323.166666667 729.333333333 306.333333333 720.333333333 285 711 c 2
 146 651 l 1
 87 651 l 1
 214 770 l 2
 238.033664449 793.032261764 261.441454631 813 299 813 c 0
EndSplineSet
EndChar

StartChar: grave
Encoding: 96 96 107
Width: 299
Flags: W
HStem: 711 102<42.5726 85>
VStem: 16 267
LayerCount: 2
Fore
SplineSet
16 768 m 0
 16 797.800303808 40.0944124199 813 71 813 c 0
 108.484946007 813 132.020423479 792.980427499 156 770 c 2
 283 651 l 1
 219 651 l 1
 85 711 l 2
 63.6666666667 720.333333333 46.8333333333 729.333333333 34.5 738 c 0
 22.1666666667 746.666666667 16 756.666666667 16 768 c 0
EndSplineSet
EndChar

StartChar: agrave
Encoding: 224 224 108
Width: 574
Flags: W
HStem: -10 70<420.154 531.086> -9 93<132.796 268.999> 491 49<214.125 319.31> 711 102<151.573 194>
VStem: 34 141<96.9432 181.641> 59 129<388.645 467.917> 344 134<125.98 285 338 464.608>
LayerCount: 2
Fore
SplineSet
175 147 m 0x7a
 175 111.206347613 196.702363271 84 231 84 c 256
 282.64717079 84 319.598887741 112.020977759 335.5 148.5 c 0
 341.166666667 161.5 344 175.333333333 344 190 c 2
 344 285 l 1
 288 259.666666667 245.833333333 236.166666667 217.5 214.5 c 0
 189.166666667 192.833333333 175 170.333333333 175 147 c 0x7a
173 -9 m 0
 92.5929540672 -9 34 40.3308247823 34 119 c 0x7a
 34 148.333333333 47 175.833333333 73 201.5 c 0
 99 227.166666667 142.333333333 252.333333333 203 277 c 1
 344 338 l 1
 344 380 l 2
 344 448.984945385 324.045236159 491 260 491 c 0
 240.666666667 491 226 485.833333333 216 475.5 c 0
 206 465.166666667 196.666666667 448 188 424 c 0
 176.783049502 392.841804171 157.959999886 371 117 371 c 0
 78.2559863009 371 59 396.385374421 59 436 c 0
 59 468 76.5 493.333333333 111.5 512 c 0
 146.5 530.666666667 199.333333333 540 270 540 c 0
 410.555859946 540 478 498.926575477 478 364 c 2
 478 145 l 2
 478 88.3333333333 489.333333333 60 512 60 c 0
 524.666666667 60 536.333333333 64.3333333333 547 73 c 1
 562 44 l 1
 543.877126516 11.637725922 502.043114299 -10 452 -10 c 0xb6
 388.30783012 -10 358 31.8848377723 358 97 c 1
 353 97 l 1
 318.94128273 35.929196619 261.664764226 -9 173 -9 c 0
125 768 m 0
 125 797.800303808 149.09441242 813 180 813 c 0
 217.484946007 813 241.020423479 792.980427499 265 770 c 2
 392 651 l 1
 328 651 l 1
 194 711 l 2
 172.666666667 720.333333333 155.833333333 729.333333333 143.5 738 c 0
 131.166666667 746.666666667 125 756.666666667 125 768 c 0
EndSplineSet
EndChar

StartChar: ugrave
Encoding: 249 249 109
Width: 709
Flags: W
HStem: -10 65<282.877 405.525> 1 39<618.365 696> 490 40<13 81.26 378 448.046> 711 102<198.573 241>
VStem: 98 139<109.737 473.959> 465 139<129.045 473.915>
LayerCount: 2
Fore
SplineSet
304 -10 m 0xbc
 167.132874853 -10 98 83.4841635335 98 231 c 2
 98 366 l 2
 98 393.333333333 97.3333333333 414.833333333 96 430.5 c 0
 91.7167864243 480.827759514 63.836021547 484.916397845 13 490 c 1
 13 530 l 1
 237 530 l 1
 237 247 l 2
 237 179.666666667 245.333333333 130.833333333 262 100.5 c 0
 278.666666667 70.1666666667 305.333333333 55 342 55 c 0xbc
 381.333333333 55 411.666666667 73 433 109 c 0
 454.333333333 143.666666667 465 194.666666667 465 262 c 2
 465 366 l 2
 465 376.354585856 465.156825483 386.381001048 465.156825483 395.929057521 c 0
 465.156825483 439.521730936 461.887834801 473.143128194 425.5 482.5 c 0
 413.833333333 485.5 398 488 378 490 c 1
 378 530 l 1
 604 530 l 1
 604 227 l 2
 604 186.333333333 604.5 154.5 605.5 131.5 c 0
 607.790563701 78.817034879 607.596317274 46.1358402638 655.5 41.5 c 0
 665.833333333 40.5 679.333333333 40 696 40 c 1
 696 1 l 1x7c
 497 -11 l 1
 486 78 l 1
 482 78 l 1
 449.666741969 25.769352412 385.893471416 -10 304 -10 c 0xbc
172 768 m 0
 172 797.800303808 196.09441242 813 227 813 c 0
 264.484946007 813 288.020423479 792.980427499 312 770 c 2
 439 651 l 1
 375 651 l 1
 241 711 l 2
 219.666666667 720.333333333 202.833333333 729.333333333 190.5 738 c 0
 178.166666667 746.666666667 172 756.666666667 172 768 c 0
EndSplineSet
EndChar

StartChar: ograve
Encoding: 242 242 110
Width: 660
Flags: W
HStem: -10 61<265.516 394.387> 482 58<264.757 391.256> 711 102<228.573 271>
VStem: 37 157<160.511 373.561> 466 157<161.227 372.391>
LayerCount: 2
Fore
SplineSet
328 540 m 0
 415.419804065 540 486.82189718 506.269424729 535.5 463 c 0
 583.872442203 420.002273597 623 355.454356952 623 269 c 0
 623 180.331744515 584.236036478 113.524280239 535.5 69 c 0
 487.014147368 24.7042827809 415.928437451 -10 328 -10 c 0
 241.175402825 -10 170.689251512 23.8874423513 123 68 c 0
 74.700339241 112.677186202 37 180.456777595 37 269 c 0
 37 355.229469021 75.1363296088 420.922696648 123 464 c 0
 170.971762807 507.174586526 241.552997677 540 328 540 c 0
328 482 m 0
 281.439736624 482 250.128646724 454.405834758 230.5 423 c 0
 206.775267364 385.040427782 194 330.470677489 194 268 c 0
 194 176.78419647 217.614516615 101.22346908 272.5 66.5 c 0
 288.833333333 56.1666666667 307.333333333 51 328 51 c 256
 375.959193201 51 407.683818285 78.3327122853 428 110.5 c 0
 452.407624421 149.145405333 466 204.157405411 466 268 c 0
 466 357.538242505 439.573987234 433.023654818 384.5 466.5 c 0
 367.5 476.833333333 348.666666667 482 328 482 c 0
202 768 m 0
 202 797.800303808 226.09441242 813 257 813 c 0
 294.484946007 813 318.020423479 792.980427499 342 770 c 2
 469 651 l 1
 405 651 l 1
 271 711 l 2
 249.666666667 720.333333333 232.833333333 729.333333333 220.5 738 c 0
 208.166666667 746.666666667 202 756.666666667 202 768 c 0
EndSplineSet
EndChar

StartChar: egrave
Encoding: 232 232 111
Width: 585
Flags: W
HStem: -10 65<270.945 427.201> 300 56<201 397.134> 482 58<259.112 375.997> 711 102<147.573 190>
VStem: 38 152<149.086 297.234> 409 140<312 429.804>
LayerCount: 2
Fore
SplineSet
348 55 m 0
 417.360773842 55 470.254357327 90.5359617041 512 128 c 1
 540 93 l 1
 479.333333333 24.3333333333 403.666666667 -10 313 -10 c 0
 181.831070798 -10 96.3880918694 54.9491749199 58 149 c 0
 44.6666666667 181.666666667 38 218 38 258 c 0
 38 393.236275932 111.431307986 479.772523195 209.5 519 c 0
 244.5 533 283 540 325 540 c 0
 464.444568924 540 549 461.579894409 549 323 c 0
 549 301.000268074 544.302979109 299.989656029 522.990936243 299.989656029 c 0
 520.834798517 299.989656029 518.508600172 300 516 300 c 2
 194 300 l 1
 191.333333333 294 190 283 190 267 c 0
 190 151.491703622 239.600952067 55 348 55 c 0
409 382 m 0
 409 437.0124892 374.337570351 482 321 482 c 0
 254.53213395 482 212.098525365 417.041889508 201 356 c 1
 346 356 l 2
 372.666666667 356 389.833333333 357.5 397.5 360.5 c 0
 405.166666667 363.5 409 370.666666667 409 382 c 0
121 768 m 0
 121 797.800303808 145.09441242 813 176 813 c 0
 213.484946007 813 237.020423479 792.980427499 261 770 c 2
 388 651 l 1
 324 651 l 1
 190 711 l 2
 168.666666667 720.333333333 151.833333333 729.333333333 139.5 738 c 0
 127.166666667 746.666666667 121 756.666666667 121 768 c 0
EndSplineSet
EndChar

StartChar: wgrave
Encoding: 7809 7809 112
Width: 891
Flags: W
HStem: -10 21G<231.333 320.606 552.028 644.977> 490 40<8 62.4955 235.494 294 675 730.08 838.649 890> 711 102<347.573 390>
LayerCount: 2
Fore
SplineSet
738 442 m 0
 738 478.077637157 711.760775014 490 675 490 c 1
 675 530 l 1
 890 530 l 1
 890 490 l 1
 861.330442117 490 850.304692725 484.880865907 836 467 c 0
 828 457 819.333333333 441.666666667 810 421 c 0
 800.666666667 400.333333333 789 372 775 336 c 2
 637 -10 l 1
 558 -10 l 1
 452 345 l 1
 448 345 l 1
 313 -10 l 1
 238 -10 l 1
 101 401 l 2
 83.4935416683 453.519374995 65.2310905561 486.729651968 8 490 c 1
 8 530 l 1
 294 530 l 1
 294 490 l 1
 253.862313523 488.885064265 230 483.261458582 230 447 c 0
 230 427.115320716 235.584934496 411.411222713 241 393 c 2
 304 159 l 1
 308 159 l 1
 448 530 l 1
 530 530 l 1
 635 159 l 1
 640 159 l 1
 720 366 l 2
 730.32236959 391.805923975 738 413.235409686 738 442 c 0
321 768 m 0
 321 797.800303808 345.09441242 813 376 813 c 0
 413.484946007 813 437.020423479 792.980427499 461 770 c 2
 588 651 l 1
 524 651 l 1
 390 711 l 2
 368.666666667 720.333333333 351.833333333 729.333333333 339.5 738 c 0
 327.166666667 746.666666667 321 756.666666667 321 768 c 0
EndSplineSet
EndChar

StartChar: ygrave
Encoding: 7923 7923 113
Width: 646
Flags: W
HStem: -260 115<77.4875 209.802> 490 40<8 62.3584 244.021 311 413 481.421 599.229 654> 711 102<249.573 292>
LayerCount: 2
Fore
SplineSet
486 446 m 0
 486 487.487650077 461.548674637 490 413 490 c 1
 413 530 l 1
 654 530 l 1
 654 490 l 1
 621.746189064 490 608.345395095 481.74977356 591.5 462 c 0
 581.833333333 450.666666667 571.166666667 433.833333333 559.5 411.5 c 0
 547.833333333 389.166666667 533.333333333 359.666666667 516 323 c 2
 287 -157 l 2
 265.098364915 -200.803270169 227.778905165 -234.625852667 180 -252 c 0
 165.333333333 -257.333333333 150.666666667 -260 136 -260 c 0
 95.6322919159 -260 63 -239.690729975 63 -201 c 0
 63 -160.72926253 94.4379941762 -148.274000448 137 -145 c 0
 196.333333333 -140.333333333 234.666666667 -121.666666667 252 -89 c 2
 279 -37 l 1
 102 401 l 2
 89.305421363 431.678565039 81.8341945789 455.60751515 63 473.5 c 0
 49.3508624222 486.466680699 33.306357616 488.668086441 8 490 c 1
 8 530 l 1
 311 530 l 1
 311 490 l 1
 270.866749026 490 241 488.114801481 241 455 c 0
 241 441.218577908 245.765792235 426.644071353 250 415 c 2
 352 123 l 1
 356 123 l 1
 442 318 l 2
 459.071543728 358.709065813 474.807072971 386.631828371 484 428 c 0
 485.333333333 434 486 440 486 446 c 0
223 768 m 0
 223 797.800303808 247.09441242 813 278 813 c 0
 315.484946007 813 339.020423479 792.980427499 363 770 c 2
 490 651 l 1
 426 651 l 1
 292 711 l 2
 270.666666667 720.333333333 253.833333333 729.333333333 241.5 738 c 0
 229.166666667 746.666666667 223 756.666666667 223 768 c 0
EndSplineSet
EndChar

StartChar: igrave
Encoding: 236 236 114
Width: 361
Flags: W
HStem: 0 40<29 96.9126 274.939 344> 468 34<25 67.7368> 520 20G<134.895 257> 711 102<39.5726 82>
VStem: 118 139<59.8429 455.503>
LayerCount: 2
Fore
SplineSet
257 164 m 2
 257 159.542291758 256.9890314 155.12883264 256.9890314 150.774418961 c 0
 256.9890314 99.223932671 258.526326898 55.9489134681 298 45.5 c 0
 309.333333333 42.5 324.666666667 40.6666666667 344 40 c 1
 344 0 l 1
 29 0 l 1
 29 40 l 1
 80.8901882303 41.8532210082 107.33992029 53.4709161525 114.5 99.5 c 0
 116.833333333 114.5 118 133.666666667 118 157 c 2
 118 280 l 2
 118 318.666666667 117.333333333 350.5 116 375.5 c 0
 113.702793634 418.572619357 114.235459181 448.23521866 88.5 460 c 0
 76.8333333333 465.333333333 55.6666666667 468 25 468 c 1
 25 502 l 1
 257 540 l 1
 257 164 l 2
13 768 m 0
 13 797.800303808 37.0944124199 813 68 813 c 0
 105.484946007 813 129.020423479 792.980427499 153 770 c 2
 280 651 l 1
 216 651 l 1
 82 711 l 2
 60.6666666667 720.333333333 43.8333333333 729.333333333 31.5 738 c 0
 19.1666666667 746.666666667 13 756.666666667 13 768 c 0
EndSplineSet
EndChar

StartChar: hungarumlaut
Encoding: 733 733 115
Width: 536
Flags: W
HStem: 711 102<214 256.427 451 493.427>
LayerCount: 2
Fore
SplineSet
228 813 m 0
 258.916948609 813 283 797.806362031 283 768 c 0
 283 756.666666667 276.833333333 746.666666667 264.5 738 c 0
 252.166666667 729.333333333 235.333333333 720.333333333 214 711 c 2
 75 651 l 1
 16 651 l 1
 143 770 l 2
 167.033664449 793.032261764 190.441454631 813 228 813 c 0
465 813 m 0
 495.916948609 813 520 797.806362031 520 768 c 0
 520 756.666666667 513.833333333 746.666666667 501.5 738 c 0
 489.166666667 729.333333333 472.333333333 720.333333333 451 711 c 2
 312 651 l 1
 253 651 l 1
 380 770 l 2
 404.033664449 793.032261764 427.441454631 813 465 813 c 0
EndSplineSet
EndChar

StartChar: uhungarumlaut
Encoding: 369 369 116
Width: 709
Flags: W
HStem: -10 65<282.877 405.525> 1 39<618.365 696> 490 40<13 81.26 378 448.046> 711 102<330 372.427 567 609.427>
VStem: 98 139<109.737 473.959> 465 139<129.045 473.915>
LayerCount: 2
Fore
SplineSet
304 -10 m 0xbc
 167.132874853 -10 98 83.4841635335 98 231 c 2
 98 366 l 2
 98 393.333333333 97.3333333333 414.833333333 96 430.5 c 0
 91.7167864243 480.827759514 63.836021547 484.916397845 13 490 c 1
 13 530 l 1
 237 530 l 1
 237 247 l 2
 237 179.666666667 245.333333333 130.833333333 262 100.5 c 0
 278.666666667 70.1666666667 305.333333333 55 342 55 c 0xbc
 381.333333333 55 411.666666667 73 433 109 c 0
 454.333333333 143.666666667 465 194.666666667 465 262 c 2
 465 366 l 2
 465 376.354585856 465.156825483 386.381001048 465.156825483 395.929057521 c 0
 465.156825483 439.521730936 461.887834801 473.143128194 425.5 482.5 c 0
 413.833333333 485.5 398 488 378 490 c 1
 378 530 l 1
 604 530 l 1
 604 227 l 2
 604 186.333333333 604.5 154.5 605.5 131.5 c 0
 607.790563701 78.817034879 607.596317274 46.1358402638 655.5 41.5 c 0
 665.833333333 40.5 679.333333333 40 696 40 c 1
 696 1 l 1x7c
 497 -11 l 1
 486 78 l 1
 482 78 l 1
 449.666741969 25.769352412 385.893471416 -10 304 -10 c 0xbc
344 813 m 0
 374.916948609 813 399 797.806362031 399 768 c 0
 399 756.666666667 392.833333333 746.666666667 380.5 738 c 0
 368.166666667 729.333333333 351.333333333 720.333333333 330 711 c 2
 191 651 l 1
 132 651 l 1
 259 770 l 2
 283.033664449 793.032261764 306.441454631 813 344 813 c 0
581 813 m 0
 611.916948609 813 636 797.806362031 636 768 c 0
 636 756.666666667 629.833333333 746.666666667 617.5 738 c 0
 605.166666667 729.333333333 588.333333333 720.333333333 567 711 c 2
 428 651 l 1
 369 651 l 1
 496 770 l 2
 520.033664449 793.032261764 543.441454631 813 581 813 c 0
EndSplineSet
EndChar

StartChar: ohungarumlaut
Encoding: 337 337 117
Width: 660
Flags: W
HStem: -10 61<265.516 394.387> 482 58<264.757 391.256> 711 102<354 396.427 591 633.427>
VStem: 37 157<160.511 373.561> 466 157<161.227 372.391>
LayerCount: 2
Fore
SplineSet
328 540 m 0
 415.419804065 540 486.82189718 506.269424729 535.5 463 c 0
 583.872442203 420.002273597 623 355.454356952 623 269 c 0
 623 180.331744515 584.236036478 113.524280239 535.5 69 c 0
 487.014147368 24.7042827809 415.928437451 -10 328 -10 c 0
 241.175402825 -10 170.689251512 23.8874423513 123 68 c 0
 74.700339241 112.677186202 37 180.456777595 37 269 c 0
 37 355.229469021 75.1363296088 420.922696648 123 464 c 0
 170.971762807 507.174586526 241.552997677 540 328 540 c 0
328 482 m 0
 281.439736624 482 250.128646724 454.405834758 230.5 423 c 0
 206.775267364 385.040427782 194 330.470677489 194 268 c 0
 194 176.78419647 217.614516615 101.22346908 272.5 66.5 c 0
 288.833333333 56.1666666667 307.333333333 51 328 51 c 256
 375.959193201 51 407.683818285 78.3327122853 428 110.5 c 0
 452.407624421 149.145405333 466 204.157405411 466 268 c 0
 466 357.538242505 439.573987234 433.023654818 384.5 466.5 c 0
 367.5 476.833333333 348.666666667 482 328 482 c 0
368 813 m 0
 398.916948609 813 423 797.806362031 423 768 c 0
 423 756.666666667 416.833333333 746.666666667 404.5 738 c 0
 392.166666667 729.333333333 375.333333333 720.333333333 354 711 c 2
 215 651 l 1
 156 651 l 1
 283 770 l 2
 307.033664449 793.032261764 330.441454631 813 368 813 c 0
605 813 m 0
 635.916948609 813 660 797.806362031 660 768 c 0
 660 756.666666667 653.833333333 746.666666667 641.5 738 c 0
 629.166666667 729.333333333 612.333333333 720.333333333 591 711 c 2
 452 651 l 1
 393 651 l 1
 520 770 l 2
 544.033664449 793.032261764 567.441454631 813 605 813 c 0
EndSplineSet
EndChar

StartChar: circumflex
Encoding: 710 710 118
Width: 386
Flags: W
HStem: 651 149
LayerCount: 2
Fore
SplineSet
245 800 m 1
 365 651 l 1
 313 651 l 1
 193 719 l 1
 73 651 l 1
 21 651 l 1
 141 800 l 1
 245 800 l 1
EndSplineSet
EndChar

StartChar: caron
Encoding: 711 711 119
Width: 386
Flags: W
HStem: 651 149
LayerCount: 2
Fore
SplineSet
141 651 m 1
 21 800 l 1
 73 800 l 1
 193 732 l 1
 313 800 l 1
 365 800 l 1
 245 651 l 1
 141 651 l 1
EndSplineSet
EndChar

StartChar: acircumflex
Encoding: 226 226 120
Width: 574
Flags: W
HStem: -10 70<420.154 531.086> -9 93<132.796 268.999> 491 49<214.125 319.31>
VStem: 34 141<96.9432 181.641> 59 129<388.645 467.917> 344 134<125.98 285 338 464.608>
LayerCount: 2
Fore
SplineSet
175 147 m 0x74
 175 111.206347613 196.702363271 84 231 84 c 256
 282.64717079 84 319.598887741 112.020977759 335.5 148.5 c 0
 341.166666667 161.5 344 175.333333333 344 190 c 2
 344 285 l 1
 288 259.666666667 245.833333333 236.166666667 217.5 214.5 c 0
 189.166666667 192.833333333 175 170.333333333 175 147 c 0x74
173 -9 m 0
 92.5929540672 -9 34 40.3308247823 34 119 c 0x74
 34 148.333333333 47 175.833333333 73 201.5 c 0
 99 227.166666667 142.333333333 252.333333333 203 277 c 1
 344 338 l 1
 344 380 l 2
 344 448.984945385 324.045236159 491 260 491 c 0
 240.666666667 491 226 485.833333333 216 475.5 c 0
 206 465.166666667 196.666666667 448 188 424 c 0
 176.783049502 392.841804171 157.959999886 371 117 371 c 0
 78.2559863009 371 59 396.385374421 59 436 c 0
 59 468 76.5 493.333333333 111.5 512 c 0
 146.5 530.666666667 199.333333333 540 270 540 c 0
 410.555859946 540 478 498.926575477 478 364 c 2
 478 145 l 2
 478 88.3333333333 489.333333333 60 512 60 c 0
 524.666666667 60 536.333333333 64.3333333333 547 73 c 1
 562 44 l 1
 543.877126516 11.637725922 502.043114299 -10 452 -10 c 0xac
 388.30783012 -10 358 31.8848377723 358 97 c 1
 353 97 l 1
 318.94128273 35.929196619 261.664764226 -9 173 -9 c 0
325 800 m 1
 445 651 l 1
 393 651 l 1
 273 719 l 1
 153 651 l 1
 101 651 l 1
 221 800 l 1
 325 800 l 1
EndSplineSet
EndChar

StartChar: ucircumflex
Encoding: 251 251 121
Width: 709
Flags: W
HStem: -10 65<282.877 405.525> 1 39<618.365 696> 490 40<13 81.26 378 448.046>
VStem: 98 139<109.737 473.959> 465 139<129.045 473.915>
LayerCount: 2
Fore
SplineSet
304 -10 m 0xb8
 167.132874853 -10 98 83.4841635335 98 231 c 2
 98 366 l 2
 98 393.333333333 97.3333333333 414.833333333 96 430.5 c 0
 91.7167864243 480.827759514 63.836021547 484.916397845 13 490 c 1
 13 530 l 1
 237 530 l 1
 237 247 l 2
 237 179.666666667 245.333333333 130.833333333 262 100.5 c 0
 278.666666667 70.1666666667 305.333333333 55 342 55 c 0xb8
 381.333333333 55 411.666666667 73 433 109 c 0
 454.333333333 143.666666667 465 194.666666667 465 262 c 2
 465 366 l 2
 465 376.354585856 465.156825483 386.381001048 465.156825483 395.929057521 c 0
 465.156825483 439.521730936 461.887834801 473.143128194 425.5 482.5 c 0
 413.833333333 485.5 398 488 378 490 c 1
 378 530 l 1
 604 530 l 1
 604 227 l 2
 604 186.333333333 604.5 154.5 605.5 131.5 c 0
 607.790563701 78.817034879 607.596317274 46.1358402638 655.5 41.5 c 0
 665.833333333 40.5 679.333333333 40 696 40 c 1
 696 1 l 1x78
 497 -11 l 1
 486 78 l 1
 482 78 l 1
 449.666741969 25.769352412 385.893471416 -10 304 -10 c 0xb8
371 800 m 1
 491 651 l 1
 439 651 l 1
 319 719 l 1
 199 651 l 1
 147 651 l 1
 267 800 l 1
 371 800 l 1
EndSplineSet
EndChar

StartChar: hcircumflex
Encoding: 293 293 122
Width: 714
Flags: W
HStem: 0 40<16 88.6317 259.875 331 388 459.685 631.362 701> 474 66<310.15 436.588> 755 37<19 60.0789> 810 20G<124.632 242>
VStem: 105 137<55.9636 399.446 461 743.578> 477 139<55.1984 422.304>
LayerCount: 2
Fore
SplineSet
375 474 m 0
 282.756037831 474 244 394.715451922 244 297 c 2
 244 164 l 2
 244 154.999879417 243.89483762 146.123959968 243.89483762 137.520959534 c 0
 243.89483762 92.1586623883 246.818657377 54.3843068853 283.5 46 c 0
 295.166666667 43.3333333333 311 41.3333333333 331 40 c 1
 331 0 l 1
 16 0 l 1
 16 40 l 1
 68.4393199192 43.4959546613 97.0262950009 47.2366550082 102.5 96.5 c 0
 104.166666667 111.5 105 131.666666667 105 157 c 2
 105 568 l 2
 105 608 104.5 639.5 103.5 662.5 c 0
 101.266077134 713.880225913 101.794543709 748.710909271 55.5 753.5 c 0
 45.8333333333 754.5 33.6666666667 755 19 755 c 1
 19 792 l 1
 242 830 l 1
 242 461 l 1
 246 461 l 1
 283.256188981 510.274314458 327.452878893 540 408 540 c 0
 510.396355561 540 572.482112838 488.300680293 601 407.5 c 0
 611 379.166666667 616 349.666666667 616 319 c 2
 616 164 l 2
 616 153.977462741 615.860935378 144.148816185 615.860935378 134.700341399 c 0
 615.860935378 90.2726348713 618.935623225 54.2504415941 654 46 c 0
 665.333333333 43.3333333333 681 41.3333333333 701 40 c 1
 701 0 l 1
 388 0 l 1
 388 40 l 1
 440.435182091 41.747839403 469.201117019 48.8100531749 474.5 96.5 c 0
 476.166666667 111.5 477 131.666666667 477 157 c 2
 477 280 l 2
 477 350.666666667 469.333333333 400.666666667 454 430 c 0
 438.666666667 459.333333333 412.333333333 474 375 474 c 0
513 800 m 1
 633 651 l 1
 581 651 l 1
 461 719 l 1
 341 651 l 1
 289 651 l 1
 409 800 l 1
 513 800 l 1
EndSplineSet
EndChar

StartChar: ocircumflex
Encoding: 244 244 123
Width: 660
Flags: W
HStem: -10 61<265.516 394.387> 482 58<264.757 391.256>
VStem: 37 157<160.511 373.561> 466 157<161.227 372.391>
LayerCount: 2
Fore
SplineSet
328 540 m 0
 415.419804065 540 486.82189718 506.269424729 535.5 463 c 0
 583.872442203 420.002273597 623 355.454356952 623 269 c 0
 623 180.331744515 584.236036478 113.524280239 535.5 69 c 0
 487.014147368 24.7042827809 415.928437451 -10 328 -10 c 0
 241.175402825 -10 170.689251512 23.8874423513 123 68 c 0
 74.700339241 112.677186202 37 180.456777595 37 269 c 0
 37 355.229469021 75.1363296088 420.922696648 123 464 c 0
 170.971762807 507.174586526 241.552997677 540 328 540 c 0
328 482 m 0
 281.439736624 482 250.128646724 454.405834758 230.5 423 c 0
 206.775267364 385.040427782 194 330.470677489 194 268 c 0
 194 176.78419647 217.614516615 101.22346908 272.5 66.5 c 0
 288.833333333 56.1666666667 307.333333333 51 328 51 c 256
 375.959193201 51 407.683818285 78.3327122853 428 110.5 c 0
 452.407624421 149.145405333 466 204.157405411 466 268 c 0
 466 357.538242505 439.573987234 433.023654818 384.5 466.5 c 0
 367.5 476.833333333 348.666666667 482 328 482 c 0
380 800 m 1
 500 651 l 1
 448 651 l 1
 328 719 l 1
 208 651 l 1
 156 651 l 1
 276 800 l 1
 380 800 l 1
EndSplineSet
EndChar

StartChar: ccircumflex
Encoding: 265 265 124
Width: 564
Flags: W
HStem: -5 66<265.038 429.608> 482 58<251.217 358.208>
VStem: 39 154<148.454 379.326>
LayerCount: 2
Fore
SplineSet
342 61 m 0
 407.692562588 61 460.985532794 88.8535257033 502 121 c 1
 528 83 l 1
 481.391509679 31.4853528033 405.361822819 -5 311 -5 c 0
 181.831934439 -5 95.4305291543 59.7532721468 58.5 153.5 c 0
 45.5 186.5 39 223 39 263 c 0
 39 397.165405359 111.15161473 482.69872254 210 520 c 0
 245.333333333 533.333333333 284.333333333 540 327 540 c 0
 411.674897027 540 484.381867148 516.36186602 520 468.5 c 0
 530.666666667 454.166666667 536 438.666666667 536 422 c 0
 536 383.992104753 512.717660053 359 475 359 c 0
 407.764227886 359 392.515498026 438.237084978 355 469.5 c 0
 343.723495034 478.897087471 334.32271312 482 315 482 c 0
 222.452073324 482 193 381.159278833 193 277 c 0
 193 157.747718488 232.39303496 61 342 61 c 0
361 800 m 1
 481 651 l 1
 429 651 l 1
 309 719 l 1
 189 651 l 1
 137 651 l 1
 257 800 l 1
 361 800 l 1
EndSplineSet
EndChar

StartChar: ecircumflex
Encoding: 234 234 125
Width: 585
Flags: W
HStem: -10 65<270.945 427.201> 300 56<201 397.134> 482 58<259.112 375.997>
VStem: 38 152<149.086 297.234> 409 140<312 429.804>
LayerCount: 2
Fore
SplineSet
348 55 m 0
 417.360773842 55 470.254357327 90.5359617041 512 128 c 1
 540 93 l 1
 479.333333333 24.3333333333 403.666666667 -10 313 -10 c 0
 181.831070798 -10 96.3880918694 54.9491749199 58 149 c 0
 44.6666666667 181.666666667 38 218 38 258 c 0
 38 393.236275932 111.431307986 479.772523195 209.5 519 c 0
 244.5 533 283 540 325 540 c 0
 464.444568924 540 549 461.579894409 549 323 c 0
 549 301.000268074 544.302979109 299.989656029 522.990936243 299.989656029 c 0
 520.834798517 299.989656029 518.508600172 300 516 300 c 2
 194 300 l 1
 191.333333333 294 190 283 190 267 c 0
 190 151.491703622 239.600952067 55 348 55 c 0
409 382 m 0
 409 437.0124892 374.337570351 482 321 482 c 0
 254.53213395 482 212.098525365 417.041889508 201 356 c 1
 346 356 l 2
 372.666666667 356 389.833333333 357.5 397.5 360.5 c 0
 405.166666667 363.5 409 370.666666667 409 382 c 0
367 800 m 1
 487 651 l 1
 435 651 l 1
 315 719 l 1
 195 651 l 1
 143 651 l 1
 263 800 l 1
 367 800 l 1
EndSplineSet
EndChar

StartChar: scircumflex
Encoding: 349 349 126
Width: 466
Flags: W
HStem: -10 54<157.973 292.254> 0 21G<54 97.5714> 487 54<183.469 289.512> 511 20G<339 380>
VStem: 54 42<119.75 182> 58 115<382.48 466.214> 306 124<63.8464 152.884> 341 39<380 421.031>
LayerCount: 2
Fore
SplineSet
248 -10 m 0xa6
 189.498091467 -10 137.878143589 6.69503504368 107 35 c 1
 85 0 l 1
 54 0 l 1
 54 182 l 1
 96 182 l 1x4a
 107.333333333 134 123.666666667 99 145 77 c 0
 166.333333333 55 194 44 228 44 c 0
 271.374297036 44 306 61.5696423312 306 102 c 0
 306 120.666666667 297.666666667 138.833333333 281 156.5 c 0
 264.333333333 174.166666667 237.333333333 193 200 213 c 0
 149.333333333 240.333333333 113 267.5 91 294.5 c 0
 69 321.5 58 352 58 386 c 0
 58 459.266992873 101.911510762 508.766079125 156 529.5 c 0
 176 537.166666667 197.666666667 541 221 541 c 0xa6
 265.871349693 541 308.359925401 526.227877982 336 507 c 1
 354 531 l 1
 380 531 l 1
 380 380 l 1
 341 380 l 1x15
 325.666666667 418 309.833333333 445.333333333 293.5 462 c 0
 277.166666667 478.666666667 257.333333333 487 234 487 c 0
 198.435552942 487 173 466.697808416 173 432 c 0
 173 413.333333333 181.166666667 395.666666667 197.5 379 c 0
 213.833333333 362.333333333 241 344 279 324 c 0
 324.623882846 298.906864435 365.724395005 273.468083744 395 238.5 c 0
 415.93630073 213.492751906 430 184.926405907 430 143 c 0
 430 64.9721865477 382.521116111 20.7084261856 322.5 1 c 0
 300.166666667 -6.33333333333 275.333333333 -10 248 -10 c 0xa6
294 800 m 1
 414 651 l 1
 362 651 l 1
 242 719 l 1
 122 651 l 1
 70 651 l 1
 190 800 l 1
 294 800 l 1
EndSplineSet
EndChar

StartChar: wcircumflex
Encoding: 373 373 127
Width: 891
Flags: W
HStem: -10 21G<231.333 320.606 552.028 644.977> 490 40<8 62.4955 235.494 294 675 730.08 838.649 890>
LayerCount: 2
Fore
SplineSet
738 442 m 0
 738 478.077637157 711.760775014 490 675 490 c 1
 675 530 l 1
 890 530 l 1
 890 490 l 1
 861.330442117 490 850.304692725 484.880865907 836 467 c 0
 828 457 819.333333333 441.666666667 810 421 c 0
 800.666666667 400.333333333 789 372 775 336 c 2
 637 -10 l 1
 558 -10 l 1
 452 345 l 1
 448 345 l 1
 313 -10 l 1
 238 -10 l 1
 101 401 l 2
 83.4935416683 453.519374995 65.2310905561 486.729651968 8 490 c 1
 8 530 l 1
 294 530 l 1
 294 490 l 1
 253.862313523 488.885064265 230 483.261458582 230 447 c 0
 230 427.115320716 235.584934496 411.411222713 241 393 c 2
 304 159 l 1
 308 159 l 1
 448 530 l 1
 530 530 l 1
 635 159 l 1
 640 159 l 1
 720 366 l 2
 730.32236959 391.805923975 738 413.235409686 738 442 c 0
520 800 m 1
 640 651 l 1
 588 651 l 1
 468 719 l 1
 348 651 l 1
 296 651 l 1
 416 800 l 1
 520 800 l 1
EndSplineSet
EndChar

StartChar: ycircumflex
Encoding: 375 375 128
Width: 646
Flags: W
HStem: -260 115<77.4875 209.802> 490 40<8 62.3584 244.021 311 413 481.421 599.229 654>
LayerCount: 2
Fore
SplineSet
486 446 m 0
 486 487.487650077 461.548674637 490 413 490 c 1
 413 530 l 1
 654 530 l 1
 654 490 l 1
 621.746189064 490 608.345395095 481.74977356 591.5 462 c 0
 581.833333333 450.666666667 571.166666667 433.833333333 559.5 411.5 c 0
 547.833333333 389.166666667 533.333333333 359.666666667 516 323 c 2
 287 -157 l 2
 265.098364915 -200.803270169 227.778905165 -234.625852667 180 -252 c 0
 165.333333333 -257.333333333 150.666666667 -260 136 -260 c 0
 95.6322919159 -260 63 -239.690729975 63 -201 c 0
 63 -160.72926253 94.4379941762 -148.274000448 137 -145 c 0
 196.333333333 -140.333333333 234.666666667 -121.666666667 252 -89 c 2
 279 -37 l 1
 102 401 l 2
 89.305421363 431.678565039 81.8341945789 455.60751515 63 473.5 c 0
 49.3508624222 486.466680699 33.306357616 488.668086441 8 490 c 1
 8 530 l 1
 311 530 l 1
 311 490 l 1
 270.866749026 490 241 488.114801481 241 455 c 0
 241 441.218577908 245.765792235 426.644071353 250 415 c 2
 352 123 l 1
 356 123 l 1
 442 318 l 2
 459.071543728 358.709065813 474.807072971 386.631828371 484 428 c 0
 485.333333333 434 486 440 486 446 c 0
421 800 m 1
 541 651 l 1
 489 651 l 1
 369 719 l 1
 249 651 l 1
 197 651 l 1
 317 800 l 1
 421 800 l 1
EndSplineSet
EndChar

StartChar: icircumflex
Encoding: 238 238 129
Width: 361
Flags: W
HStem: 0 40<29 96.9126 274.939 344> 468 34<25 67.7368> 520 20G<134.895 257>
VStem: 118 139<59.8429 455.503>
LayerCount: 2
Fore
SplineSet
257 164 m 2
 257 159.542291758 256.9890314 155.12883264 256.9890314 150.774418961 c 0
 256.9890314 99.223932671 258.526326898 55.9489134681 298 45.5 c 0
 309.333333333 42.5 324.666666667 40.6666666667 344 40 c 1
 344 0 l 1
 29 0 l 1
 29 40 l 1
 80.8901882303 41.8532210082 107.33992029 53.4709161525 114.5 99.5 c 0
 116.833333333 114.5 118 133.666666667 118 157 c 2
 118 280 l 2
 118 318.666666667 117.333333333 350.5 116 375.5 c 0
 113.702793634 418.572619357 114.235459181 448.23521866 88.5 460 c 0
 76.8333333333 465.333333333 55.6666666667 468 25 468 c 1
 25 502 l 1
 257 540 l 1
 257 164 l 2
239 800 m 1
 359 651 l 1
 307 651 l 1
 187 719 l 1
 67 651 l 1
 15 651 l 1
 135 800 l 1
 239 800 l 1
EndSplineSet
EndChar

StartChar: jcircumflex
Encoding: 309 309 130
Width: 331
Flags: W
HStem: -260 53<-14.0284 80.9129> 468 34<14 56.7368> 520 20G<123.895 246>
VStem: 107 139<-127.405 454.466>
LayerCount: 2
Fore
SplineSet
-99 -109 m 0
 -23.3713106937 -109 -41.1383160487 -207 33 -207 c 0
 57.6666666667 -207 76.1666666667 -197.333333333 88.5 -178 c 0
 100.833333333 -158.666666667 107 -125.333333333 107 -78 c 2
 107 290 l 2
 107 294.380469474 107.002469901 298.722835566 107.002469901 303.023853783 c 0
 107.002469901 351.476034914 106.689023234 394.680899319 99 428 c 0
 90.990570113 464.84337748 65.5345955575 468 14 468 c 1
 14 502 l 1
 246 540 l 1
 246 -2 l 2
 246 -162.545945415 168.249660613 -260 11 -260 c 0
 -40.3333333333 -260 -80.5 -250.5 -109.5 -231.5 c 0
 -138.5 -212.5 -153 -189 -153 -161 c 0
 -153 -129.733812791 -128.894637393 -109 -99 -109 c 0
224 800 m 1
 344 651 l 1
 292 651 l 1
 172 719 l 1
 52 651 l 1
 0 651 l 1
 120 800 l 1
 224 800 l 1
EndSplineSet
EndChar

StartChar: ncaron
Encoding: 328 328 131
Width: 727
Flags: W
HStem: 0 40<29 99.5889 272.906 344 401 472.074 644.7 714> 468 34<25 60.5526> 475 65<315.433 448.168>
VStem: 118 139<56.4499 406.946> 490 139<56.3727 426.463>
LayerCount: 2
Fore
SplineSet
235 452 m 1xb8
 273.485280137 500.981265629 330.651450907 540 412 540 c 0
 501.879724807 540 546.054402977 516.831273483 586 464 c 0
 614.557068423 425.363966251 629 378.474867718 629 304 c 2
 629 163 l 2
 629 153.783749381 628.886564264 144.721786533 628.886564264 135.965991432 c 0
 628.886564264 91.2423457811 631.846164887 54.5067847325 668 46 c 0
 679.333333333 43.3333333333 694.666666667 41.3333333333 714 40 c 1
 714 0 l 1
 401 0 l 1
 401 40 l 1
 454.25495863 41.7751652877 480.6568174 48.9261304994 487 96.5 c 0
 489 111.5 490 131.333333333 490 156 c 2
 490 292 l 2
 490 372.268931067 482.708785692 442.307569815 429 465.5 c 0
 414.333333333 471.833333333 396 475 374 475 c 0xb8
 324.577517498 475 297.928088113 442.62934233 279 407 c 0
 266.55772263 382.115445261 257 339.589211727 257 301 c 2
 257 163 l 2
 257 153.683562443 256.883111861 144.535975847 256.883111861 135.709352973 c 0
 256.883111861 90.9026280084 259.8952002 54.3668113829 296.5 46 c 0
 308.166666667 43.3333333333 324 41.3333333333 344 40 c 1
 344 0 l 1
 29 0 l 1
 29 40 l 1
 80.5213747466 43.5531982584 108.532666718 48.5728892631 115 96 c 0
 117 110.666666667 118 130.666666667 118 156 c 2
 118 281 l 2
 118 320.333333333 117.333333333 352.166666667 116 376.5 c 0
 113.936382241 414.161024105 114.40048223 428.11918021 103 447.5 c 0
 90.9426287138 467.997531186 59.2191197894 468 25 468 c 1
 25 502 l 1xd8
 218 540 l 1
 231 452 l 1
 235 452 l 1xb8
319 651 m 1
 199 800 l 1
 251 800 l 1
 371 732 l 1
 491 800 l 1
 543 800 l 1
 423 651 l 1
 319 651 l 1
EndSplineSet
EndChar

StartChar: rcaron
Encoding: 345 345 132
Width: 498
Flags: W
HStem: 0 40<30 102.632 275.638 364> 437 103<331.048 432.563> 468 35<26 63.8378>
VStem: 119 139<55.9636 358.979>
LayerCount: 2
Fore
SplineSet
496 473 m 0xd0
 496 430.645961324 469.535946558 397 427 397 c 0
 395.768302048 397 378.340394228 417.609203949 359.5 430.5 c 0
 353.166666667 434.833333333 346.666666667 437 340 437 c 0xd0
 327.333333333 437 315.333333333 428.666666667 304 412 c 0
 272.887051388 366.245663806 258 281.082778888 258 203 c 2
 258 155 l 2
 258 94.7198601303 258.584288211 51.7359519648 308 43.5 c 0
 322 41.1666666667 340.666666667 40 364 40 c 1
 364 0 l 1
 30 0 l 1
 30 40 l 1
 82.4393199192 43.4959546613 111.026295001 47.2366550082 116.5 96.5 c 0
 118.166666667 111.5 119 131.666666667 119 157 c 2
 119 279 l 2
 119 320.333333333 118 353.333333333 116 378 c 0
 112.659488703 419.199639334 103.999860123 451.135184281 74.5 461.5 c 0
 62.1666666667 465.833333333 46 468 26 468 c 1
 26 503 l 1xb0
 226 540 l 1
 242 425 l 1
 246 425 l 1
 275.244858288 482.406573677 331.836287644 540 410 540 c 0
 455.126188813 540 496 515.721550475 496 473 c 0xd0
236 651 m 1
 116 800 l 1
 168 800 l 1
 288 732 l 1
 408 800 l 1
 460 800 l 1
 340 651 l 1
 236 651 l 1
EndSplineSet
EndChar

StartChar: ccaron
Encoding: 269 269 133
Width: 564
Flags: W
HStem: -5 66<265.038 429.608> 482 58<251.217 358.208>
VStem: 39 154<148.454 379.326>
LayerCount: 2
Fore
SplineSet
342 61 m 0
 407.692562588 61 460.985532794 88.8535257033 502 121 c 1
 528 83 l 1
 481.391509679 31.4853528033 405.361822819 -5 311 -5 c 0
 181.831934439 -5 95.4305291543 59.7532721468 58.5 153.5 c 0
 45.5 186.5 39 223 39 263 c 0
 39 397.165405359 111.15161473 482.69872254 210 520 c 0
 245.333333333 533.333333333 284.333333333 540 327 540 c 0
 411.674897027 540 484.381867148 516.36186602 520 468.5 c 0
 530.666666667 454.166666667 536 438.666666667 536 422 c 0
 536 383.992104753 512.717660053 359 475 359 c 0
 407.764227886 359 392.515498026 438.237084978 355 469.5 c 0
 343.723495034 478.897087471 334.32271312 482 315 482 c 0
 222.452073324 482 193 381.159278833 193 277 c 0
 193 157.747718488 232.39303496 61 342 61 c 0
277 651 m 1
 157 800 l 1
 209 800 l 1
 329 732 l 1
 449 800 l 1
 501 800 l 1
 381 651 l 1
 277 651 l 1
EndSplineSet
EndChar

StartChar: ecaron
Encoding: 283 283 134
Width: 585
Flags: W
HStem: -10 65<270.945 427.201> 300 56<201 397.134> 482 58<259.112 375.997>
VStem: 38 152<149.086 297.234> 409 140<312 429.804>
LayerCount: 2
Fore
SplineSet
348 55 m 0
 417.360773842 55 470.254357327 90.5359617041 512 128 c 1
 540 93 l 1
 479.333333333 24.3333333333 403.666666667 -10 313 -10 c 0
 181.831070798 -10 96.3880918694 54.9491749199 58 149 c 0
 44.6666666667 181.666666667 38 218 38 258 c 0
 38 393.236275932 111.431307986 479.772523195 209.5 519 c 0
 244.5 533 283 540 325 540 c 0
 464.444568924 540 549 461.579894409 549 323 c 0
 549 301.000268074 544.302979109 299.989656029 522.990936243 299.989656029 c 0
 520.834798517 299.989656029 518.508600172 300 516 300 c 2
 194 300 l 1
 191.333333333 294 190 283 190 267 c 0
 190 151.491703622 239.600952067 55 348 55 c 0
409 382 m 0
 409 437.0124892 374.337570351 482 321 482 c 0
 254.53213395 482 212.098525365 417.041889508 201 356 c 1
 346 356 l 2
 372.666666667 356 389.833333333 357.5 397.5 360.5 c 0
 405.166666667 363.5 409 370.666666667 409 382 c 0
271 651 m 1
 151 800 l 1
 203 800 l 1
 323 732 l 1
 443 800 l 1
 495 800 l 1
 375 651 l 1
 271 651 l 1
EndSplineSet
EndChar

StartChar: scaron
Encoding: 353 353 135
Width: 466
Flags: W
HStem: -10 54<157.973 292.254> 0 21G<54 97.5714> 487 54<183.469 289.512> 511 20G<339 380>
VStem: 54 42<119.75 182> 58 115<382.48 466.214> 306 124<63.8464 152.884> 341 39<380 421.031>
LayerCount: 2
Fore
SplineSet
248 -10 m 0xa6
 189.498091467 -10 137.878143589 6.69503504368 107 35 c 1
 85 0 l 1
 54 0 l 1
 54 182 l 1
 96 182 l 1x4a
 107.333333333 134 123.666666667 99 145 77 c 0
 166.333333333 55 194 44 228 44 c 0
 271.374297036 44 306 61.5696423312 306 102 c 0
 306 120.666666667 297.666666667 138.833333333 281 156.5 c 0
 264.333333333 174.166666667 237.333333333 193 200 213 c 0
 149.333333333 240.333333333 113 267.5 91 294.5 c 0
 69 321.5 58 352 58 386 c 0
 58 459.266992873 101.911510762 508.766079125 156 529.5 c 0
 176 537.166666667 197.666666667 541 221 541 c 0xa6
 265.871349693 541 308.359925401 526.227877982 336 507 c 1
 354 531 l 1
 380 531 l 1
 380 380 l 1
 341 380 l 1x15
 325.666666667 418 309.833333333 445.333333333 293.5 462 c 0
 277.166666667 478.666666667 257.333333333 487 234 487 c 0
 198.435552942 487 173 466.697808416 173 432 c 0
 173 413.333333333 181.166666667 395.666666667 197.5 379 c 0
 213.833333333 362.333333333 241 344 279 324 c 0
 324.623882846 298.906864435 365.724395005 273.468083744 395 238.5 c 0
 415.93630073 213.492751906 430 184.926405907 430 143 c 0
 430 64.9721865477 382.521116111 20.7084261856 322.5 1 c 0
 300.166666667 -6.33333333333 275.333333333 -10 248 -10 c 0xa6
190 651 m 1
 70 800 l 1
 122 800 l 1
 242 732 l 1
 362 800 l 1
 414 800 l 1
 294 651 l 1
 190 651 l 1
EndSplineSet
EndChar

StartChar: zcaron
Encoding: 382 382 136
Width: 568
Flags: W
HStem: 0 54<210 438.332> 477 53<130.376 339>
VStem: 55 39<374 435.366> 493 39<114.104 170>
LayerCount: 2
Fore
SplineSet
520 0 m 1
 26 0 l 1
 26 23 l 1
 339 477 l 1
 247 477 l 2
 176.887008429 477 128.626299973 474.355999936 108.5 427 c 0
 102.833333333 413.666666667 98 396 94 374 c 1
 55 374 l 1
 67 530 l 1
 518 530 l 1
 518 507 l 1
 210 54 l 1
 298 54 l 2
 381.952786252 54 443.895805093 57.8046345495 472 110.5 c 0
 480 125.5 487 145.333333333 493 170 c 1
 532 170 l 1
 520 0 l 1
264 651 m 1
 144 800 l 1
 196 800 l 1
 316 732 l 1
 436 800 l 1
 488 800 l 1
 368 651 l 1
 264 651 l 1
EndSplineSet
EndChar

StartChar: ae
Encoding: 230 230 137
Width: 889
Flags: W
HStem: -10 65<566.572 734.624> -9 93<133.61 272.128> 300 56<499 713.695> 482 58<559.248 681.864> 491 49<211.764 319.013>
VStem: 34 141<98.0393 183.571> 59 130<389.598 468.664> 344 144<141.839 285.5> 714 139<309.267 427.738>
LayerCount: 2
Fore
SplineSet
488 260 m 0x3380
 488 138.717243687 535.069497515 55 650 55 c 0
 678.666666667 55 705.666666667 60.5 731 71.5 c 0
 756.333333333 82.5 785 101.333333333 817 128 c 1
 845 93 l 1
 785.744924833 30.2593321756 724.395441827 -10 614 -10 c 0xb380
 500.666666667 -10 419.666666667 32.3333333333 371 117 c 1
 337.87612094 46.0202591561 272.919998045 -9 175 -9 c 256
 92.2205955557 -9 34 32.8416715316 34 113 c 0x6580
 34 179.876728603 76.0872553941 211.829023009 121.5 238.5 c 0
 142.5 250.833333333 168 263.333333333 198 276 c 2
 344 338 l 1
 344 380 l 2
 344 447.468705116 324.620091061 491 262 491 c 0
 214.402842069 491 203.6555977 461.807044538 189 427 c 0
 175.839111557 394.097778892 160.290591611 371 120 371 c 0
 81.411490331 371 59 394.43790942 59 433 c 0
 59 468.333333333 76.1666666667 495 110.5 513 c 0
 144.833333333 531 195.333333333 540 262 540 c 0x6b80
 354 540 416 520.666666667 448 482 c 1
 488.872339102 517.763296715 554.57050592 540 630 540 c 0
 772.432195674 540 853 459.431370471 853 317 c 0
 853 301.534297718 848.537079803 299.876566657 834.613216011 299.876566657 c 0
 830.813781402 299.876566657 826.309892418 300 821 300 c 2
 492 300 l 1
 489.333333333 294 488 280.666666667 488 260 c 0x3380
175 143 m 0x6580
 175 105.649731808 202.813294684 84 241 84 c 0
 290.836434898 84 321.681683936 115.809315086 336 152.5 c 0
 341.333333333 166.166666667 344 181 344 197 c 2
 344 286 l 1
 292.302998294 260.70146725 249.451278421 239.983586657 213 209 c 0
 192.739487856 191.778564678 175 173.614612587 175 143 c 0x6580
714 385 m 0
 714 441.818631822 678.958943538 482 623 482 c 0x3180
 552.629239689 482 514.072019895 419.51779813 499 356 c 1
 652 356 l 2
 658.44541406 356 665.240579483 355.796606795 671.863823144 355.796606795 c 0
 690.403706245 355.796606795 707.596478381 357.390315549 712 369.5 c 0
 713.333333333 373.166666667 714 378.333333333 714 385 c 0
EndSplineSet
EndChar

StartChar: aeacute
Encoding: 509 509 138
Width: 889
Flags: W
HStem: -10 65<566.572 734.624> -9 93<133.61 272.128> 300 56<499 713.695> 482 58<559.248 681.864> 491 49<211.764 319.013> 711 102<533 575.427>
VStem: 34 141<98.0393 183.571> 59 130<389.598 468.664> 344 144<141.839 285.5> 714 139<309.267 427.738>
LayerCount: 2
Fore
SplineSet
488 260 m 0x35c0
 488 138.717243687 535.069497515 55 650 55 c 0
 678.666666667 55 705.666666667 60.5 731 71.5 c 0
 756.333333333 82.5 785 101.333333333 817 128 c 1
 845 93 l 1
 785.744924833 30.2593321756 724.395441827 -10 614 -10 c 0xb5c0
 500.666666667 -10 419.666666667 32.3333333333 371 117 c 1
 337.87612094 46.0202591561 272.919998045 -9 175 -9 c 256
 92.2205955557 -9 34 32.8416715316 34 113 c 0x66c0
 34 179.876728603 76.0872553941 211.829023009 121.5 238.5 c 0
 142.5 250.833333333 168 263.333333333 198 276 c 2
 344 338 l 1
 344 380 l 2
 344 447.468705116 324.620091061 491 262 491 c 0
 214.402842069 491 203.6555977 461.807044538 189 427 c 0
 175.839111557 394.097778892 160.290591611 371 120 371 c 0
 81.411490331 371 59 394.43790942 59 433 c 0
 59 468.333333333 76.1666666667 495 110.5 513 c 0
 144.833333333 531 195.333333333 540 262 540 c 0x6dc0
 354 540 416 520.666666667 448 482 c 1
 488.872339102 517.763296715 554.57050592 540 630 540 c 0
 772.432195674 540 853 459.431370471 853 317 c 0
 853 301.534297718 848.537079803 299.876566657 834.613216011 299.876566657 c 0
 830.813781402 299.876566657 826.309892418 300 821 300 c 2
 492 300 l 1
 489.333333333 294 488 280.666666667 488 260 c 0x35c0
175 143 m 0x66c0
 175 105.649731808 202.813294684 84 241 84 c 0
 290.836434898 84 321.681683936 115.809315086 336 152.5 c 0
 341.333333333 166.166666667 344 181 344 197 c 2
 344 286 l 1
 292.302998294 260.70146725 249.451278421 239.983586657 213 209 c 0
 192.739487856 191.778564678 175 173.614612587 175 143 c 0x66c0
714 385 m 0
 714 441.818631822 678.958943538 482 623 482 c 0x34c0
 552.629239689 482 514.072019895 419.51779813 499 356 c 1
 652 356 l 2
 658.44541406 356 665.240579483 355.796606795 671.863823144 355.796606795 c 0
 690.403706245 355.796606795 707.596478381 357.390315549 712 369.5 c 0
 713.333333333 373.166666667 714 378.333333333 714 385 c 0
547 813 m 0
 577.916948609 813 602 797.806362031 602 768 c 0
 602 756.666666667 595.833333333 746.666666667 583.5 738 c 0
 571.166666667 729.333333333 554.333333333 720.333333333 533 711 c 2
 394 651 l 1
 335 651 l 1
 462 770 l 2
 486.033664449 793.032261764 509.441454631 813 547 813 c 0
EndSplineSet
EndChar

StartChar: periodcentered
Encoding: 183 183 139
Width: 281
Flags: W
HStem: 200 151<88.0895 193.166>
VStem: 65 152<222.682 327.049>
LayerCount: 2
Fore
SplineSet
140 200 m 0
 98.1515607019 200 65 232.450840898 65 274 c 0
 65 316.327986343 97.6209175723 351 140 351 c 0
 183.185751723 351 217 316.860723891 217 274 c 0
 217 231.938249453 182.63177363 200 140 200 c 0
EndSplineSet
EndChar

StartChar: uni2219
Encoding: 8729 8729 140
Width: 281
Flags: W
HStem: 200 151<88.0895 193.166>
VStem: 65 152<222.682 327.049>
LayerCount: 2
Fore
SplineSet
140 200 m 0
 98.1515607019 200 65 232.450840898 65 274 c 0
 65 316.327986343 97.6209175723 351 140 351 c 0
 183.185751723 351 217 316.860723891 217 274 c 0
 217 231.938249453 182.63177363 200 140 200 c 0
EndSplineSet
EndChar

StartChar: oe
Encoding: 339 339 141
Width: 1053
Flags: W
HStem: -10 61<265.516 392.717 744.717 895.201> 300 56<669 865.134> 482 58<264.757 392.475 727.494 843.997>
VStem: 37 157<160.511 373.561> 466 192<149.161 299.715> 877 140<312 429.804>
LayerCount: 2
Fore
SplineSet
816 55 m 0
 885.360773842 55 938.254357327 90.5359617041 980 128 c 1
 1008 93 l 1
 947.333333333 24.3333333333 871.666666667 -10 781 -10 c 0
 678.694899206 -10 602.102371107 31.8635051907 557 92 c 1
 507.92865852 34.5506246085 429.059074265 -10 328 -10 c 0
 241.175402825 -10 170.689251512 23.8874423513 123 68 c 0
 74.700339241 112.677186202 37 180.456777595 37 269 c 0
 37 355.229469021 75.1363296088 420.922696648 123 464 c 0
 170.971762807 507.174586526 241.552997677 540 328 540 c 0
 432.117855202 540 512.848262994 493.704448816 563 434 c 1
 610.010270919 495.85561963 687.960642846 540 793 540 c 0
 932.444568924 540 1017 461.579894409 1017 323 c 0
 1017 301.000268074 1012.30297911 299.989656029 990.990936243 299.989656029 c 0
 988.834798517 299.989656029 986.508600172 300 984 300 c 2
 662 300 l 1
 659.333333333 294 658 283 658 267 c 0
 658 151.491703622 707.600952067 55 816 55 c 0
328 482 m 0
 281.439736624 482 250.128646724 454.405834758 230.5 423 c 0
 206.775267364 385.040427782 194 330.470677489 194 268 c 0
 194 176.78419647 217.614516615 101.22346908 272.5 66.5 c 0
 288.833333333 56.1666666667 307.333333333 51 328 51 c 256
 375.959193201 51 407.683818285 78.3327122853 428 110.5 c 0
 452.407624421 149.145405333 466 204.157405411 466 268 c 0
 466 357.538242505 439.573987234 433.023654818 384.5 466.5 c 0
 367.5 476.833333333 348.666666667 482 328 482 c 0
877 382 m 0
 877 437.0124892 842.337570351 482 789 482 c 0
 722.53213395 482 680.098525365 417.041889508 669 356 c 1
 814 356 l 2
 840.666666667 356 857.833333333 357.5 865.5 360.5 c 0
 873.166666667 363.5 877 370.666666667 877 382 c 0
EndSplineSet
EndChar

StartChar: kgreenlandic
Encoding: 312 312 142
Width: 675
Flags: W
HStem: 0 40<27 94.5753 268.965 322 369 419.982 609.636 680> 465 37<30 71.0789> 490.089 39.9115<358 444.977 551.72 631> 520 20G<135.632 253>
VStem: 116 137<59.0649 203 274 453.061>
LayerCount: 2
Fore
SplineSet
445 474 m 0xd8
 445 488.638426762 413.952866461 490.088520098 381.688161959 490.088520098 c 0
 373.716467287 490.088520098 365.670446708 490 358 490 c 1
 358 530 l 1
 631 530 l 1xa8
 631 490 l 1
 605.666666667 490 583.5 485.666666667 564.5 477 c 0
 545.5 468.333333333 524.333333333 453.333333333 501 432 c 2
 404 341 l 1
 577 96 l 2
 604.844864256 57.017190042 623.827964742 40 680 40 c 1
 680 0 l 1
 369 0 l 1
 369 40 l 1
 394.883934635 40 420 40.3783537331 420 60 c 0
 420 68 414.333333333 80.6666666667 403 98 c 2
 303 251 l 1
 253 203 l 1
 253 164 l 2
 253 160.266149816 252.993192526 156.5321313 252.993192526 152.811924987 c 0
 252.993192526 103.883449917 254.17073156 57.3441734963 287.5 45 c 0
 296.5 41.6666666667 308 40 322 40 c 1
 322 0 l 1
 27 0 l 1
 27 40 l 1
 80.2071240944 40 103.980656969 53.3911954489 112 98.5 c 0
 114.666666667 113.5 116 133 116 157 c 2
 116 291 l 2
 116 333 115.166666667 365.833333333 113.5 389.5 c 0
 110.860203834 426.985105564 105.325846845 455.668208002 77 461.5 c 0
 65.6666666667 463.833333333 50 465 30 465 c 1
 30 502 l 1
 253 540 l 1
 253 274 l 1
 349 365 l 2
 380.367971346 394.276773257 403.291435149 416.475925885 426.5 443 c 0
 435.616115033 453.41841718 445 461.605974446 445 474 c 0xd8
EndSplineSet
EndChar

StartChar: OE
Encoding: 338 338 143
Width: 1181
Flags: W
HStem: 0 65<374.375 542.844> 0 55<746.947 1012.43> 383 40<704 845.087> 717 53<704 987.987>
VStem: 45 174<258.647 504.423> 557 147<93.9949 383 423 690.859> 908 41<255 322.817 477.061 548> 1063 42<574 641.792> 1111 40<163.155 229>
LayerCount: 2
Fore
SplineSet
1096 770 m 1xbf80
 1105 574 l 1
 1063 574 l 1
 1051.42481568 651.167895437 1018.84388085 694.429339551 945.5 709.5 c 0
 921.166666667 714.5 891 717 855 717 c 2
 722 717 l 2
 710 717 704 711.333333333 704 700 c 2
 704 423 l 1
 794.188420848 423 865.939021406 425.957864886 893 485 c 0
 900.333333333 501 905.333333333 522 908 548 c 1
 949 548 l 1
 949 255 l 1
 908 255 l 1
 896.376828003 328.613422646 872.301269264 365.113307687 799 377 c 0
 774.333333333 381 742.666666667 383 704 383 c 1
 704 169 l 2
 704 99.0857287635 734.186789724 70.635535046 795 60.5 c 0
 817 56.8333333333 844.666666667 55 878 55 c 0
 984.571354996 55 1052.38469443 76.2463277484 1085 148 c 0
 1095 170 1103.66666667 197 1111 229 c 1
 1151 229 l 1
 1130 0 l 1x7f80
 478 0 l 2
 348.210868476 0 242.245225468 47.3396733055 170.5 110.5 c 0
 102.565965645 170.305175543 45 260.054866818 45 379 c 0
 45 501.556437447 101.994632371 595.012127384 171 657 c 0
 243.234493058 721.888612408 350.324328562 770 482 770 c 2
 1096 770 l 1xbf80
557 618 m 2
 557 680.350909049 541.018948578 705 482 705 c 0
 344.058962491 705 269.129418117 622.883028063 237 514 c 0
 225 473.333333333 219 427.333333333 219 376 c 0
 219 232.897130949 272.539220771 130.369211411 371.5 86.5 c 0
 403.833333333 72.1666666667 440.666666667 65 482 65 c 0xbf80
 541.480240998 65 557 90.0991480353 557 152 c 2
 557 618 l 2
EndSplineSet
EndChar

StartChar: tilde
Encoding: 732 732 144
Width: 401
Flags: W
HStem: 652 96<218.213 332.014> 700 94<69.9061 183.351>
LayerCount: 2
Fore
SplineSet
101 700 m 256x40
 72.920048189 700 65.6028797618 684.733279315 57 660 c 1
 11 660 l 1
 21.8366245073 723.936084593 62.1237462456 794 130 794 c 0x40
 151.795108671 794 166.886002979 787.770229738 185 781.5 c 0
 205.088352997 774.546339347 248.938120379 757.724082241 265 753 c 0
 276.333333333 749.666666667 286.666666667 748 296 748 c 0
 326.248189718 748 336.11634915 764.459503806 345 790 c 1
 390 790 l 1
 384.374982705 753.43738758 365.333602394 712.167002993 346 688 c 0
 326 664 301.666666667 652 273 652 c 0x80
 209.972125062 652 167.807436881 700 101 700 c 256x40
EndSplineSet
EndChar

StartChar: asciitilde
Encoding: 126 126 145
Width: 562
Flags: W
HStem: 241 96<298.378 433.936> 289 94<131.791 264.316>
VStem: 73 46<249 283.924>
LayerCount: 2
Fore
SplineSet
196 383 m 0x60
 269.969241868 383 320.714439606 337 395 337 c 0
 427.291377561 337 437.761240149 352.438565428 447 379 c 1
 492 379 l 1
 479.944061564 306.664369386 444.845415398 241 369 241 c 0xa0
 332.399220762 241 301.195303544 254.519304632 271.5 265 c 0
 240.602860111 275.904872902 206.363821262 289 167 289 c 0
 133.853513455 289 128.197312323 277.741601009 119 249 c 1
 73 249 l 1
 84.1335196709 318.027821959 122.871594236 383 196 383 c 0x60
EndSplineSet
EndChar

StartChar: atilde
Encoding: 227 227 146
Width: 574
Flags: W
HStem: -10 70<420.154 531.086> -9 93<132.796 268.999> 491 49<214.125 319.31> 652 96<295.213 409.014> 700 94<146.906 260.351>
VStem: 34 141<96.9432 181.641> 59 129<388.645 467.917> 344 134<125.98 285 338 464.608>
LayerCount: 2
Fore
SplineSet
175 147 m 0x65
 175 111.206347613 196.702363271 84 231 84 c 256
 282.64717079 84 319.598887741 112.020977759 335.5 148.5 c 0
 341.166666667 161.5 344 175.333333333 344 190 c 2
 344 285 l 1
 288 259.666666667 245.833333333 236.166666667 217.5 214.5 c 0
 189.166666667 192.833333333 175 170.333333333 175 147 c 0x65
173 -9 m 0
 92.5929540672 -9 34 40.3308247823 34 119 c 0x65
 34 148.333333333 47 175.833333333 73 201.5 c 0
 99 227.166666667 142.333333333 252.333333333 203 277 c 1
 344 338 l 1
 344 380 l 2
 344 448.984945385 324.045236159 491 260 491 c 0
 240.666666667 491 226 485.833333333 216 475.5 c 0
 206 465.166666667 196.666666667 448 188 424 c 0
 176.783049502 392.841804171 157.959999886 371 117 371 c 0
 78.2559863009 371 59 396.385374421 59 436 c 0
 59 468 76.5 493.333333333 111.5 512 c 0
 146.5 530.666666667 199.333333333 540 270 540 c 0
 410.555859946 540 478 498.926575477 478 364 c 2
 478 145 l 2
 478 88.3333333333 489.333333333 60 512 60 c 0
 524.666666667 60 536.333333333 64.3333333333 547 73 c 1
 562 44 l 1
 543.877126516 11.637725922 502.043114299 -10 452 -10 c 0xa3
 388.30783012 -10 358 31.8848377723 358 97 c 1
 353 97 l 1
 318.94128273 35.929196619 261.664764226 -9 173 -9 c 0
178 700 m 256x29
 149.920048189 700 142.602879762 684.733279315 134 660 c 1
 88 660 l 1
 98.8366245073 723.936084593 139.123746246 794 207 794 c 0x29
 228.795108671 794 243.886002979 787.770229738 262 781.5 c 0
 282.088352997 774.546339347 325.938120379 757.724082241 342 753 c 0
 353.333333333 749.666666667 363.666666667 748 373 748 c 0
 403.248189718 748 413.11634915 764.459503806 422 790 c 1
 467 790 l 1
 461.374982705 753.43738758 442.333602394 712.167002993 423 688 c 0
 403 664 378.666666667 652 350 652 c 0x31
 286.972125062 652 244.807436881 700 178 700 c 256x29
EndSplineSet
EndChar

StartChar: ntilde
Encoding: 241 241 147
Width: 727
Flags: W
HStem: 0 40<29 99.5889 272.906 344 401 472.074 644.7 714> 468 34<25 60.5526> 475 65<315.433 448.168> 652 96<381.213 495.014> 700 94<232.906 346.351>
VStem: 118 139<56.4499 406.946> 490 139<56.3727 426.463>
LayerCount: 2
Fore
SplineSet
235 452 m 1xa6
 273.485280137 500.981265629 330.651450907 540 412 540 c 0
 501.879724807 540 546.054402977 516.831273483 586 464 c 0
 614.557068423 425.363966251 629 378.474867718 629 304 c 2
 629 163 l 2
 629 153.783749381 628.886564264 144.721786533 628.886564264 135.965991432 c 0
 628.886564264 91.2423457811 631.846164887 54.5067847325 668 46 c 0
 679.333333333 43.3333333333 694.666666667 41.3333333333 714 40 c 1
 714 0 l 1
 401 0 l 1
 401 40 l 1
 454.25495863 41.7751652877 480.6568174 48.9261304994 487 96.5 c 0
 489 111.5 490 131.333333333 490 156 c 2
 490 292 l 2
 490 372.268931067 482.708785692 442.307569815 429 465.5 c 0
 414.333333333 471.833333333 396 475 374 475 c 0xa6
 324.577517498 475 297.928088113 442.62934233 279 407 c 0
 266.55772263 382.115445261 257 339.589211727 257 301 c 2
 257 163 l 2
 257 153.683562443 256.883111861 144.535975847 256.883111861 135.709352973 c 0
 256.883111861 90.9026280084 259.8952002 54.3668113829 296.5 46 c 0
 308.166666667 43.3333333333 324 41.3333333333 344 40 c 1
 344 0 l 1
 29 0 l 1
 29 40 l 1
 80.5213747466 43.5531982584 108.532666718 48.5728892631 115 96 c 0
 117 110.666666667 118 130.666666667 118 156 c 2
 118 281 l 2
 118 320.333333333 117.333333333 352.166666667 116 376.5 c 0
 113.936382241 414.161024105 114.40048223 428.11918021 103 447.5 c 0
 90.9426287138 467.997531186 59.2191197894 468 25 468 c 1
 25 502 l 1xc6
 218 540 l 1
 231 452 l 1
 235 452 l 1xa6
264 700 m 256x8e
 235.920048189 700 228.602879762 684.733279315 220 660 c 1
 174 660 l 1
 184.836624507 723.936084593 225.123746246 794 293 794 c 0x8e
 314.795108671 794 329.886002979 787.770229738 348 781.5 c 0
 368.088352997 774.546339347 411.938120379 757.724082241 428 753 c 0
 439.333333333 749.666666667 449.666666667 748 459 748 c 0
 489.248189718 748 499.11634915 764.459503806 508 790 c 1
 553 790 l 1
 547.374982705 753.43738758 528.333602394 712.167002993 509 688 c 0
 489 664 464.666666667 652 436 652 c 0x96
 372.972125062 652 330.807436881 700 264 700 c 256x8e
EndSplineSet
EndChar

StartChar: utilde
Encoding: 361 361 148
Width: 709
Flags: W
HStem: -10 65<282.877 405.525> 1 39<618.365 696> 490 40<13 81.26 378 448.046> 652 96<329.213 443.014> 700 94<180.906 294.351>
VStem: 98 139<109.737 473.959> 465 139<129.045 473.915>
LayerCount: 2
Fore
SplineSet
304 -10 m 0xa6
 167.132874853 -10 98 83.4841635335 98 231 c 2
 98 366 l 2
 98 393.333333333 97.3333333333 414.833333333 96 430.5 c 0
 91.7167864243 480.827759514 63.836021547 484.916397845 13 490 c 1
 13 530 l 1
 237 530 l 1
 237 247 l 2
 237 179.666666667 245.333333333 130.833333333 262 100.5 c 0
 278.666666667 70.1666666667 305.333333333 55 342 55 c 0xa6
 381.333333333 55 411.666666667 73 433 109 c 0
 454.333333333 143.666666667 465 194.666666667 465 262 c 2
 465 366 l 2
 465 376.354585856 465.156825483 386.381001048 465.156825483 395.929057521 c 0
 465.156825483 439.521730936 461.887834801 473.143128194 425.5 482.5 c 0
 413.833333333 485.5 398 488 378 490 c 1
 378 530 l 1
 604 530 l 1
 604 227 l 2
 604 186.333333333 604.5 154.5 605.5 131.5 c 0
 607.790563701 78.817034879 607.596317274 46.1358402638 655.5 41.5 c 0
 665.833333333 40.5 679.333333333 40 696 40 c 1
 696 1 l 1x66
 497 -11 l 1
 486 78 l 1
 482 78 l 1
 449.666741969 25.769352412 385.893471416 -10 304 -10 c 0xa6
212 700 m 256x2e
 183.920048189 700 176.602879762 684.733279315 168 660 c 1
 122 660 l 1
 132.836624507 723.936084593 173.123746246 794 241 794 c 0x2e
 262.795108671 794 277.886002979 787.770229738 296 781.5 c 0
 316.088352997 774.546339347 359.938120379 757.724082241 376 753 c 0
 387.333333333 749.666666667 397.666666667 748 407 748 c 0
 437.248189718 748 447.11634915 764.459503806 456 790 c 1
 501 790 l 1
 495.374982705 753.43738758 476.333602394 712.167002993 457 688 c 0
 437 664 412.666666667 652 384 652 c 0x36
 320.972125062 652 278.807436881 700 212 700 c 256x2e
EndSplineSet
EndChar

StartChar: otilde
Encoding: 245 245 149
Width: 660
Flags: W
HStem: -10 61<265.516 394.387> 482 58<264.757 391.256> 652 96<338.213 452.014> 700 94<189.906 303.351>
VStem: 37 157<160.511 373.561> 466 157<161.227 372.391>
LayerCount: 2
Fore
SplineSet
328 540 m 0xcc
 415.419804065 540 486.82189718 506.269424729 535.5 463 c 0
 583.872442203 420.002273597 623 355.454356952 623 269 c 0
 623 180.331744515 584.236036478 113.524280239 535.5 69 c 0
 487.014147368 24.7042827809 415.928437451 -10 328 -10 c 0
 241.175402825 -10 170.689251512 23.8874423513 123 68 c 0
 74.700339241 112.677186202 37 180.456777595 37 269 c 0
 37 355.229469021 75.1363296088 420.922696648 123 464 c 0
 170.971762807 507.174586526 241.552997677 540 328 540 c 0xcc
328 482 m 0
 281.439736624 482 250.128646724 454.405834758 230.5 423 c 0
 206.775267364 385.040427782 194 330.470677489 194 268 c 0
 194 176.78419647 217.614516615 101.22346908 272.5 66.5 c 0
 288.833333333 56.1666666667 307.333333333 51 328 51 c 256
 375.959193201 51 407.683818285 78.3327122853 428 110.5 c 0
 452.407624421 149.145405333 466 204.157405411 466 268 c 0
 466 357.538242505 439.573987234 433.023654818 384.5 466.5 c 0
 367.5 476.833333333 348.666666667 482 328 482 c 0
221 700 m 256xdc
 192.920048189 700 185.602879762 684.733279315 177 660 c 1
 131 660 l 1
 141.836624507 723.936084593 182.123746246 794 250 794 c 0xdc
 271.795108671 794 286.886002979 787.770229738 305 781.5 c 0
 325.088352997 774.546339347 368.938120379 757.724082241 385 753 c 0
 396.333333333 749.666666667 406.666666667 748 416 748 c 0
 446.248189718 748 456.11634915 764.459503806 465 790 c 1
 510 790 l 1
 504.374982705 753.43738758 485.333602394 712.167002993 466 688 c 0
 446 664 421.666666667 652 393 652 c 0xec
 329.972125062 652 287.807436881 700 221 700 c 256xdc
EndSplineSet
EndChar

StartChar: etilde
Encoding: 7869 7869 150
Width: 585
Flags: W
HStem: -10 65<270.945 427.201> 300 56<201 397.134> 482 58<259.112 375.997> 652 96<334.213 448.014> 700 94<185.906 299.351>
VStem: 38 152<149.086 297.234> 409 140<312 429.804>
LayerCount: 2
Fore
SplineSet
348 55 m 0xe6
 417.360773842 55 470.254357327 90.5359617041 512 128 c 1
 540 93 l 1
 479.333333333 24.3333333333 403.666666667 -10 313 -10 c 0
 181.831070798 -10 96.3880918694 54.9491749199 58 149 c 0
 44.6666666667 181.666666667 38 218 38 258 c 0
 38 393.236275932 111.431307986 479.772523195 209.5 519 c 0
 244.5 533 283 540 325 540 c 0
 464.444568924 540 549 461.579894409 549 323 c 0
 549 301.000268074 544.302979109 299.989656029 522.990936243 299.989656029 c 0
 520.834798517 299.989656029 518.508600172 300 516 300 c 2
 194 300 l 1
 191.333333333 294 190 283 190 267 c 0
 190 151.491703622 239.600952067 55 348 55 c 0xe6
409 382 m 0
 409 437.0124892 374.337570351 482 321 482 c 0
 254.53213395 482 212.098525365 417.041889508 201 356 c 1
 346 356 l 2
 372.666666667 356 389.833333333 357.5 397.5 360.5 c 0
 405.166666667 363.5 409 370.666666667 409 382 c 0
217 700 m 256xee
 188.920048189 700 181.602879762 684.733279315 173 660 c 1
 127 660 l 1
 137.836624507 723.936084593 178.123746246 794 246 794 c 0xee
 267.795108671 794 282.886002979 787.770229738 301 781.5 c 0
 321.088352997 774.546339347 364.938120379 757.724082241 381 753 c 0
 392.333333333 749.666666667 402.666666667 748 412 748 c 0
 442.248189718 748 452.11634915 764.459503806 461 790 c 1
 506 790 l 1
 500.374982705 753.43738758 481.333602394 712.167002993 462 688 c 0
 442 664 417.666666667 652 389 652 c 0xf6
 325.972125062 652 283.807436881 700 217 700 c 256xee
EndSplineSet
EndChar

StartChar: ytilde
Encoding: 7929 7929 151
Width: 646
Flags: W
HStem: -260 115<77.4875 209.802> 490 40<8 62.3584 244.021 311 413 481.421 599.229 654> 652 96<380.213 494.014> 700 94<231.906 345.351>
LayerCount: 2
Fore
SplineSet
486 446 m 0xc0
 486 487.487650077 461.548674637 490 413 490 c 1
 413 530 l 1
 654 530 l 1
 654 490 l 1
 621.746189064 490 608.345395095 481.74977356 591.5 462 c 0
 581.833333333 450.666666667 571.166666667 433.833333333 559.5 411.5 c 0
 547.833333333 389.166666667 533.333333333 359.666666667 516 323 c 2
 287 -157 l 2
 265.098364915 -200.803270169 227.778905165 -234.625852667 180 -252 c 0
 165.333333333 -257.333333333 150.666666667 -260 136 -260 c 0
 95.6322919159 -260 63 -239.690729975 63 -201 c 0
 63 -160.72926253 94.4379941762 -148.274000448 137 -145 c 0
 196.333333333 -140.333333333 234.666666667 -121.666666667 252 -89 c 2
 279 -37 l 1
 102 401 l 2
 89.305421363 431.678565039 81.8341945789 455.60751515 63 473.5 c 0
 49.3508624222 486.466680699 33.306357616 488.668086441 8 490 c 1
 8 530 l 1
 311 530 l 1
 311 490 l 1
 270.866749026 490 241 488.114801481 241 455 c 0
 241 441.218577908 245.765792235 426.644071353 250 415 c 2
 352 123 l 1
 356 123 l 1
 442 318 l 2
 459.071543728 358.709065813 474.807072971 386.631828371 484 428 c 0
 485.333333333 434 486 440 486 446 c 0xc0
263 700 m 256xd0
 234.920048189 700 227.602879762 684.733279315 219 660 c 1
 173 660 l 1
 183.836624507 723.936084593 224.123746246 794 292 794 c 0xd0
 313.795108671 794 328.886002979 787.770229738 347 781.5 c 0
 367.088352997 774.546339347 410.938120379 757.724082241 427 753 c 0
 438.333333333 749.666666667 448.666666667 748 458 748 c 0
 488.248189718 748 498.11634915 764.459503806 507 790 c 1
 552 790 l 1
 546.374982705 753.43738758 527.333602394 712.167002993 508 688 c 0
 488 664 463.666666667 652 435 652 c 0xe0
 371.972125062 652 329.807436881 700 263 700 c 256xd0
EndSplineSet
EndChar

StartChar: itilde
Encoding: 297 297 152
Width: 361
Flags: W
HStem: 0 40<29 96.9126 274.939 344> 468 34<25 67.7368> 520 20G<134.895 257> 652 96<197.213 311.014> 700 94<48.9061 162.351>
VStem: 118 139<59.8429 455.503>
LayerCount: 2
Fore
SplineSet
257 164 m 2xe4
 257 159.542291758 256.9890314 155.12883264 256.9890314 150.774418961 c 0
 256.9890314 99.223932671 258.526326898 55.9489134681 298 45.5 c 0
 309.333333333 42.5 324.666666667 40.6666666667 344 40 c 1
 344 0 l 1
 29 0 l 1
 29 40 l 1
 80.8901882303 41.8532210082 107.33992029 53.4709161525 114.5 99.5 c 0
 116.833333333 114.5 118 133.666666667 118 157 c 2
 118 280 l 2
 118 318.666666667 117.333333333 350.5 116 375.5 c 0
 113.702793634 418.572619357 114.235459181 448.23521866 88.5 460 c 0
 76.8333333333 465.333333333 55.6666666667 468 25 468 c 1
 25 502 l 1
 257 540 l 1
 257 164 l 2xe4
80 700 m 256xec
 51.920048189 700 44.6028797618 684.733279315 36 660 c 1
 -10 660 l 1
 0.836624507258 723.936084593 41.1237462456 794 109 794 c 0xec
 130.795108671 794 145.886002979 787.770229738 164 781.5 c 0
 184.088352997 774.546339347 227.938120379 757.724082241 244 753 c 0
 255.333333333 749.666666667 265.666666667 748 275 748 c 0
 305.248189718 748 315.11634915 764.459503806 324 790 c 1
 369 790 l 1
 363.374982705 753.43738758 344.333602394 712.167002993 325 688 c 0
 305 664 280.666666667 652 252 652 c 0xf4
 188.972125062 652 146.807436881 700 80 700 c 256xec
EndSplineSet
EndChar

StartChar: breve
Encoding: 728 728 153
Width: 332
Flags: W
HStem: 646 89<84.2137 246.417>
VStem: 16 43<759.634 786>
LayerCount: 2
Fore
SplineSet
165 735 m 256
 212.599786014 735 259.143527319 753.144569815 272 786 c 1
 316 786 l 1
 311.75136378 720.146138589 274.21918632 676.596281372 223.5 656.5 c 0
 205.833333333 649.5 186.666666667 646 166 646 c 0
 97.1502872549 646 51.1064283928 682.102738482 29 730 c 0
 21 747.333333333 16.6666666667 766 16 786 c 1
 59 786 l 1
 71.8616059051 753.131451576 117.365903041 735 165 735 c 256
EndSplineSet
EndChar

StartChar: abreve
Encoding: 259 259 154
Width: 574
Flags: W
HStem: -10 70<420.154 531.086> -9 93<132.796 268.999> 491 49<214.125 319.31> 646 89<188.214 350.417>
VStem: 34 141<96.9432 181.641> 59 129<388.645 467.917> 120 43<759.634 786> 344 134<125.98 285 338 464.608>
LayerCount: 2
Fore
SplineSet
175 147 m 0x79
 175 111.206347613 196.702363271 84 231 84 c 256
 282.64717079 84 319.598887741 112.020977759 335.5 148.5 c 0
 341.166666667 161.5 344 175.333333333 344 190 c 2
 344 285 l 1
 288 259.666666667 245.833333333 236.166666667 217.5 214.5 c 0
 189.166666667 192.833333333 175 170.333333333 175 147 c 0x79
173 -9 m 0
 92.5929540672 -9 34 40.3308247823 34 119 c 0x79
 34 148.333333333 47 175.833333333 73 201.5 c 0
 99 227.166666667 142.333333333 252.333333333 203 277 c 1
 344 338 l 1
 344 380 l 2
 344 448.984945385 324.045236159 491 260 491 c 0
 240.666666667 491 226 485.833333333 216 475.5 c 0
 206 465.166666667 196.666666667 448 188 424 c 0
 176.783049502 392.841804171 157.959999886 371 117 371 c 0
 78.2559863009 371 59 396.385374421 59 436 c 0
 59 468 76.5 493.333333333 111.5 512 c 0
 146.5 530.666666667 199.333333333 540 270 540 c 0
 410.555859946 540 478 498.926575477 478 364 c 2
 478 145 l 2
 478 88.3333333333 489.333333333 60 512 60 c 0
 524.666666667 60 536.333333333 64.3333333333 547 73 c 1
 562 44 l 1
 543.877126516 11.637725922 502.043114299 -10 452 -10 c 0xb5
 388.30783012 -10 358 31.8848377723 358 97 c 1
 353 97 l 1
 318.94128273 35.929196619 261.664764226 -9 173 -9 c 0
269 735 m 256
 316.599786014 735 363.143527319 753.144569815 376 786 c 1
 420 786 l 1
 415.75136378 720.146138589 378.21918632 676.596281372 327.5 656.5 c 0
 309.833333333 649.5 290.666666667 646 270 646 c 0
 201.150287255 646 155.106428393 682.102738482 133 730 c 0
 125 747.333333333 120.666666667 766 120 786 c 1
 163 786 l 1x33
 175.861605905 753.131451576 221.365903041 735 269 735 c 256
EndSplineSet
EndChar

StartChar: ubreve
Encoding: 365 365 155
Width: 709
Flags: W
HStem: -10 65<282.877 405.525> 1 39<618.365 696> 490 40<13 81.26 378 448.046> 646 89<237.214 399.417>
VStem: 98 139<109.737 473.959> 169 43<759.634 786> 465 139<129.045 473.915>
LayerCount: 2
Fore
SplineSet
304 -10 m 0xba
 167.132874853 -10 98 83.4841635335 98 231 c 2
 98 366 l 2
 98 393.333333333 97.3333333333 414.833333333 96 430.5 c 0
 91.7167864243 480.827759514 63.836021547 484.916397845 13 490 c 1
 13 530 l 1
 237 530 l 1
 237 247 l 2
 237 179.666666667 245.333333333 130.833333333 262 100.5 c 0
 278.666666667 70.1666666667 305.333333333 55 342 55 c 0xba
 381.333333333 55 411.666666667 73 433 109 c 0
 454.333333333 143.666666667 465 194.666666667 465 262 c 2
 465 366 l 2
 465 376.354585856 465.156825483 386.381001048 465.156825483 395.929057521 c 0
 465.156825483 439.521730936 461.887834801 473.143128194 425.5 482.5 c 0
 413.833333333 485.5 398 488 378 490 c 1
 378 530 l 1
 604 530 l 1
 604 227 l 2
 604 186.333333333 604.5 154.5 605.5 131.5 c 0
 607.790563701 78.817034879 607.596317274 46.1358402638 655.5 41.5 c 0
 665.833333333 40.5 679.333333333 40 696 40 c 1
 696 1 l 1x7a
 497 -11 l 1
 486 78 l 1
 482 78 l 1
 449.666741969 25.769352412 385.893471416 -10 304 -10 c 0xba
318 735 m 256
 365.599786014 735 412.143527319 753.144569815 425 786 c 1
 469 786 l 1
 464.75136378 720.146138589 427.21918632 676.596281372 376.5 656.5 c 0
 358.833333333 649.5 339.666666667 646 319 646 c 0
 250.150287255 646 204.106428393 682.102738482 182 730 c 0
 174 747.333333333 169.666666667 766 169 786 c 1
 212 786 l 1x36
 224.861605905 753.131451576 270.365903041 735 318 735 c 256
EndSplineSet
EndChar

